SplineFontDB: 3.0
FontName: KAN-BadamiNormal
FullName: KAN Badami Normal
FamilyName: KAN Badami
Weight: Book
Copyright: Copyright (c) 2009-2015, NLCI (http://www.nlci.in/fonts/)
Version: 1.0 Sat Apr 29 14:43:46 1995
ItalicAngle: 0
UnderlinePosition: -593.92
UnderlineWidth: 40.96
Ascent: 1638
Descent: 410
InvalidEm: 0
LayerCount: 2
Layer: 0 0 "Back" 1
Layer: 1 0 "Fore" 0
XUID: [1021 182 1145523420 2649352]
FSType: 0
OS2Version: 0
OS2_WeightWidthSlopeOnly: 0
OS2_UseTypoMetrics: 1
CreationTime: 1250503974
ModificationTime: 1523584266
PfmFamily: 81
TTFWeight: 400
TTFWidth: 5
LineGap: 0
VLineGap: 0
Panose: 5 0 0 0 0 0 0 0 0 0
OS2TypoAscent: -147
OS2TypoAOffset: 1
OS2TypoDescent: -401
OS2TypoDOffset: 1
OS2TypoLinegap: 0
OS2WinAscent: -242
OS2WinAOffset: 1
OS2WinDescent: -319
OS2WinDOffset: 1
HheadAscent: -242
HheadAOffset: 1
HheadDescent: 319
HheadDOffset: 1
OS2SubXSize: 1434
OS2SubYSize: 1331
OS2SubXOff: 0
OS2SubYOff: 293
OS2SupXSize: 1434
OS2SupYSize: 1331
OS2SupXOff: 0
OS2SupYOff: 928
OS2StrikeYSize: 102
OS2StrikeYPos: 530
OS2Vendor: 'Alts'
OS2UnicodeRanges: 00000000.00000000.00000000.00000000
Lookup: 262 0 0 "blwm" { "blwm-2sub"  } []
MarkAttachClasses: 1
DEI: 91125
TtTable: prep
NPUSHB
 1
 1
SCANTYPE
PUSHW_1
 511
SCANCTRL
EndTTInstrs
ShortTable: maxp 16
  1
  0
  319
  151
  6
  193
  8
  2
  8
  64
  10
  0
  3
  557
  4
  2
EndShort
LangName: 1033 "" "" "Normal" "NLCI:KAN Badami Normal" "" "1.0 Sat Apr 29 14:43:46 1995"
Encoding: Original
Compacted: 1
UnicodeInterp: none
NameList: Adobe Glyph List
DisplaySize: -48
AntiAlias: 1
FitToEm: 1
WinInfo: 0 37 14
BeginPrivate: 0
EndPrivate
AnchorClass2: "Sub" "blwm-2sub" "Nukta"""  "s"""  "V""" 
BeginChars: 572 313

StartChar: .notdef
Encoding: 0 -1 0
Width: 1024
Flags: HW
HStem: 0 63<127 897> 1221 63<127 897>
VStem: 63 63<63 1221> 897 63<63 1221>
LayerCount: 2
Fore
SplineSet
63 0 m 1
 63 1284 l 1
 961 1284 l 1
 961 0 l 1
 63 0 l 1
897 63 m 1
 897 1221 l 1
 127 1221 l 1
 127 63 l 1
 897 63 l 1
EndSplineSet
EndChar

StartChar: exclam
Encoding: 4 33 4
Width: 708
VWidth: 1024
Flags: HW
LayerCount: 2
Fore
SplineSet
482 1305 m 0
 482 1301 481 1284 479 1255 c 0
 477 1226 473 1189 470 1145 c 0
 467 1101 462 1052 458 997 c 0
 454 942 449 886 444 829 c 0
 432 696 421 547 407 380 c 0
 304 380 l 0
 290 547 277 696 265 829 c 0
 260 886 256 942 251 997 c 0
 246 1052 242 1101 239 1145 c 0
 236 1189 232 1226 230 1255 c 0
 228 1284 226 1301 226 1305 c 0
 226 1347 237 1380 257 1404 c 0
 277 1428 310 1441 354 1441 c 0
 398 1441 432 1428 452 1404 c 0
 472 1380 482 1347 482 1305 c 0
484 104 m 0
 484 87 481 71 474 55 c 0
 467 39 458 26 446 14 c 0
 434 2 420 -8 404 -15 c 0
 388 -22 372 -26 354 -26 c 0
 336 -26 320 -22 304 -15 c 0
 288 -8 275 2 263 14 c 0
 251 26 242 39 236 55 c 0
 230 71 226 87 226 104 c 0
 226 122 230 139 236 155 c 0
 242 171 251 184 263 196 c 0
 275 208 288 217 304 223 c 0
 320 229 336 232 354 232 c 0
 372 232 388 229 404 223 c 0
 420 217 434 208 446 196 c 0
 458 184 467 171 474 155 c 0
 481 139 484 122 484 104 c 0
EndSplineSet
EndChar

StartChar: quotedbl
Encoding: 5 34 5
Width: 698
VWidth: 1024
Flags: HW
LayerCount: 2
Fore
SplineSet
535 883 m 0
 501 883 l 0
 430 1395 l 0
 430 1428 438 1452 453 1470 c 0
 468 1488 489 1497 518 1497 c 0
 547 1497 570 1488 585 1470 c 0
 600 1452 608 1428 608 1395 c 0
 535 883 l 0
198 883 m 0
 164 883 l 0
 90 1395 l 0
 90 1428 98 1452 114 1470 c 0
 130 1488 151 1497 180 1497 c 0
 209 1497 231 1488 246 1470 c 0
 261 1452 268 1428 268 1395 c 0
 198 883 l 0
EndSplineSet
EndChar

StartChar: numbersign
Encoding: 6 35 6
Width: 1558
VWidth: 1024
Flags: HW
LayerCount: 2
Fore
SplineSet
1099 883 m 0
 1000 583 l 0
 1338 583 l 0
 1338 478 l 0
 963 478 l 0
 786 -48 l 0
 682 -14 l 0
 845 478 l 0
 541 478 l 0
 362 -48 l 0
 260 -12 l 0
 428 478 l 0
 130 478 l 0
 130 583 l 0
 462 583 l 0
 564 883 l 0
 224 883 l 0
 224 990 l 0
 600 990 l 0
 768 1485 l 0
 874 1451 l 0
 713 990 l 0
 1019 990 l 0
 1185 1485 l 0
 1296 1451 l 0
 1137 990 l 0
 1431 990 l 0
 1431 883 l 0
 1099 883 l 0
680 883 m 0
 577 583 l 0
 881 583 l 0
 984 883 l 0
 680 883 l 0
EndSplineSet
EndChar

StartChar: dollar
Encoding: 7 36 7
Width: 1179
VWidth: 1024
Flags: HW
LayerCount: 2
Fore
SplineSet
1059 398 m 0
 1059 355 1051 316 1037 280 c 0
 1023 244 1005 211 982 182 c 0
 959 153 933 127 903 105 c 0
 873 83 843 65 812 50 c 0
 781 35 750 22 721 14 c 0
 692 6 665 1 642 0 c 0
 642 -216 l 0
 545 -216 l 0
 545 0 l 0
 519 1 489 3 455 5 c 0
 421 7 385 10 348 14 c 0
 311 18 272 23 233 29 c 0
 194 35 157 44 122 54 c 0
 122 411 l 0
 226 411 l 0
 264 176 l 0
 274 164 289 154 308 145 c 0
 327 136 349 128 375 122 c 0
 401 116 429 111 458 108 c 0
 487 105 516 102 545 102 c 0
 545 633 l 0
 499 643 453 657 407 676 c 0
 361 695 319 720 282 750 c 0
 245 780 215 817 191 860 c 0
 167 903 156 955 156 1015 c 0
 156 1057 161 1096 173 1130 c 0
 185 1164 200 1195 220 1222 c 0
 240 1249 263 1273 289 1293 c 0
 315 1313 343 1332 372 1346 c 0
 401 1360 431 1372 461 1381 c 0
 491 1390 521 1397 548 1401 c 0
 548 1559 l 0
 644 1559 l 0
 644 1407 l 0
 689 1407 733 1404 776 1399 c 0
 819 1394 857 1388 890 1382 c 0
 929 1374 965 1367 1000 1359 c 0
 1000 1028 l 0
 891 1028 l 0
 860 1250 l 0
 827 1286 755 1305 644 1305 c 0
 644 805 l 0
 674 796 706 786 738 776 c 0
 770 766 802 753 833 739 c 0
 864 725 893 708 920 689 c 0
 947 670 971 647 992 620 c 0
 1013 593 1029 560 1041 524 c 0
 1053 488 1059 446 1059 398 c 0
548 1296 m 0
 520 1290 494 1281 470 1268 c 0
 446 1255 426 1240 408 1220 c 0
 390 1200 376 1176 366 1149 c 0
 356 1122 350 1092 350 1057 c 0
 350 1023 356 994 369 969 c 0
 382 944 398 923 417 906 c 0
 436 889 457 874 480 862 c 0
 503 850 526 841 548 833 c 0
 548 1296 l 0
868 358 m 0
 868 396 862 430 850 457 c 0
 838 484 821 508 800 527 c 0
 779 546 754 562 727 575 c 0
 700 588 671 598 642 608 c 0
 642 112 l 0
 671 117 700 125 727 137 c 0
 754 149 779 166 800 186 c 0
 821 206 838 230 850 259 c 0
 862 288 868 320 868 358 c 0
EndSplineSet
EndChar

StartChar: percent
Encoding: 8 37 8
Width: 1802
VWidth: 1024
Flags: HW
LayerCount: 2
Fore
SplineSet
1737 407 m 0
 1737 345 1730 287 1717 233 c 0
 1704 179 1684 133 1657 93 c 0
 1630 53 1596 23 1556 0 c 0
 1516 -23 1469 -34 1415 -34 c 0
 1361 -34 1314 -23 1274 0 c 0
 1234 23 1200 53 1173 93 c 0
 1146 133 1126 179 1113 233 c 0
 1100 287 1093 345 1093 407 c 0
 1093 469 1100 527 1113 581 c 0
 1126 635 1146 681 1173 720 c 0
 1200 759 1234 790 1274 813 c 0
 1314 836 1361 847 1415 847 c 0
 1469 847 1516 836 1556 813 c 0
 1596 790 1630 759 1657 720 c 0
 1684 681 1704 635 1717 581 c 0
 1730 527 1737 469 1737 407 c 0
524 0 m 0
 392 0 l 0
 1283 1407 l 0
 1413 1407 l 0
 524 0 l 0
711 1000 m 0
 711 937 704 880 691 826 c 0
 678 772 659 726 632 687 c 0
 605 648 571 617 531 594 c 0
 491 571 444 560 390 560 c 0
 336 560 289 571 249 594 c 0
 209 617 175 648 148 687 c 0
 121 726 101 772 88 826 c 0
 75 880 68 937 68 1000 c 0
 68 1062 75 1121 88 1175 c 0
 101 1229 121 1275 148 1314 c 0
 175 1353 209 1384 249 1407 c 0
 289 1430 336 1441 390 1441 c 0
 444 1441 491 1430 531 1407 c 0
 571 1384 605 1353 632 1314 c 0
 659 1275 678 1229 691 1175 c 0
 704 1121 711 1062 711 1000 c 0
1575 407 m 0
 1575 462 1572 512 1566 556 c 0
 1560 600 1551 639 1538 670 c 0
 1525 701 1508 725 1488 742 c 0
 1468 759 1444 768 1415 768 c 0
 1387 768 1363 759 1342 742 c 0
 1321 725 1304 701 1290 670 c 0
 1276 639 1266 600 1260 556 c 0
 1254 512 1250 462 1250 407 c 0
 1250 352 1254 301 1260 257 c 0
 1266 213 1276 175 1290 143 c 0
 1304 111 1321 87 1342 70 c 0
 1363 53 1387 44 1415 44 c 0
 1444 44 1468 53 1488 70 c 0
 1508 87 1525 111 1538 143 c 0
 1551 175 1560 213 1566 257 c 0
 1572 301 1575 352 1575 407 c 0
550 1000 m 0
 550 1055 547 1106 541 1150 c 0
 535 1194 526 1232 513 1263 c 0
 500 1294 483 1318 463 1335 c 0
 443 1352 419 1361 390 1361 c 0
 361 1361 337 1352 316 1335 c 0
 295 1318 278 1294 264 1263 c 0
 250 1232 240 1194 234 1150 c 0
 228 1106 224 1055 224 1000 c 0
 224 945 228 895 234 851 c 0
 240 807 250 769 264 738 c 0
 278 707 295 683 316 666 c 0
 337 649 361 640 390 640 c 0
 419 640 443 649 463 666 c 0
 483 683 500 707 513 738 c 0
 526 769 535 807 541 851 c 0
 547 895 550 945 550 1000 c 0
EndSplineSet
EndChar

StartChar: ampersand
Encoding: 9 38 9
Width: 1466
VWidth: 1024
Flags: HW
LayerCount: 2
Fore
SplineSet
1038 0 m 0
 1038 50 l 0
 944 156 l 0
 917 134 888 113 859 91 c 0
 830 69 798 50 764 33 c 0
 730 16 692 2 652 -9 c 0
 612 -20 567 -26 518 -26 c 0
 458 -26 402 -15 349 6 c 0
 296 27 250 55 210 92 c 0
 170 129 139 173 116 224 c 0
 93 275 82 330 82 390 c 0
 82 436 88 478 102 516 c 0
 116 554 135 588 160 618 c 0
 185 648 215 675 249 698 c 0
 283 721 321 742 362 759 c 0
 350 771 335 786 315 806 c 0
 295 826 276 851 257 878 c 0
 238 905 221 936 207 970 c 0
 193 1004 186 1040 186 1080 c 0
 186 1133 197 1181 217 1224 c 0
 237 1267 265 1305 301 1336 c 0
 337 1367 379 1392 427 1409 c 0
 475 1426 528 1435 585 1435 c 0
 638 1435 687 1427 732 1411 c 0
 777 1395 816 1373 849 1345 c 0
 882 1317 907 1284 926 1245 c 0
 945 1206 954 1164 954 1118 c 0
 954 1067 946 1022 928 984 c 0
 910 946 887 913 858 884 c 0
 829 855 796 830 759 808 c 0
 722 786 684 768 646 751 c 0
 998 371 l 0
 1009 385 1021 402 1034 422 c 0
 1047 442 1059 462 1070 484 c 0
 1081 506 1090 528 1099 551 c 0
 1108 574 1113 596 1116 616 c 0
 1117 622 1113 630 1105 640 c 0
 1097 650 1089 655 1080 656 c 0
 967 673 l 0
 967 761 l 0
 1397 761 l 0
 1397 673 l 0
 1246 650 l 0
 1236 615 1224 580 1210 547 c 0
 1196 514 1181 481 1165 451 c 0
 1149 421 1132 393 1115 367 c 0
 1098 341 1082 317 1067 296 c 0
 1237 100 l 0
 1424 90 l 0
 1424 0 l 0
 1038 0 l 0
761 1105 m 0
 761 1135 757 1164 749 1191 c 0
 741 1218 729 1242 713 1263 c 0
 697 1284 676 1301 651 1313 c 0
 626 1325 597 1331 564 1331 c 0
 535 1331 509 1326 486 1316 c 0
 463 1306 443 1292 427 1274 c 0
 411 1256 398 1235 389 1211 c 0
 380 1187 376 1162 376 1135 c 0
 376 1100 383 1067 396 1037 c 0
 409 1007 426 979 445 953 c 0
 464 927 485 904 508 882 c 0
 531 860 551 840 570 822 c 0
 601 837 628 854 652 872 c 0
 676 890 695 910 711 933 c 0
 727 956 739 982 748 1010 c 0
 757 1038 761 1070 761 1105 c 0
444 698 m 0
 423 684 404 668 386 651 c 0
 368 634 352 614 338 593 c 0
 324 572 314 550 306 524 c 0
 298 498 294 469 294 438 c 0
 294 391 301 348 317 308 c 0
 333 268 355 233 382 204 c 0
 409 175 442 152 479 136 c 0
 516 120 556 112 598 112 c 0
 630 112 660 115 686 121 c 0
 712 127 736 136 758 147 c 0
 780 158 802 171 821 185 c 0
 840 199 859 213 877 228 c 0
 444 698 l 0
EndSplineSet
EndChar

StartChar: quotesingle
Encoding: 10 39 10
Width: 358
VWidth: 1024
Flags: HW
LayerCount: 2
Fore
SplineSet
198 883 m 0
 164 883 l 0
 90 1395 l 0
 90 1428 98 1452 113 1470 c 0
 128 1488 149 1497 178 1497 c 0
 207 1497 230 1488 245 1470 c 0
 260 1452 268 1428 268 1395 c 0
 198 883 l 0
EndSplineSet
EndChar

StartChar: parenleft
Encoding: 11 40 11
Width: 788
VWidth: 1024
Flags: HW
LayerCount: 2
Fore
SplineSet
719 -298 m 0
 646 -290 581 -272 523 -246 c 0
 465 -220 414 -186 370 -144 c 0
 326 -102 288 -55 257 -1 c 0
 226 53 200 113 181 177 c 0
 162 241 147 309 138 381 c 0
 129 453 124 528 124 604 c 0
 124 718 134 827 155 930 c 0
 176 1033 210 1126 257 1207 c 0
 304 1288 366 1354 441 1406 c 0
 516 1458 609 1491 719 1503 c 0
 719 1411 l 0
 645 1399 583 1372 532 1330 c 0
 481 1288 440 1233 408 1164 c 0
 376 1095 353 1014 339 920 c 0
 325 826 318 720 318 604 c 0
 318 487 325 382 339 288 c 0
 353 194 376 111 408 42 c 0
 440 -27 481 -82 532 -124 c 0
 583 -166 645 -194 719 -206 c 0
 719 -298 l 0
EndSplineSet
EndChar

StartChar: parenright
Encoding: 12 41 12
Width: 788
VWidth: 1024
Flags: HW
LayerCount: 2
Fore
SplineSet
667 604 m 0
 667 528 662 453 653 381 c 0
 644 309 629 241 610 177 c 0
 591 113 565 53 534 -1 c 0
 503 -55 464 -102 420 -144 c 0
 376 -186 326 -220 268 -246 c 0
 210 -272 145 -290 72 -298 c 0
 72 -206 l 0
 146 -194 208 -166 259 -124 c 0
 310 -82 350 -27 381 42 c 0
 412 111 435 194 449 288 c 0
 463 382 470 487 470 604 c 0
 470 720 463 826 449 920 c 0
 435 1014 412 1095 381 1164 c 0
 350 1233 310 1288 259 1330 c 0
 208 1372 146 1399 72 1411 c 0
 72 1503 l 0
 181 1491 273 1458 349 1406 c 0
 425 1354 487 1288 534 1207 c 0
 581 1126 614 1033 635 930 c 0
 656 827 667 718 667 604 c 0
EndSplineSet
EndChar

StartChar: asterisk
Encoding: 13 42 13
Width: 1048
VWidth: 1024
Flags: HW
LayerCount: 2
Fore
SplineSet
843 1076 m 0
 572 1061 l 0
 562 1091 l 0
 788 1239 l 0
 937 1195 l 0
 843 1076 l 0
539 1111 m 0
 510 1111 l 0
 438 1373 l 0
 524 1501 l 0
 612 1373 l 0
 539 1111 l 0
633 761 m 0
 537 1013 l 0
 562 1032 l 0
 774 862 l 0
 778 707 l 0
 633 761 l 0
478 1061 m 0
 206 1076 l 0
 112 1195 l 0
 260 1239 l 0
 486 1091 l 0
 478 1061 l 0
416 761 m 0
 270 707 l 0
 274 862 l 0
 486 1032 l 0
 512 1013 l 0
 416 761 l 0
EndSplineSet
EndChar

StartChar: plus
Encoding: 14 43 14
Width: 2097
VWidth: 1024
Flags: HW
LayerCount: 2
Fore
SplineSet
1113 564 m 0
 1113 0 l 0
 984 0 l 0
 984 564 l 0
 420 564 l 0
 420 694 l 0
 984 694 l 0
 984 1258 l 0
 1113 1258 l 0
 1113 694 l 0
 1677 694 l 0
 1677 564 l 0
 1113 564 l 0
EndSplineSet
EndChar

StartChar: comma
Encoding: 15 44 15
Width: 585
VWidth: 1024
Flags: HW
LayerCount: 2
Fore
SplineSet
432 20 m 0
 432 -33 422 -80 402 -124 c 0
 382 -168 355 -207 321 -240 c 0
 287 -273 249 -300 205 -320 c 0
 161 -340 116 -352 68 -356 c 0
 68 -281 l 0
 105 -273 137 -261 166 -247 c 0
 195 -233 220 -215 239 -192 c 0
 258 -169 274 -141 284 -108 c 0
 294 -75 299 -34 298 14 c 0
 166 14 l 0
 165 15 162 19 158 24 c 0
 154 29 149 36 145 44 c 0
 141 52 136 62 133 73 c 0
 130 84 128 98 128 112 c 0
 128 130 132 148 138 165 c 0
 144 182 153 197 165 211 c 0
 177 225 190 236 206 244 c 0
 222 252 239 256 258 256 c 0
 288 256 314 250 336 238 c 0
 358 226 376 210 390 189 c 0
 404 168 415 143 422 114 c 0
 429 85 432 53 432 20 c 0
EndSplineSet
EndChar

StartChar: hyphen
Encoding: 16 45 16
Width: 669
VWidth: 1024
Flags: HW
LayerCount: 2
Fore
SplineSet
92 426 m 0
 92 583 l 0
 579 583 l 0
 579 426 l 0
 92 426 l 0
EndSplineSet
EndChar

StartChar: period
Encoding: 17 46 17
Width: 585
VWidth: 1024
Flags: HW
LayerCount: 2
Fore
SplineSet
411 116 m 0
 411 96 407 77 399 60 c 0
 391 43 382 29 369 16 c 0
 356 3 340 -6 323 -14 c 0
 306 -22 287 -26 268 -26 c 0
 248 -26 231 -22 214 -14 c 0
 197 -6 182 3 169 16 c 0
 156 29 146 43 139 60 c 0
 132 77 128 96 128 116 c 0
 128 135 132 153 139 170 c 0
 146 187 156 202 169 215 c 0
 182 228 197 237 214 245 c 0
 231 253 248 256 268 256 c 0
 287 256 306 253 323 245 c 0
 340 237 356 228 369 215 c 0
 382 202 391 187 399 170 c 0
 407 153 411 135 411 116 c 0
EndSplineSet
EndChar

StartChar: slash
Encoding: 18 47 18
Width: 1028
VWidth: 1024
Flags: HW
LayerCount: 2
Fore
SplineSet
134 -195 m 0
 0 -195 l 0
 893 1407 l 0
 1028 1407 l 0
 134 -195 l 0
EndSplineSet
EndChar

StartChar: zero
Encoding: 19 48 19
Width: 1243
VWidth: 1024
Flags: HW
LayerCount: 2
Fore
SplineSet
956 686 m 0
 956 847 939 976 905 1073 c 0
 852 1222 760 1296 629 1296 c 0
 595 1296 560 1289 527 1274 c 0
 494 1259 465 1239 442 1214 c 0
 419 1189 401 1165 389 1140 c 0
 377 1115 364 1079 351 1033 c 0
 338 987 329 931 321 863 c 0
 313 795 309 735 309 680 c 0
 309 516 326 387 360 291 c 0
 413 142 506 68 637 68 c 0
 767 68 856 144 907 297 c 0
 941 398 957 528 956 686 c 0
1176 676 m 0
 1176 590 1167 508 1149 430 c 0
 1131 352 1101 279 1057 209 c 0
 1013 139 953 82 876 36 c 0
 799 -10 716 -33 629 -33 c 0
 546 -33 468 -13 396 26 c 0
 324 65 266 117 220 185 c 0
 174 253 141 331 119 418 c 0
 97 505 86 592 86 678 c 0
 86 862 128 1022 211 1157 c 0
 309 1317 446 1397 621 1397 c 0
 804 1397 946 1319 1047 1165 c 0
 1133 1034 1176 871 1176 676 c 0
EndSplineSet
EndChar

StartChar: one
Encoding: 20 49 20
Width: 1243
VWidth: 1024
Flags: HW
LayerCount: 2
Fore
SplineSet
1006 0 m 0
 322 0 l 0
 322 59 l 0
 353 62 387 67 424 73 c 0
 461 79 491 87 516 98 c 0
 536 110 549 127 554 147 c 0
 559 167 561 196 561 232 c 0
 561 286 561 287 561 301 c 0
 561 1018 l 0
 561 1111 553 1168 535 1190 c 0
 510 1219 451 1233 360 1233 c 0
 322 1233 l 0
 322 1292 l 0
 690 1354 l 0
 764 1354 l 0
 764 291 l 0
 764 185 777 117 802 90 c 0
 827 63 893 49 1001 49 c 0
 1006 0 l 0
EndSplineSet
EndChar

StartChar: two
Encoding: 21 50 21
Width: 1243
VWidth: 1024
Flags: HW
LayerCount: 2
Fore
SplineSet
1155 375 m 0
 1059 0 l 0
 84 0 l 0
 84 139 l 0
 189 199 271 250 330 291 c 0
 404 344 477 407 549 481 c 0
 632 563 697 643 745 721 c 0
 808 823 840 921 840 1014 c 0
 840 1100 815 1168 766 1217 c 0
 717 1266 649 1290 563 1290 c 0
 503 1290 441 1273 376 1238 c 0
 311 1203 279 1157 279 1100 c 0
 279 1070 288 1044 307 1024 c 0
 318 1012 327 999 333 987 c 0
 339 975 342 961 342 946 c 0
 342 917 330 892 305 872 c 0
 280 852 255 842 229 842 c 0
 188 842 156 858 133 891 c 0
 110 924 98 962 98 1006 c 0
 98 1059 112 1110 139 1159 c 0
 166 1208 203 1250 249 1285 c 0
 295 1320 346 1346 404 1364 c 0
 462 1382 524 1391 588 1391 c 0
 648 1391 706 1383 761 1369 c 0
 816 1355 867 1333 915 1303 c 0
 961 1269 1000 1224 1030 1170 c 0
 1060 1116 1075 1060 1075 1001 c 0
 1075 889 1029 774 936 657 c 0
 862 564 758 468 621 367 c 0
 528 300 419 230 293 158 c 0
 733 158 l 0
 838 158 909 168 946 190 c 0
 983 212 1022 269 1063 362 c 0
 1073 391 l 0
 1155 375 l 0
EndSplineSet
EndChar

StartChar: three
Encoding: 22 51 22
Width: 1243
VWidth: 1024
Flags: HW
LayerCount: 2
Fore
SplineSet
1155 389 m 0
 1155 325 1138 265 1105 209 c 0
 1072 153 1027 107 971 71 c 0
 915 35 854 9 788 -7 c 0
 722 -23 654 -31 582 -31 c 0
 460 -31 353 -6 262 43 c 0
 209 70 168 102 139 137 c 0
 104 181 86 230 86 283 c 0
 86 321 97 353 120 380 c 0
 143 407 172 420 207 420 c 0
 238 420 265 409 285 386 c 0
 305 363 315 336 315 305 c 0
 315 298 312 284 305 262 c 0
 301 223 l 0
 301 201 312 179 332 154 c 0
 347 136 368 119 397 105 c 0
 426 91 455 81 485 76 c 0
 515 71 550 68 590 68 c 0
 695 68 777 97 836 154 c 0
 895 211 924 292 924 397 c 0
 924 505 894 586 833 639 c 0
 772 692 686 719 575 719 c 0
 444 711 l 0
 444 801 l 0
 539 799 l 0
 632 799 707 818 764 856 c 0
 831 901 864 968 864 1057 c 0
 864 1136 840 1199 792 1245 c 0
 744 1291 679 1315 600 1315 c 0
 540 1315 487 1304 442 1282 c 0
 382 1252 352 1210 352 1157 c 0
 352 1152 358 1135 369 1108 c 0
 380 1081 385 1061 385 1049 c 0
 385 1019 374 995 352 977 c 0
 330 959 304 950 274 950 c 0
 239 950 211 963 191 988 c 0
 171 1013 162 1044 162 1079 c 0
 162 1124 175 1167 202 1208 c 0
 229 1249 262 1285 304 1315 c 0
 346 1345 393 1367 447 1382 c 0
 501 1397 557 1405 614 1405 c 0
 673 1405 727 1400 775 1390 c 0
 823 1380 873 1360 921 1333 c 0
 969 1306 1009 1270 1040 1224 c 0
 1071 1178 1087 1128 1087 1073 c 0
 1087 1033 1077 994 1057 955 c 0
 1037 916 1010 884 979 859 c 0
 948 834 914 815 879 803 c 0
 860 796 821 786 764 774 c 0
 880 755 971 719 1038 666 c 0
 1117 602 1156 509 1155 389 c 0
EndSplineSet
EndChar

StartChar: four
Encoding: 23 52 23
Width: 1243
VWidth: 1024
Flags: HW
LayerCount: 2
Fore
SplineSet
707 489 m 0
 707 1194 l 0
 229 553 l 0
 184 492 l 0
 707 489 l 0
1204 489 m 0
 1161 373 l 0
 907 373 l 0
 907 340 l 0
 907 266 l 0
 907 210 913 168 923 139 c 0
 933 110 951 91 976 81 c 0
 1001 71 1033 66 1071 66 c 0
 1104 66 l 0
 1104 6 l 0
 516 6 l 0
 516 66 l 0
 541 66 l 0
 576 66 607 70 634 80 c 0
 661 90 680 107 692 133 c 0
 699 149 704 170 705 195 c 0
 706 220 707 263 707 326 c 0
 707 373 l 0
 74 373 l 0
 41 459 l 0
 375 893 l 0
 707 1366 l 0
 895 1366 l 0
 895 489 l 0
 1204 489 l 0
EndSplineSet
EndChar

StartChar: five
Encoding: 24 53 24
Width: 1243
VWidth: 1024
Flags: HW
LayerCount: 2
Fore
SplineSet
1171 475 m 0
 1171 321 1117 197 1008 105 c 0
 899 13 764 -33 606 -33 c 0
 504 -33 406 -12 313 29 c 0
 262 49 220 79 186 119 c 0
 146 164 127 211 127 262 c 0
 127 297 138 328 160 353 c 0
 182 378 211 391 246 391 c 0
 277 391 304 380 327 357 c 0
 350 334 360 307 360 276 c 0
 360 269 357 256 351 236 c 0
 345 216 342 199 342 188 c 0
 342 144 371 111 430 86 c 0
 474 67 522 57 575 57 c 0
 686 57 775 93 843 165 c 0
 911 237 944 327 944 438 c 0
 944 489 938 536 926 579 c 0
 914 622 892 660 863 695 c 0
 834 730 796 757 750 777 c 0
 704 797 655 807 606 807 c 0
 471 807 365 745 289 621 c 0
 203 639 l 0
 203 1360 l 0
 836 1360 l 0
 877 1360 902 1361 913 1364 c 0
 939 1374 956 1396 963 1430 c 0
 1038 1430 l 0
 1006 1192 l 0
 322 1192 l 0
 322 793 l 0
 419 876 532 918 662 918 c 0
 805 918 923 879 1016 803 c 0
 1118 720 1170 610 1171 475 c 0
EndSplineSet
EndChar

StartChar: six
Encoding: 25 54 25
Width: 1243
VWidth: 1024
Flags: HW
LayerCount: 2
Fore
SplineSet
965 412 m 0
 965 510 940 589 891 649 c 0
 836 717 762 752 666 752 c 0
 560 752 478 718 421 651 c 0
 364 584 336 496 336 385 c 0
 336 288 364 208 419 145 c 0
 474 82 549 51 645 51 c 0
 746 51 826 85 883 151 c 0
 940 217 968 304 965 412 c 0
1184 430 m 0
 1184 291 1129 177 1018 90 c 0
 916 8 792 -33 647 -33 c 0
 568 -33 491 -17 416 16 c 0
 341 49 279 95 231 154 c 0
 183 213 149 286 127 373 c 0
 105 460 94 545 94 627 c 0
 94 725 105 819 125 908 c 0
 145 997 180 1079 231 1151 c 0
 282 1223 350 1282 437 1326 c 0
 524 1370 614 1393 707 1393 c 0
 804 1393 898 1368 991 1319 c 0
 1029 1299 1064 1271 1093 1237 c 0
 1122 1203 1137 1166 1137 1128 c 0
 1137 1099 1127 1076 1107 1057 c 0
 1087 1038 1062 1028 1032 1028 c 0
 991 1028 960 1043 938 1072 c 0
 916 1101 905 1138 905 1182 c 0
 905 1213 890 1238 860 1257 c 0
 822 1282 769 1294 702 1294 c 0
 565 1294 464 1232 397 1108 c 0
 372 1060 354 1005 341 942 c 0
 328 879 322 819 322 762 c 0
 322 676 l 0
 363 736 416 782 482 813 c 0
 548 844 621 860 700 860 c 0
 834 860 948 819 1042 738 c 0
 1136 657 1184 554 1184 430 c 0
EndSplineSet
EndChar

StartChar: seven
Encoding: 26 55 26
Width: 1243
VWidth: 1024
Flags: HW
LayerCount: 2
Fore
SplineSet
1176 1241 m 0
 1100 1155 1032 1068 974 981 c 0
 916 894 860 795 805 684 c 0
 674 367 l 0
 655 303 640 241 630 183 c 0
 620 125 614 66 614 6 c 0
 352 6 l 0
 371 112 402 220 446 329 c 0
 490 438 542 544 602 649 c 0
 724 858 866 1042 1028 1200 c 0
 532 1200 l 0
 424 1200 353 1194 319 1182 c 0
 260 1160 217 1105 188 1016 c 0
 127 1016 l 0
 188 1374 l 0
 1165 1374 l 0
 1176 1241 l 0
EndSplineSet
EndChar

StartChar: eight
Encoding: 27 56 27
Width: 1243
VWidth: 1024
Flags: HW
LayerCount: 2
Fore
SplineSet
993 338 m 0
 993 410 966 469 913 514 c 0
 873 549 814 578 735 600 c 0
 526 666 l 0
 448 637 388 598 344 549 c 0
 295 492 270 424 270 346 c 0
 270 248 307 172 381 119 c 0
 448 71 533 47 635 47 c 0
 728 47 809 71 877 119 c 0
 955 172 993 245 993 338 c 0
954 1069 m 0
 954 1143 925 1202 868 1248 c 0
 811 1294 744 1317 666 1317 c 0
 580 1317 504 1295 441 1252 c 0
 378 1209 346 1146 346 1063 c 0
 346 1008 373 962 426 922 c 0
 466 893 519 868 586 848 c 0
 715 809 l 0
 787 824 845 853 889 897 c 0
 933 941 954 998 954 1069 c 0
1169 406 m 0
 1169 342 1154 281 1125 225 c 0
 1096 169 1053 122 998 82 c 0
 943 42 883 14 818 -4 c 0
 753 -22 684 -31 610 -31 c 0
 487 -31 380 -4 287 51 c 0
 232 82 187 124 151 177 c 0
 115 230 96 285 96 344 c 0
 96 438 127 516 188 577 c 0
 249 638 329 678 426 700 c 0
 344 729 283 767 242 815 c 0
 194 868 170 935 170 1014 c 0
 170 1134 219 1228 317 1298 c 0
 406 1361 513 1393 637 1393 c 0
 757 1393 861 1369 948 1321 c 0
 1059 1261 1114 1176 1114 1065 c 0
 1114 986 1084 919 1024 866 c 0
 971 818 902 786 819 770 c 0
 931 732 1012 691 1063 647 c 0
 1135 584 1170 504 1169 406 c 0
EndSplineSet
EndChar

StartChar: nine
Encoding: 28 57 28
Width: 1243
VWidth: 1024
Flags: HW
LayerCount: 2
Fore
SplineSet
924 958 m 0
 924 1009 918 1054 908 1094 c 0
 898 1134 879 1170 850 1204 c 0
 793 1272 714 1307 616 1307 c 0
 514 1307 435 1273 380 1206 c 0
 325 1139 297 1052 297 944 c 0
 297 846 323 764 374 698 c 0
 425 632 499 600 596 600 c 0
 701 600 783 632 840 697 c 0
 897 762 925 849 924 958 c 0
1155 725 m 0
 1155 627 1145 531 1126 439 c 0
 1107 347 1074 268 1028 201 c 0
 975 125 907 67 825 28 c 0
 743 -11 653 -31 555 -31 c 0
 461 -31 373 -9 291 35 c 0
 253 54 221 79 195 109 c 0
 161 147 143 184 143 219 c 0
 143 248 152 272 170 292 c 0
 188 312 210 322 236 322 c 0
 284 322 321 298 350 252 c 0
 360 233 365 209 365 180 c 0
 370 145 381 119 398 105 c 0
 415 91 441 81 475 73 c 0
 509 65 540 61 567 61 c 0
 702 61 802 122 866 244 c 0
 915 337 940 458 940 608 c 0
 940 705 l 0
 905 635 852 583 782 548 c 0
 712 513 636 496 553 496 c 0
 431 496 327 530 238 598 c 0
 190 636 152 684 124 742 c 0
 96 800 82 861 82 924 c 0
 82 1065 136 1179 242 1268 c 0
 348 1357 473 1401 616 1401 c 0
 699 1401 778 1384 851 1351 c 0
 924 1318 985 1268 1034 1204 c 0
 1078 1145 1109 1074 1128 990 c 0
 1147 906 1156 818 1155 725 c 0
EndSplineSet
EndChar

StartChar: colon
Encoding: 29 58 29
Width: 585
VWidth: 1024
Flags: HW
LayerCount: 2
Fore
SplineSet
411 895 m 0
 411 876 407 858 399 841 c 0
 391 824 382 809 369 796 c 0
 356 783 340 774 323 766 c 0
 306 758 287 755 268 755 c 0
 248 755 231 758 214 766 c 0
 197 774 182 783 169 796 c 0
 156 809 146 824 139 841 c 0
 132 858 128 876 128 895 c 0
 128 914 132 933 139 950 c 0
 146 967 156 982 169 995 c 0
 182 1008 197 1017 214 1025 c 0
 231 1033 248 1036 268 1036 c 0
 287 1036 306 1033 323 1025 c 0
 340 1017 356 1008 369 995 c 0
 382 982 391 967 399 950 c 0
 407 933 411 914 411 895 c 0
411 116 m 0
 411 96 407 77 399 60 c 0
 391 43 382 29 369 16 c 0
 356 3 340 -6 323 -14 c 0
 306 -22 287 -26 268 -26 c 0
 248 -26 231 -22 214 -14 c 0
 197 -6 182 3 169 16 c 0
 156 29 146 43 139 60 c 0
 132 77 128 96 128 116 c 0
 128 135 132 153 139 170 c 0
 146 187 156 202 169 215 c 0
 182 228 197 237 214 245 c 0
 231 253 248 256 268 256 c 0
 287 256 306 253 323 245 c 0
 340 237 356 228 369 215 c 0
 382 202 391 187 399 170 c 0
 407 153 411 135 411 116 c 0
EndSplineSet
EndChar

StartChar: semicolon
Encoding: 30 59 30
Width: 585
VWidth: 1024
Flags: HW
LayerCount: 2
Fore
SplineSet
409 895 m 0
 409 876 405 858 398 841 c 0
 391 824 381 809 368 796 c 0
 355 783 340 774 323 766 c 0
 306 758 287 755 268 755 c 0
 248 755 231 758 214 766 c 0
 197 774 182 783 169 796 c 0
 156 809 146 824 139 841 c 0
 132 858 128 876 128 895 c 0
 128 914 131 933 139 950 c 0
 147 967 157 982 170 995 c 0
 183 1008 198 1017 215 1025 c 0
 232 1033 250 1036 270 1036 c 0
 289 1036 308 1033 325 1025 c 0
 342 1017 357 1008 369 995 c 0
 381 982 391 967 398 950 c 0
 405 933 409 914 409 895 c 0
432 20 m 0
 432 -33 422 -80 402 -124 c 0
 382 -168 355 -207 321 -240 c 0
 287 -273 249 -300 205 -320 c 0
 161 -340 116 -352 68 -356 c 0
 68 -281 l 0
 105 -273 137 -261 166 -247 c 0
 195 -233 220 -215 239 -192 c 0
 258 -169 274 -141 284 -108 c 0
 294 -75 299 -34 298 14 c 0
 166 14 l 0
 165 15 162 19 158 24 c 0
 154 29 149 36 145 44 c 0
 141 52 136 62 133 73 c 0
 130 84 128 98 128 112 c 0
 128 130 132 148 138 165 c 0
 144 182 153 197 165 211 c 0
 177 225 190 236 206 244 c 0
 222 252 239 256 258 256 c 0
 288 256 314 250 336 238 c 0
 358 226 376 210 390 189 c 0
 404 168 415 143 422 114 c 0
 429 85 432 53 432 20 c 0
EndSplineSet
EndChar

StartChar: less
Encoding: 31 60 31
Width: 2097
VWidth: 1024
Flags: HW
LayerCount: 2
Fore
SplineSet
420 564 m 0
 420 694 l 0
 1677 1177 l 0
 1677 1047 l 0
 554 629 l 0
 1677 212 l 0
 1677 82 l 0
 420 564 l 0
EndSplineSet
EndChar

StartChar: equal
Encoding: 32 61 32
Width: 2097
VWidth: 1024
Flags: HW
LayerCount: 2
Fore
SplineSet
420 755 m 0
 420 885 l 0
 1677 885 l 0
 1677 755 l 0
 420 755 l 0
420 374 m 0
 420 504 l 0
 1677 504 l 0
 1677 374 l 0
 420 374 l 0
EndSplineSet
EndChar

StartChar: greater
Encoding: 33 62 33
Width: 2097
VWidth: 1024
Flags: HW
LayerCount: 2
Fore
SplineSet
420 82 m 0
 420 212 l 0
 1543 629 l 0
 420 1047 l 0
 420 1177 l 0
 1677 694 l 0
 1677 564 l 0
 420 82 l 0
EndSplineSet
EndChar

StartChar: question
Encoding: 34 63 34
Width: 1017
VWidth: 1024
Flags: HW
LayerCount: 2
Fore
SplineSet
550 102 m 0
 550 84 547 68 540 53 c 0
 533 38 523 24 511 12 c 0
 499 0 486 -8 470 -15 c 0
 454 -22 438 -26 420 -26 c 0
 402 -26 386 -22 370 -15 c 0
 354 -8 341 1 329 13 c 0
 317 25 308 38 302 54 c 0
 296 70 292 86 292 104 c 0
 292 122 296 139 302 155 c 0
 308 171 317 184 329 196 c 0
 341 208 354 217 370 223 c 0
 386 229 402 232 420 232 c 0
 438 232 455 229 471 222 c 0
 487 215 500 206 512 194 c 0
 524 182 533 169 540 153 c 0
 547 137 550 120 550 102 c 0
874 1065 m 0
 874 1021 868 981 856 944 c 0
 844 907 827 874 807 844 c 0
 787 814 763 788 736 764 c 0
 709 740 680 720 651 701 c 0
 622 682 592 665 562 650 c 0
 532 635 503 622 476 610 c 0
 476 378 l 0
 358 378 l 0
 358 682 l 0
 391 693 425 709 461 729 c 0
 497 749 530 774 560 804 c 0
 590 834 614 869 633 910 c 0
 652 951 663 997 663 1049 c 0
 663 1147 637 1219 585 1267 c 0
 533 1315 458 1338 362 1338 c 0
 276 1124 l 0
 270 1123 265 1123 260 1123 c 0
 256 1122 252 1122 249 1122 c 0
 242 1122 l 0
 223 1122 205 1124 188 1128 c 0
 171 1132 156 1139 144 1148 c 0
 132 1157 122 1170 115 1184 c 0
 108 1198 104 1215 104 1235 c 0
 104 1260 111 1284 124 1309 c 0
 137 1334 158 1356 186 1375 c 0
 214 1394 248 1410 290 1422 c 0
 332 1434 381 1441 438 1441 c 0
 500 1441 558 1432 611 1414 c 0
 664 1396 711 1371 750 1339 c 0
 789 1307 819 1267 841 1221 c 0
 863 1175 874 1122 874 1065 c 0
EndSplineSet
EndChar

StartChar: at
Encoding: 35 64 35
Width: 1961
VWidth: 1024
Flags: HW
LayerCount: 2
Fore
SplineSet
1811 782 m 0
 1811 711 1803 645 1788 585 c 0
 1773 525 1752 470 1726 421 c 0
 1700 372 1669 328 1635 290 c 0
 1601 252 1564 221 1526 195 c 0
 1488 169 1450 150 1411 137 c 0
 1372 124 1335 118 1300 118 c 0
 1242 118 1201 132 1175 161 c 0
 1149 190 1137 234 1137 292 c 0
 1082 237 1029 194 980 164 c 0
 931 134 882 120 833 120 c 0
 795 120 759 128 727 144 c 0
 695 160 667 182 644 212 c 0
 621 242 603 278 590 320 c 0
 577 362 570 409 570 462 c 0
 570 542 585 616 615 686 c 0
 645 756 684 816 733 867 c 0
 782 918 838 959 900 988 c 0
 962 1017 1027 1032 1093 1032 c 0
 1108 1032 1124 1031 1142 1028 c 0
 1160 1025 1178 1021 1196 1016 c 0
 1214 1011 1232 1005 1249 998 c 0
 1266 991 1282 983 1298 975 c 0
 1336 1023 l 0
 1453 1023 l 0
 1452 1019 1449 1007 1444 987 c 0
 1439 967 1433 942 1426 912 c 0
 1419 882 1412 849 1403 812 c 0
 1394 775 1386 737 1378 699 c 0
 1358 610 1336 511 1311 400 c 0
 1305 376 1302 354 1302 334 c 0
 1302 314 1305 297 1311 283 c 0
 1317 269 1326 257 1339 249 c 0
 1352 241 1369 237 1389 237 c 0
 1420 237 1453 249 1491 274 c 0
 1529 299 1563 336 1595 383 c 0
 1627 430 1654 487 1676 554 c 0
 1698 621 1709 697 1709 780 c 0
 1709 878 1692 964 1659 1036 c 0
 1626 1108 1581 1169 1526 1216 c 0
 1471 1263 1408 1299 1338 1322 c 0
 1268 1345 1196 1357 1122 1357 c 0
 1042 1357 966 1348 895 1329 c 0
 824 1310 758 1283 698 1249 c 0
 638 1215 583 1172 534 1123 c 0
 485 1074 444 1019 410 958 c 0
 376 897 350 832 332 761 c 0
 314 690 304 617 304 539 c 0
 304 433 321 333 354 241 c 0
 387 149 435 69 498 1 c 0
 561 -67 637 -119 728 -158 c 0
 819 -197 922 -216 1038 -216 c 0
 1099 -216 1157 -212 1210 -202 c 0
 1263 -192 1313 -180 1359 -165 c 0
 1405 -150 1446 -133 1485 -115 c 0
 1524 -97 1559 -78 1591 -60 c 0
 1621 -136 l 0
 1574 -161 1526 -185 1477 -207 c 0
 1428 -229 1377 -249 1325 -266 c 0
 1273 -283 1219 -296 1163 -306 c 0
 1107 -316 1049 -321 988 -321 c 0
 913 -321 840 -312 770 -295 c 0
 700 -278 634 -253 572 -221 c 0
 510 -189 453 -148 402 -101 c 0
 351 -54 307 0 270 61 c 0
 233 122 204 189 184 263 c 0
 164 337 154 416 154 501 c 0
 154 605 166 700 191 787 c 0
 216 874 250 953 294 1023 c 0
 338 1093 389 1155 449 1208 c 0
 509 1261 573 1306 643 1341 c 0
 713 1376 786 1404 863 1422 c 0
 940 1440 1017 1449 1095 1449 c 0
 1199 1449 1294 1434 1382 1405 c 0
 1470 1376 1546 1333 1609 1277 c 0
 1672 1221 1722 1152 1758 1069 c 0
 1794 986 1811 890 1811 782 c 0
1225 824 m 0
 1227 833 1225 844 1220 858 c 0
 1215 872 1205 885 1194 898 c 0
 1183 911 1170 921 1154 930 c 0
 1138 939 1120 944 1101 944 c 0
 1049 944 1003 932 961 908 c 0
 919 884 883 850 854 808 c 0
 825 766 802 717 786 661 c 0
 770 605 763 544 763 480 c 0
 763 404 777 348 805 310 c 0
 833 272 874 254 927 254 c 0
 950 254 972 259 993 268 c 0
 1014 277 1034 288 1052 302 c 0
 1070 316 1087 330 1102 346 c 0
 1117 362 1130 376 1141 390 c 0
 1225 824 l 0
EndSplineSet
EndChar

StartChar: A
Encoding: 36 65 36
Width: 1413
VWidth: 1024
Flags: HW
LayerCount: 2
Fore
SplineSet
904 0 m 0
 904 90 l 0
 1025 100 l 0
 1032 100 1037 105 1042 114 c 0
 1047 123 1049 131 1047 136 c 0
 902 520 l 0
 418 520 l 0
 279 142 l 0
 278 138 278 134 279 129 c 0
 280 124 283 119 286 115 c 0
 289 111 293 107 297 104 c 0
 301 101 305 100 308 100 c 0
 432 90 l 0
 432 0 l 0
 10 0 l 0
 10 90 l 0
 132 116 l 0
 621 1441 l 0
 778 1441 l 0
 1265 146 l 0
 1270 132 1274 123 1278 118 c 0
 1282 113 1293 109 1309 106 c 0
 1403 90 l 0
 1403 0 l 0
 904 0 l 0
658 1170 m 0
 455 621 l 0
 864 621 l 0
 658 1170 l 0
EndSplineSet
EndChar

StartChar: B
Encoding: 37 66 37
Width: 1267
VWidth: 1024
Flags: HW
LayerCount: 2
Fore
SplineSet
874 1055 m 0
 874 1138 848 1201 795 1245 c 0
 742 1289 661 1311 552 1311 c 0
 541 1311 530 1311 517 1310 c 0
 504 1309 492 1309 481 1308 c 0
 470 1307 460 1307 451 1306 c 0
 442 1305 435 1305 432 1305 c 0
 432 774 l 0
 442 773 451 773 461 773 c 0
 469 772 477 772 485 772 c 0
 508 772 l 0
 576 772 633 778 680 791 c 0
 727 804 765 822 794 846 c 0
 823 870 843 899 856 934 c 0
 869 969 874 1010 874 1055 c 0
958 398 m 0
 958 494 930 564 873 608 c 0
 816 652 733 675 621 675 c 0
 604 675 585 674 564 673 c 0
 543 672 523 670 505 669 c 0
 487 668 471 666 457 665 c 0
 443 664 435 663 432 663 c 0
 432 109 l 0
 449 108 466 106 482 105 c 0
 496 104 510 103 525 103 c 0
 540 103 552 102 562 102 c 0
 636 102 698 109 748 121 c 0
 798 133 839 151 870 176 c 0
 901 201 924 231 938 268 c 0
 952 305 958 348 958 398 c 0
1187 416 m 0
 1187 359 1179 310 1163 267 c 0
 1147 224 1125 188 1098 157 c 0
 1071 126 1039 100 1003 80 c 0
 967 60 929 44 890 32 c 0
 851 20 812 12 771 7 c 0
 730 2 691 0 654 0 c 0
 68 0 l 0
 68 90 l 0
 178 98 l 0
 193 99 204 105 211 115 c 0
 218 125 222 134 222 144 c 0
 222 1263 l 0
 222 1273 218 1282 211 1292 c 0
 204 1302 193 1308 178 1309 c 0
 68 1317 l 0
 68 1407 l 0
 629 1407 l 0
 712 1407 783 1399 843 1384 c 0
 903 1369 952 1346 990 1317 c 0
 1028 1288 1056 1252 1074 1210 c 0
 1092 1168 1101 1122 1101 1069 c 0
 1101 1016 1091 972 1071 935 c 0
 1051 898 1026 867 996 842 c 0
 966 817 933 796 898 781 c 0
 863 766 830 754 799 746 c 0
 846 746 892 741 938 730 c 0
 984 719 1026 700 1063 674 c 0
 1100 648 1130 613 1153 571 c 0
 1176 529 1187 477 1187 416 c 0
EndSplineSet
EndChar

StartChar: C
Encoding: 38 67 38
Width: 1314
VWidth: 1024
Flags: HW
LayerCount: 2
Fore
SplineSet
1233 48 m 0
 1230 47 1217 42 1193 33 c 0
 1169 24 1138 16 1100 6 c 0
 1062 -4 1017 -14 968 -22 c 0
 919 -30 867 -34 814 -34 c 0
 735 -34 663 -25 596 -6 c 0
 529 13 469 40 415 73 c 0
 361 106 313 147 272 193 c 0
 231 239 195 289 167 344 c 0
 139 399 117 457 103 518 c 0
 89 579 82 643 82 707 c 0
 82 816 100 915 135 1005 c 0
 170 1095 221 1171 285 1236 c 0
 349 1301 426 1351 516 1387 c 0
 606 1423 706 1441 816 1441 c 0
 850 1441 883 1439 915 1435 c 0
 947 1431 979 1426 1012 1419 c 0
 1045 1412 1079 1404 1115 1394 c 0
 1151 1384 1191 1372 1233 1359 c 0
 1233 1030 l 0
 1107 1030 l 0
 1076 1221 l 0
 1075 1231 1070 1239 1062 1249 c 0
 1054 1259 1046 1266 1040 1269 c 0
 1032 1272 1021 1277 1008 1283 c 0
 995 1289 979 1295 961 1301 c 0
 943 1307 922 1312 899 1316 c 0
 876 1320 852 1323 826 1323 c 0
 754 1323 688 1310 627 1283 c 0
 566 1256 512 1217 467 1165 c 0
 422 1113 387 1049 361 972 c 0
 335 895 323 807 323 707 c 0
 323 609 335 521 359 444 c 0
 383 367 418 302 464 248 c 0
 510 194 565 152 631 124 c 0
 697 96 771 82 854 82 c 0
 879 82 901 84 921 87 c 0
 941 90 959 95 974 99 c 0
 989 103 1001 107 1009 111 c 0
 1017 115 1022 117 1023 118 c 0
 1034 122 1043 127 1050 135 c 0
 1057 143 1061 151 1063 160 c 0
 1111 388 l 0
 1233 388 l 0
 1233 48 l 0
EndSplineSet
EndChar

StartChar: D
Encoding: 39 68 39
Width: 1458
VWidth: 1024
Flags: HW
LayerCount: 2
Fore
SplineSet
1378 707 m 0
 1378 646 1373 585 1361 527 c 0
 1349 469 1332 413 1307 360 c 0
 1282 307 1251 260 1212 216 c 0
 1173 172 1127 133 1073 101 c 0
 1019 69 957 45 887 27 c 0
 817 9 738 0 650 0 c 0
 68 0 l 0
 68 90 l 0
 178 98 l 0
 193 99 204 105 212 115 c 0
 220 125 224 134 224 144 c 0
 224 1263 l 0
 224 1273 220 1282 212 1292 c 0
 204 1302 193 1308 178 1309 c 0
 68 1317 l 0
 68 1407 l 0
 608 1407 l 0
 718 1407 820 1394 914 1366 c 0
 1008 1338 1090 1295 1159 1238 c 0
 1228 1181 1281 1108 1320 1020 c 0
 1359 932 1378 828 1378 707 c 0
1141 702 m 0
 1141 812 1128 906 1102 983 c 0
 1076 1060 1040 1122 993 1170 c 0
 946 1218 888 1252 821 1274 c 0
 754 1296 679 1307 596 1307 c 0
 436 1307 l 0
 436 100 l 0
 606 102 l 0
 687 103 760 115 826 137 c 0
 892 159 948 194 994 242 c 0
 1040 290 1076 351 1102 427 c 0
 1128 503 1141 594 1141 702 c 0
EndSplineSet
EndChar

StartChar: E
Encoding: 40 69 40
Width: 1222
VWidth: 1024
Flags: HW
LayerCount: 2
Fore
SplineSet
68 0 m 0
 68 90 l 0
 176 98 l 0
 191 99 202 105 210 115 c 0
 218 125 222 134 222 144 c 0
 222 1263 l 0
 222 1273 218 1282 210 1292 c 0
 202 1302 191 1308 176 1309 c 0
 68 1317 l 0
 68 1407 l 0
 1086 1407 l 0
 1086 1095 l 0
 961 1095 l 0
 929 1267 l 0
 928 1277 923 1286 916 1294 c 0
 909 1302 901 1307 891 1307 c 0
 436 1307 l 0
 436 784 l 0
 751 784 l 0
 761 784 769 789 777 797 c 0
 785 805 788 812 788 820 c 0
 810 965 l 0
 916 965 l 0
 916 497 l 0
 810 497 l 0
 788 642 l 0
 788 650 784 658 776 667 c 0
 768 676 760 680 751 680 c 0
 436 680 l 0
 436 102 l 0
 967 102 l 0
 976 102 983 107 991 117 c 0
 999 127 1004 134 1005 142 c 0
 1042 350 l 0
 1155 350 l 0
 1155 0 l 0
 68 0 l 0
EndSplineSet
EndChar

StartChar: F
Encoding: 41 70 41
Width: 1134
VWidth: 1024
Flags: HW
LayerCount: 2
Fore
SplineSet
948 1074 m 0
 919 1267 l 0
 917 1277 912 1285 906 1293 c 0
 900 1301 893 1305 883 1305 c 0
 436 1305 l 0
 436 759 l 0
 757 759 l 0
 767 759 775 763 782 772 c 0
 789 781 794 789 795 797 c 0
 814 944 l 0
 919 944 l 0
 919 472 l 0
 814 472 l 0
 795 618 l 0
 794 626 789 634 781 643 c 0
 773 652 766 656 757 656 c 0
 436 656 l 0
 436 144 l 0
 436 134 440 125 447 115 c 0
 454 105 465 99 480 98 c 0
 621 90 l 0
 621 0 l 0
 70 0 l 0
 70 90 l 0
 180 98 l 0
 195 99 207 105 214 115 c 0
 221 125 224 134 224 144 c 0
 224 1263 l 0
 224 1273 221 1282 214 1292 c 0
 207 1302 195 1308 180 1309 c 0
 52 1317 l 0
 52 1407 l 0
 1072 1407 l 0
 1072 1074 l 0
 948 1074 l 0
EndSplineSet
EndChar

StartChar: G
Encoding: 42 71 42
Width: 1456
VWidth: 1024
Flags: HW
LayerCount: 2
Fore
SplineSet
1298 579 m 0
 1283 578 1272 573 1265 564 c 0
 1258 555 1254 546 1254 535 c 0
 1254 50 l 0
 1212 34 1167 20 1119 8 c 0
 1078 -3 1031 -12 978 -21 c 0
 925 -30 871 -34 814 -34 c 0
 736 -34 665 -24 598 -6 c 0
 531 12 470 39 416 72 c 0
 362 105 314 145 272 191 c 0
 230 237 195 287 167 342 c 0
 139 397 117 455 103 517 c 0
 89 579 82 642 82 707 c 0
 82 817 99 917 134 1007 c 0
 169 1097 219 1175 285 1239 c 0
 351 1303 430 1353 524 1388 c 0
 618 1423 724 1441 841 1441 c 0
 881 1441 918 1438 954 1434 c 0
 990 1430 1025 1424 1058 1417 c 0
 1091 1410 1124 1403 1156 1394 c 0
 1188 1385 1220 1377 1252 1369 c 0
 1252 1030 l 0
 1126 1030 l 0
 1093 1219 l 0
 1091 1231 1085 1241 1077 1250 c 0
 1069 1259 1061 1265 1051 1269 c 0
 1041 1273 1028 1278 1013 1284 c 0
 998 1290 982 1296 964 1302 c 0
 946 1308 925 1313 903 1317 c 0
 881 1321 858 1323 833 1323 c 0
 757 1323 688 1310 625 1283 c 0
 562 1256 508 1217 463 1166 c 0
 418 1115 383 1051 358 976 c 0
 333 901 321 815 321 717 c 0
 321 617 333 528 358 449 c 0
 383 370 419 304 466 250 c 0
 513 196 570 154 636 126 c 0
 702 98 776 84 858 84 c 0
 881 84 904 86 925 89 c 0
 946 92 965 96 981 100 c 0
 997 104 1011 108 1022 111 c 0
 1033 114 1039 116 1042 116 c 0
 1042 535 l 0
 1042 546 1039 555 1032 564 c 0
 1025 573 1013 578 998 579 c 0
 858 589 l 0
 858 680 l 0
 1405 680 l 0
 1405 589 l 0
 1298 579 l 0
EndSplineSet
EndChar

StartChar: H
Encoding: 43 72 43
Width: 1558
VWidth: 1024
Flags: HW
LayerCount: 2
Fore
SplineSet
961 0 m 0
 961 90 l 0
 1080 98 l 0
 1094 99 1105 105 1113 115 c 0
 1121 125 1124 134 1124 144 c 0
 1124 686 l 0
 434 686 l 0
 434 144 l 0
 434 134 438 125 445 115 c 0
 452 105 463 99 478 98 c 0
 598 90 l 0
 598 0 l 0
 68 0 l 0
 68 90 l 0
 176 98 l 0
 191 99 202 105 210 115 c 0
 218 125 222 134 222 144 c 0
 222 1263 l 0
 222 1273 218 1282 210 1291 c 0
 202 1300 191 1306 176 1307 c 0
 68 1315 l 0
 68 1407 l 0
 598 1407 l 0
 598 1315 l 0
 478 1307 l 0
 463 1306 452 1300 445 1291 c 0
 438 1282 434 1273 434 1263 c 0
 434 791 l 0
 1124 791 l 0
 1124 1263 l 0
 1124 1273 1121 1282 1113 1291 c 0
 1105 1300 1094 1306 1080 1307 c 0
 961 1315 l 0
 961 1407 l 0
 1491 1407 l 0
 1491 1315 l 0
 1382 1307 l 0
 1367 1306 1356 1300 1348 1291 c 0
 1340 1282 1336 1273 1336 1263 c 0
 1336 144 l 0
 1336 134 1340 125 1348 115 c 0
 1356 105 1367 99 1382 98 c 0
 1491 90 l 0
 1491 0 l 0
 961 0 l 0
EndSplineSet
EndChar

StartChar: I
Encoding: 44 73 44
Width: 692
VWidth: 1024
Flags: HW
LayerCount: 2
Fore
SplineSet
70 0 m 0
 70 90 l 0
 195 98 l 0
 210 99 221 105 228 115 c 0
 235 125 239 134 239 144 c 0
 239 1263 l 0
 239 1273 235 1282 228 1291 c 0
 221 1300 210 1306 195 1307 c 0
 70 1315 l 0
 70 1407 l 0
 623 1407 l 0
 623 1315 l 0
 495 1307 l 0
 481 1306 470 1300 462 1291 c 0
 454 1282 451 1273 451 1263 c 0
 451 144 l 0
 451 134 454 125 462 115 c 0
 470 105 481 99 495 98 c 0
 623 90 l 0
 623 0 l 0
 70 0 l 0
EndSplineSet
EndChar

StartChar: J
Encoding: 45 74 45
Width: 1015
VWidth: 1024
Flags: HW
LayerCount: 2
Fore
SplineSet
841 1309 m 0
 827 1308 816 1302 808 1292 c 0
 800 1282 797 1273 797 1263 c 0
 797 530 l 0
 797 443 788 365 772 295 c 0
 756 225 729 166 693 118 c 0
 657 70 610 32 551 6 c 0
 492 -20 421 -34 336 -34 c 0
 302 -34 269 -31 236 -25 c 0
 203 -19 173 -13 147 -6 c 0
 121 1 99 8 82 14 c 0
 65 20 55 25 52 26 c 0
 52 384 l 0
 178 384 l 0
 224 128 l 0
 226 118 231 109 237 102 c 0
 243 95 251 89 260 85 c 0
 269 81 278 78 289 76 c 0
 300 74 311 74 321 74 c 0
 369 74 409 83 442 101 c 0
 475 119 503 147 524 184 c 0
 545 221 560 268 570 323 c 0
 580 378 585 442 585 516 c 0
 585 1263 l 0
 585 1273 581 1282 574 1292 c 0
 567 1302 556 1308 541 1309 c 0
 409 1317 l 0
 409 1407 l 0
 963 1407 l 0
 963 1317 l 0
 841 1309 l 0
EndSplineSet
EndChar

StartChar: K
Encoding: 46 75 46
Width: 1337
VWidth: 1024
Flags: HW
LayerCount: 2
Fore
SplineSet
971 0 m 0
 971 65 l 0
 581 625 l 0
 434 625 l 0
 434 144 l 0
 434 134 438 125 446 115 c 0
 454 105 465 99 480 98 c 0
 600 90 l 0
 600 0 l 0
 68 0 l 0
 68 90 l 0
 178 98 l 0
 193 99 204 105 211 115 c 0
 218 125 222 134 222 144 c 0
 222 1263 l 0
 222 1273 218 1282 211 1292 c 0
 204 1302 193 1308 178 1309 c 0
 68 1317 l 0
 68 1407 l 0
 600 1407 l 0
 600 1317 l 0
 480 1309 l 0
 465 1308 454 1302 446 1292 c 0
 438 1282 434 1273 434 1263 c 0
 434 713 l 0
 510 713 l 0
 967 1271 l 0
 972 1277 971 1284 967 1292 c 0
 963 1300 957 1306 950 1307 c 0
 843 1317 l 0
 843 1407 l 0
 1287 1407 l 0
 1287 1317 l 0
 1262 1315 1241 1313 1221 1310 c 0
 1204 1308 1187 1306 1172 1304 c 0
 1157 1302 1148 1301 1145 1300 c 0
 717 788 l 0
 1187 100 l 0
 1338 90 l 0
 1338 0 l 0
 971 0 l 0
EndSplineSet
EndChar

StartChar: L
Encoding: 47 76 47
Width: 1112
VWidth: 1024
Flags: HW
LayerCount: 2
Fore
SplineSet
56 0 m 0
 56 90 l 0
 178 98 l 0
 193 99 204 105 211 115 c 0
 218 125 222 134 222 144 c 0
 222 1263 l 0
 222 1273 218 1282 211 1292 c 0
 204 1302 193 1308 178 1309 c 0
 56 1317 l 0
 56 1407 l 0
 592 1407 l 0
 592 1317 l 0
 480 1309 l 0
 465 1308 454 1302 446 1292 c 0
 438 1282 434 1273 434 1263 c 0
 434 102 l 0
 874 102 l 0
 884 102 894 106 904 113 c 0
 914 120 920 128 921 138 c 0
 954 390 l 0
 1076 390 l 0
 1076 0 l 0
 56 0 l 0
EndSplineSet
EndChar

StartChar: M
Encoding: 48 77 48
Width: 1837
VWidth: 1024
Flags: HW
LayerCount: 2
Fore
SplineSet
1243 0 m 0
 1243 90 l 0
 1355 98 l 0
 1370 99 1381 105 1389 115 c 0
 1397 125 1401 134 1401 144 c 0
 1401 1300 l 0
 919 0 l 0
 814 0 l 0
 348 1281 l 0
 348 144 l 0
 348 134 352 125 360 115 c 0
 368 105 379 99 394 98 c 0
 514 90 l 0
 514 0 l 0
 60 0 l 0
 60 90 l 0
 180 98 l 0
 195 99 207 105 214 115 c 0
 221 125 224 134 224 144 c 0
 224 1263 l 0
 224 1273 221 1282 214 1292 c 0
 207 1302 195 1308 180 1309 c 0
 60 1317 l 0
 60 1407 l 0
 530 1407 l 0
 530 1351 l 0
 910 321 l 0
 1290 1345 l 0
 1290 1407 l 0
 1773 1407 l 0
 1773 1317 l 0
 1659 1309 l 0
 1644 1308 1633 1302 1625 1292 c 0
 1617 1282 1613 1273 1613 1263 c 0
 1613 144 l 0
 1613 134 1617 125 1625 115 c 0
 1633 105 1644 99 1659 98 c 0
 1773 90 l 0
 1773 0 l 0
 1243 0 l 0
EndSplineSet
EndChar

StartChar: N
Encoding: 49 78 49
Width: 1511
VWidth: 1024
Flags: HW
LayerCount: 2
Fore
SplineSet
1334 1309 m 0
 1319 1308 1308 1302 1301 1292 c 0
 1294 1282 1290 1273 1290 1263 c 0
 1290 0 l 0
 1126 0 l 0
 346 1175 l 0
 346 144 l 0
 346 134 350 125 357 115 c 0
 364 105 375 99 390 98 c 0
 510 90 l 0
 510 0 l 0
 56 0 l 0
 56 90 l 0
 176 98 l 0
 191 99 202 105 210 115 c 0
 218 125 222 134 222 144 c 0
 222 1263 l 0
 222 1273 218 1282 210 1292 c 0
 202 1302 191 1308 176 1309 c 0
 52 1317 l 0
 52 1407 l 0
 468 1407 l 0
 468 1355 l 0
 1166 300 l 0
 1166 1263 l 0
 1166 1273 1163 1282 1155 1292 c 0
 1147 1302 1136 1308 1122 1309 c 0
 1002 1317 l 0
 1002 1407 l 0
 1451 1407 l 0
 1451 1317 l 0
 1334 1309 l 0
EndSplineSet
EndChar

StartChar: O
Encoding: 50 79 50
Width: 1531
VWidth: 1024
Flags: HW
LayerCount: 2
Fore
SplineSet
1451 702 m 0
 1451 600 1435 505 1402 416 c 0
 1369 327 1323 249 1263 182 c 0
 1203 115 1132 63 1048 24 c 0
 964 -15 870 -34 768 -34 c 0
 665 -34 571 -15 487 22 c 0
 403 59 330 111 270 177 c 0
 210 243 164 321 131 411 c 0
 98 501 82 599 82 705 c 0
 82 807 98 903 130 992 c 0
 162 1081 208 1159 267 1226 c 0
 326 1293 399 1345 483 1383 c 0
 567 1421 662 1441 766 1441 c 0
 870 1441 964 1421 1048 1382 c 0
 1132 1343 1204 1291 1264 1224 c 0
 1324 1157 1370 1078 1402 989 c 0
 1434 900 1451 804 1451 702 c 0
1208 700 m 0
 1208 785 1199 867 1181 942 c 0
 1163 1017 1135 1083 1098 1139 c 0
 1061 1195 1015 1240 960 1272 c 0
 905 1304 841 1321 768 1321 c 0
 692 1321 626 1305 570 1272 c 0
 514 1239 468 1194 431 1138 c 0
 394 1082 367 1017 349 942 c 0
 331 867 323 788 323 705 c 0
 323 621 332 540 350 465 c 0
 368 390 395 324 432 267 c 0
 469 210 514 165 569 132 c 0
 624 99 689 82 763 82 c 0
 839 82 904 99 960 132 c 0
 1016 165 1062 211 1099 267 c 0
 1136 323 1163 388 1181 463 c 0
 1199 538 1208 617 1208 700 c 0
EndSplineSet
EndChar

StartChar: P
Encoding: 51 80 51
Width: 1214
VWidth: 1024
Flags: HW
LayerCount: 2
Fore
SplineSet
1133 984 m 0
 1133 907 1119 840 1090 782 c 0
 1061 724 1021 676 972 638 c 0
 923 600 865 572 798 553 c 0
 731 534 661 525 585 526 c 0
 571 526 556 526 540 527 c 0
 524 528 509 529 494 530 c 0
 479 531 467 531 456 532 c 0
 445 533 439 534 436 535 c 0
 436 144 l 0
 436 134 440 125 447 115 c 0
 454 105 465 99 480 98 c 0
 618 90 l 0
 618 0 l 0
 68 0 l 0
 68 90 l 0
 178 98 l 0
 193 99 204 105 212 115 c 0
 220 125 224 134 224 144 c 0
 224 1263 l 0
 224 1273 220 1282 212 1292 c 0
 204 1302 193 1308 178 1309 c 0
 52 1317 l 0
 52 1407 l 0
 554 1407 l 0
 653 1407 739 1399 812 1384 c 0
 885 1369 945 1345 992 1312 c 0
 1039 1279 1075 1235 1098 1181 c 0
 1121 1127 1133 1062 1133 984 c 0
914 981 m 0
 914 1032 908 1078 894 1118 c 0
 880 1158 859 1191 829 1219 c 0
 799 1247 761 1268 714 1283 c 0
 667 1298 610 1305 543 1305 c 0
 533 1305 522 1304 510 1304 c 0
 498 1304 486 1304 475 1304 c 0
 463 1303 450 1303 436 1303 c 0
 436 642 l 0
 437 642 443 642 452 641 c 0
 461 640 470 638 482 636 c 0
 494 634 506 633 519 632 c 0
 532 631 544 631 554 631 c 0
 609 630 659 636 703 650 c 0
 747 664 786 685 817 714 c 0
 848 743 872 779 889 823 c 0
 906 867 914 920 914 981 c 0
EndSplineSet
EndChar

StartChar: Q
Encoding: 52 81 52
Width: 1548
VWidth: 1024
Flags: HW
LayerCount: 2
Fore
SplineSet
1468 702 m 0
 1468 608 1455 520 1429 438 c 0
 1403 356 1365 283 1315 220 c 0
 1265 157 1205 104 1133 62 c 0
 1061 20 980 -9 889 -24 c 0
 890 -103 915 -164 962 -209 c 0
 1009 -254 1082 -276 1179 -276 c 0
 1204 -276 1227 -275 1250 -273 c 0
 1273 -271 1293 -269 1311 -267 c 0
 1329 -265 1343 -262 1355 -260 c 0
 1367 -258 1375 -255 1380 -254 c 0
 1380 -344 l 0
 1372 -345 1359 -348 1340 -352 c 0
 1321 -356 1297 -361 1269 -365 c 0
 1241 -369 1210 -372 1176 -375 c 0
 1142 -378 1106 -380 1069 -380 c 0
 995 -380 933 -371 882 -355 c 0
 831 -339 788 -316 756 -285 c 0
 724 -254 700 -217 686 -174 c 0
 672 -131 665 -82 665 -28 c 0
 581 -16 503 10 432 49 c 0
 361 88 300 139 248 201 c 0
 196 263 155 337 126 422 c 0
 97 507 82 600 82 702 c 0
 82 770 89 837 104 900 c 0
 119 963 139 1021 167 1076 c 0
 195 1131 229 1180 269 1225 c 0
 309 1270 356 1308 407 1340 c 0
 458 1372 514 1398 575 1415 c 0
 636 1432 702 1441 772 1441 c 0
 878 1441 974 1421 1060 1383 c 0
 1146 1345 1219 1293 1279 1227 c 0
 1339 1161 1386 1082 1419 992 c 0
 1452 902 1468 805 1468 702 c 0
1221 702 m 0
 1221 785 1212 863 1194 938 c 0
 1176 1013 1150 1079 1113 1136 c 0
 1076 1193 1030 1238 974 1272 c 0
 918 1306 851 1323 774 1323 c 0
 698 1323 631 1307 575 1274 c 0
 519 1241 472 1196 435 1140 c 0
 398 1084 371 1019 353 944 c 0
 335 869 327 790 327 707 c 0
 327 625 336 546 354 471 c 0
 372 396 401 329 438 271 c 0
 475 213 522 167 578 133 c 0
 634 99 699 82 774 82 c 0
 850 82 916 99 972 133 c 0
 1028 167 1074 212 1111 269 c 0
 1148 326 1175 392 1193 467 c 0
 1211 542 1221 620 1221 702 c 0
EndSplineSet
EndChar

StartChar: R
Encoding: 53 82 53
Width: 1359
VWidth: 1024
Flags: HW
LayerCount: 2
Fore
SplineSet
1361 -6 m 0
 1356 -7 1349 -8 1340 -11 c 0
 1331 -14 1321 -17 1309 -20 c 0
 1297 -23 1283 -27 1268 -30 c 0
 1253 -33 1239 -34 1223 -34 c 0
 1160 -34 1109 -25 1070 -6 c 0
 1031 13 999 38 975 69 c 0
 951 100 933 135 919 175 c 0
 905 215 893 255 881 296 c 0
 869 337 856 378 842 418 c 0
 828 458 808 493 783 524 c 0
 758 555 725 580 685 599 c 0
 645 618 592 627 528 627 c 0
 517 627 507 626 496 626 c 0
 485 626 475 626 466 625 c 0
 457 624 450 623 444 623 c 0
 438 623 435 623 434 623 c 0
 434 144 l 0
 434 134 438 125 445 115 c 0
 452 105 463 99 478 98 c 0
 589 90 l 0
 589 0 l 0
 68 0 l 0
 68 90 l 0
 176 98 l 0
 191 99 202 105 210 115 c 0
 218 125 222 134 222 144 c 0
 222 1263 l 0
 222 1273 218 1282 210 1292 c 0
 202 1302 191 1308 176 1309 c 0
 68 1317 l 0
 68 1407 l 0
 614 1407 l 0
 694 1407 766 1401 829 1388 c 0
 892 1375 947 1353 991 1324 c 0
 1035 1295 1069 1256 1093 1209 c 0
 1117 1162 1128 1103 1128 1034 c 0
 1128 979 1119 932 1100 892 c 0
 1081 852 1055 819 1023 792 c 0
 991 765 955 742 913 725 c 0
 871 708 828 694 784 684 c 0
 841 670 887 651 921 627 c 0
 955 603 981 576 1001 545 c 0
 1021 514 1036 481 1046 447 c 0
 1056 413 1063 379 1071 345 c 0
 1079 311 1087 279 1097 248 c 0
 1107 217 1121 190 1141 166 c 0
 1161 142 1189 123 1223 109 c 0
 1257 95 1304 88 1361 88 c 0
 1361 -6 l 0
900 1025 m 0
 900 1070 894 1110 880 1144 c 0
 866 1178 845 1208 815 1232 c 0
 785 1256 747 1274 700 1286 c 0
 653 1298 596 1305 530 1305 c 0
 434 1305 l 0
 434 730 l 0
 435 730 441 730 449 730 c 0
 457 730 466 729 477 729 c 0
 488 729 498 729 509 729 c 0
 520 729 531 728 539 728 c 0
 597 728 648 733 693 743 c 0
 738 753 776 770 807 793 c 0
 838 816 861 846 877 884 c 0
 893 922 900 969 900 1025 c 0
EndSplineSet
EndChar

StartChar: S
Encoding: 54 83 54
Width: 1091
VWidth: 1024
Flags: HW
LayerCount: 2
Fore
SplineSet
1011 394 m 0
 1011 341 1000 289 979 238 c 0
 958 187 926 140 881 100 c 0
 836 60 778 28 708 3 c 0
 638 -22 553 -34 455 -34 c 0
 398 -34 346 -30 301 -22 c 0
 256 -14 216 -5 183 5 c 0
 145 17 112 30 82 44 c 0
 82 416 l 0
 214 416 l 0
 242 178 l 0
 243 170 247 162 254 152 c 0
 261 142 268 135 276 132 c 0
 294 123 l 0
 304 118 318 113 336 107 c 0
 354 101 375 96 401 91 c 0
 427 86 455 84 488 84 c 0
 532 84 574 90 612 101 c 0
 650 112 683 129 710 150 c 0
 737 171 759 196 774 227 c 0
 789 258 797 293 797 332 c 0
 797 374 784 411 760 443 c 0
 736 475 706 503 669 528 c 0
 632 553 593 575 550 595 c 0
 507 615 466 634 428 652 c 0
 385 672 344 694 305 716 c 0
 266 738 231 763 201 792 c 0
 171 821 148 853 131 892 c 0
 114 931 104 977 104 1030 c 0
 104 1092 116 1148 141 1199 c 0
 166 1250 200 1293 243 1329 c 0
 286 1365 338 1393 397 1412 c 0
 456 1431 520 1441 589 1441 c 0
 629 1441 666 1439 701 1434 c 0
 736 1429 769 1423 799 1416 c 0
 829 1409 858 1401 884 1393 c 0
 910 1385 935 1377 958 1369 c 0
 958 1042 l 0
 839 1042 l 0
 807 1243 l 0
 806 1250 801 1257 795 1264 c 0
 789 1271 782 1276 776 1279 c 0
 775 1280 771 1283 763 1288 c 0
 755 1293 745 1300 730 1305 c 0
 715 1310 696 1315 673 1320 c 0
 650 1325 623 1327 592 1327 c 0
 550 1327 511 1321 478 1309 c 0
 445 1297 416 1279 393 1257 c 0
 370 1235 352 1209 339 1179 c 0
 326 1149 321 1115 321 1080 c 0
 321 1048 326 1019 339 993 c 0
 352 967 371 942 396 920 c 0
 421 898 451 877 487 858 c 0
 523 839 565 821 612 803 c 0
 675 779 733 754 782 728 c 0
 831 702 873 673 907 641 c 0
 941 609 966 573 984 533 c 0
 1002 493 1011 447 1011 394 c 0
EndSplineSet
EndChar

StartChar: T
Encoding: 55 84 55
Width: 1255
VWidth: 1024
Flags: HW
LayerCount: 2
Fore
SplineSet
1099 1072 m 0
 1069 1269 l 0
 1067 1280 1063 1289 1057 1295 c 0
 1051 1301 1044 1305 1034 1305 c 0
 734 1305 l 0
 734 144 l 0
 734 134 738 125 745 115 c 0
 752 105 763 99 778 98 c 0
 912 90 l 0
 912 0 l 0
 344 0 l 0
 344 90 l 0
 478 98 l 0
 493 99 504 105 511 115 c 0
 518 125 522 134 522 144 c 0
 522 1305 l 0
 220 1305 l 0
 210 1305 202 1301 196 1295 c 0
 190 1289 185 1280 184 1269 c 0
 156 1072 l 0
 34 1072 l 0
 34 1407 l 0
 1223 1407 l 0
 1223 1072 l 0
 1099 1072 l 0
EndSplineSet
EndChar

StartChar: U
Encoding: 56 85 56
Width: 1492
VWidth: 1024
Flags: HW
LayerCount: 2
Fore
SplineSet
1315 1309 m 0
 1300 1308 1289 1302 1282 1292 c 0
 1275 1282 1271 1273 1271 1263 c 0
 1271 466 l 0
 1271 380 1259 306 1236 243 c 0
 1213 180 1178 128 1133 87 c 0
 1088 46 1031 16 964 -4 c 0
 897 -24 819 -34 732 -34 c 0
 559 -34 430 8 346 92 c 0
 262 176 220 301 220 466 c 0
 220 1263 l 0
 220 1273 216 1282 209 1292 c 0
 202 1302 191 1308 176 1309 c 0
 65 1317 l 0
 65 1407 l 0
 598 1407 l 0
 598 1317 l 0
 478 1309 l 0
 463 1308 452 1302 445 1292 c 0
 438 1282 434 1273 434 1263 c 0
 434 520 l 0
 434 459 439 403 449 352 c 0
 459 301 476 257 502 221 c 0
 528 185 564 157 610 137 c 0
 656 117 715 106 788 106 c 0
 860 106 921 117 967 138 c 0
 1013 159 1049 189 1076 226 c 0
 1103 263 1122 306 1132 357 c 0
 1142 408 1147 462 1147 520 c 0
 1147 1263 l 0
 1147 1273 1143 1282 1135 1292 c 0
 1127 1302 1116 1308 1101 1309 c 0
 981 1317 l 0
 981 1407 l 0
 1437 1407 l 0
 1437 1317 l 0
 1315 1309 l 0
EndSplineSet
EndChar

StartChar: V
Encoding: 57 86 57
Width: 1396
VWidth: 1024
Flags: HW
LayerCount: 2
Fore
SplineSet
1254 1294 m 0
 784 -34 l 0
 625 -34 l 0
 144 1296 l 0
 20 1317 l 0
 20 1407 l 0
 522 1407 l 0
 522 1317 l 0
 398 1307 l 0
 390 1306 385 1300 382 1291 c 0
 379 1282 378 1275 380 1269 c 0
 749 232 l 0
 1103 1265 l 0
 1106 1273 1103 1282 1097 1291 c 0
 1091 1300 1083 1306 1074 1307 c 0
 958 1317 l 0
 958 1407 l 0
 1375 1407 l 0
 1375 1317 l 0
 1254 1294 l 0
EndSplineSet
EndChar

StartChar: W
Encoding: 58 87 58
Width: 1951
VWidth: 1024
Flags: HW
LayerCount: 2
Fore
SplineSet
1803 1292 m 0
 1483 -34 l 0
 1329 -34 l 0
 979 1128 l 0
 636 -34 l 0
 484 -34 l 0
 142 1292 l 0
 20 1317 l 0
 20 1407 l 0
 501 1407 l 0
 501 1317 l 0
 376 1305 l 0
 366 1304 359 1299 356 1290 c 0
 353 1281 352 1273 354 1263 c 0
 604 316 l 0
 933 1407 l 0
 1095 1407 l 0
 1433 283 l 0
 1665 1263 l 0
 1667 1273 1665 1281 1660 1290 c 0
 1655 1299 1646 1304 1635 1305 c 0
 1503 1317 l 0
 1503 1407 l 0
 1931 1407 l 0
 1931 1317 l 0
 1803 1292 l 0
EndSplineSet
EndChar

StartChar: X
Encoding: 59 88 59
Width: 1329
VWidth: 1024
Flags: HW
LayerCount: 2
Fore
SplineSet
770 0 m 0
 770 90 l 0
 891 102 l 0
 902 103 910 109 916 118 c 0
 922 127 922 136 916 146 c 0
 638 585 l 0
 314 140 l 0
 309 132 307 125 310 116 c 0
 313 107 323 101 340 100 c 0
 466 90 l 0
 466 0 l 0
 20 0 l 0
 20 90 l 0
 146 116 l 0
 568 694 l 0
 186 1292 l 0
 48 1317 l 0
 48 1407 l 0
 574 1407 l 0
 574 1317 l 0
 468 1307 l 0
 451 1306 441 1300 438 1291 c 0
 435 1282 437 1273 442 1265 c 0
 698 870 l 0
 981 1258 l 0
 989 1268 989 1278 983 1287 c 0
 977 1296 968 1302 958 1303 c 0
 851 1317 l 0
 851 1407 l 0
 1290 1407 l 0
 1290 1317 l 0
 1155 1296 l 0
 766 761 l 0
 1179 116 l 0
 1309 90 l 0
 1309 0 l 0
 770 0 l 0
EndSplineSet
EndChar

StartChar: Y
Encoding: 60 89 60
Width: 1312
VWidth: 1024
Flags: HW
LayerCount: 2
Fore
SplineSet
1179 1296 m 0
 757 598 l 0
 757 144 l 0
 757 134 760 125 768 115 c 0
 776 105 787 99 801 98 c 0
 935 90 l 0
 935 0 l 0
 369 0 l 0
 369 90 l 0
 499 98 l 0
 514 99 525 105 533 115 c 0
 541 125 545 134 545 144 c 0
 545 566 l 0
 142 1292 l 0
 20 1317 l 0
 20 1407 l 0
 518 1407 l 0
 518 1317 l 0
 413 1307 l 0
 397 1305 387 1299 385 1290 c 0
 383 1281 384 1273 388 1265 c 0
 684 717 l 0
 1009 1258 l 0
 1015 1268 1015 1278 1009 1287 c 0
 1003 1296 994 1302 984 1303 c 0
 866 1317 l 0
 866 1407 l 0
 1292 1407 l 0
 1292 1317 l 0
 1179 1296 l 0
EndSplineSet
EndChar

StartChar: Z
Encoding: 61 90 61
Width: 1206
VWidth: 1024
Flags: HW
LayerCount: 2
Fore
SplineSet
82 0 m 0
 82 92 l 0
 862 1303 l 0
 316 1303 l 0
 306 1303 299 1299 293 1292 c 0
 287 1285 284 1277 281 1267 c 0
 250 1072 l 0
 126 1072 l 0
 126 1407 l 0
 1113 1407 l 0
 1113 1311 l 0
 332 106 l 0
 929 106 l 0
 939 106 946 110 952 118 c 0
 958 126 963 134 965 144 c 0
 1000 388 l 0
 1124 388 l 0
 1124 0 l 0
 82 0 l 0
EndSplineSet
EndChar

StartChar: bracketleft
Encoding: 62 91 62
Width: 886
VWidth: 1024
Flags: HW
LayerCount: 2
Fore
SplineSet
286 -276 m 0
 286 1485 l 0
 795 1485 l 0
 795 1391 l 0
 468 1391 l 0
 468 -180 l 0
 795 -180 l 0
 795 -276 l 0
 286 -276 l 0
EndSplineSet
EndChar

StartChar: backslash
Encoding: 63 92 63
Width: 1024
VWidth: 1024
Flags: HW
LayerCount: 2
Fore
SplineSet
891 -195 m 0
 0 1407 l 0
 134 1407 l 0
 1025 -195 l 0
 891 -195 l 0
EndSplineSet
EndChar

StartChar: bracketright
Encoding: 64 93 64
Width: 886
VWidth: 1024
Flags: HW
LayerCount: 2
Fore
SplineSet
92 -276 m 0
 92 -180 l 0
 422 -180 l 0
 422 1391 l 0
 92 1391 l 0
 92 1485 l 0
 604 1485 l 0
 604 -276 l 0
 92 -276 l 0
EndSplineSet
EndChar

StartChar: asciicircum
Encoding: 65 94 65
Width: 686
VWidth: 1024
Flags: HW
LayerCount: 2
Fore
SplineSet
737 578 m 0
 629 681 l 0
 520 578 l 0
 457 578 l 0
 589 755 l 0
 668 755 l 0
 800 578 l 0
 737 578 l 0
EndSplineSet
EndChar

StartChar: underscore
Encoding: 66 95 66
Width: 702
VWidth: 1024
Flags: HW
LayerCount: 2
Fore
SplineSet
0 -312 m 0
 0 -179 l 0
 702 -179 l 0
 702 -312 l 0
 0 -312 l 0
EndSplineSet
EndChar

StartChar: grave
Encoding: 67 96 67
Width: 733
VWidth: 1024
Flags: HW
LayerCount: 2
Fore
SplineSet
619 578 m 0
 460 679 l 0
 452 684 446 690 442 697 c 0
 438 704 436 711 436 721 c 0
 436 726 436 732 438 738 c 0
 440 744 442 749 446 753 c 0
 450 757 455 761 461 764 c 0
 467 767 475 769 484 769 c 0
 492 769 498 768 503 767 c 0
 508 766 513 763 517 761 c 0
 521 759 525 756 528 752 c 0
 531 748 535 744 539 740 c 0
 679 578 l 0
 619 578 l 0
EndSplineSet
EndChar

StartChar: a
Encoding: 68 97 68
Width: 1067
VWidth: 1024
Flags: HW
LayerCount: 2
Fore
SplineSet
722 0 m 0
 694 124 l 0
 657 96 620 71 581 49 c 0
 564 39 545 31 526 22 c 0
 507 13 487 4 467 -3 c 0
 447 -10 427 -15 406 -19 c 0
 385 -23 364 -26 344 -26 c 0
 306 -26 270 -19 237 -6 c 0
 204 7 176 25 151 50 c 0
 126 75 107 104 93 139 c 0
 79 174 72 214 72 258 c 0
 72 284 74 309 79 332 c 0
 84 355 95 377 111 399 c 0
 127 421 149 442 177 462 c 0
 205 482 242 502 288 522 c 0
 334 542 390 562 457 581 c 0
 524 600 603 620 694 640 c 0
 694 730 l 0
 694 800 678 852 647 886 c 0
 616 920 567 937 499 937 c 0
 462 937 430 934 404 927 c 0
 378 920 360 914 350 910 c 0
 350 728 l 0
 198 728 l 0
 188 728 178 729 169 730 c 0
 160 731 152 735 144 739 c 0
 136 743 130 749 126 757 c 0
 122 765 120 775 120 788 c 0
 120 831 133 869 159 900 c 0
 185 931 218 957 260 977 c 0
 302 997 348 1012 400 1022 c 0
 452 1032 504 1036 556 1036 c 0
 621 1036 674 1029 717 1013 c 0
 760 997 794 975 819 947 c 0
 844 919 861 886 871 848 c 0
 881 810 887 768 887 722 c 0
 887 134 l 0
 887 121 891 110 900 102 c 0
 909 94 919 89 931 88 c 0
 1032 82 l 0
 1032 0 l 0
 722 0 l 0
694 560 m 0
 600 536 525 512 470 489 c 0
 415 466 373 443 345 419 c 0
 317 395 298 372 290 348 c 0
 282 324 279 298 279 272 c 0
 279 250 282 229 289 208 c 0
 296 187 307 169 320 153 c 0
 333 137 350 123 369 113 c 0
 388 103 411 98 436 98 c 0
 464 98 494 104 524 114 c 0
 554 124 582 135 607 147 c 0
 636 161 665 179 694 198 c 0
 694 560 l 0
EndSplineSet
EndChar

StartChar: b
Encoding: 69 98 69
Width: 1163
VWidth: 1024
Flags: HW
LayerCount: 2
Fore
SplineSet
879 512 m 0
 879 644 850 743 794 811 c 0
 738 879 659 912 558 912 c 0
 546 912 533 911 517 909 c 0
 501 907 486 904 470 901 c 0
 454 898 437 894 422 890 c 0
 407 886 394 882 384 879 c 0
 384 100 l 0
 396 99 408 99 420 99 c 0
 430 98 441 98 453 98 c 0
 486 98 l 0
 548 98 604 106 652 120 c 0
 700 134 742 157 775 190 c 0
 808 223 834 265 852 318 c 0
 870 371 879 436 879 512 c 0
1093 554 m 0
 1093 475 1081 401 1058 334 c 0
 1035 267 999 209 950 159 c 0
 901 109 838 70 762 42 c 0
 686 14 595 0 490 0 c 0
 188 0 l 0
 188 1395 l 0
 30 1395 l 0
 30 1464 l 0
 300 1545 l 0
 384 1545 l 0
 384 958 l 0
 396 963 412 971 432 980 c 0
 452 989 474 998 500 1006 c 0
 526 1014 554 1021 583 1027 c 0
 612 1033 642 1036 673 1036 c 0
 742 1036 803 1023 855 997 c 0
 907 971 951 936 986 892 c 0
 1021 848 1048 796 1066 738 c 0
 1084 680 1093 618 1093 554 c 0
EndSplineSet
EndChar

StartChar: c
Encoding: 70 99 70
Width: 976
VWidth: 1024
Flags: HW
LayerCount: 2
Fore
SplineSet
906 78 m 0
 882 66 857 53 831 40 c 0
 805 27 777 17 747 7 c 0
 717 -3 686 -10 654 -16 c 0
 622 -22 587 -26 552 -26 c 0
 478 -26 412 -12 353 14 c 0
 294 40 244 76 202 123 c 0
 160 170 128 226 105 290 c 0
 82 354 72 424 72 499 c 0
 72 587 86 664 113 731 c 0
 140 798 177 855 223 900 c 0
 269 945 324 979 385 1002 c 0
 446 1025 510 1036 577 1036 c 0
 623 1036 665 1031 705 1022 c 0
 745 1013 779 1000 808 982 c 0
 837 964 860 942 877 916 c 0
 894 890 902 860 902 826 c 0
 902 806 898 788 891 773 c 0
 884 758 875 745 863 734 c 0
 851 723 839 715 824 710 c 0
 809 705 794 702 778 702 c 0
 755 702 735 706 718 714 c 0
 701 722 686 730 673 738 c 0
 673 921 l 0
 659 929 643 936 628 941 c 0
 613 946 599 948 585 948 c 0
 539 948 496 937 459 916 c 0
 422 895 391 866 365 828 c 0
 339 790 320 747 306 695 c 0
 292 643 286 587 286 526 c 0
 286 468 293 413 308 362 c 0
 323 311 344 267 373 229 c 0
 402 191 439 161 482 139 c 0
 525 117 576 106 633 106 c 0
 682 106 729 115 773 130 c 0
 817 145 861 168 906 198 c 0
 906 78 l 0
EndSplineSet
EndChar

StartChar: d
Encoding: 71 100 71
Width: 1181
VWidth: 1024
Flags: HW
LayerCount: 2
Fore
SplineSet
799 0 m 0
 799 112 l 0
 775 94 750 76 724 59 c 0
 698 42 673 27 646 15 c 0
 619 3 591 -6 563 -14 c 0
 535 -22 505 -26 474 -26 c 0
 404 -26 343 -10 292 20 c 0
 241 50 200 90 167 138 c 0
 134 186 110 240 95 300 c 0
 80 360 72 419 72 478 c 0
 72 549 82 619 104 686 c 0
 126 753 160 812 204 864 c 0
 248 916 304 958 371 989 c 0
 438 1020 516 1036 606 1036 c 0
 622 1036 640 1035 659 1033 c 0
 678 1031 697 1029 715 1027 c 0
 733 1025 749 1021 764 1018 c 0
 779 1015 791 1013 799 1011 c 0
 799 1395 l 0
 640 1395 l 0
 640 1464 l 0
 910 1545 l 0
 994 1545 l 0
 994 134 l 0
 994 121 999 110 1007 102 c 0
 1015 94 1025 89 1038 88 c 0
 1128 82 l 0
 1128 0 l 0
 799 0 l 0
799 904 m 0
 790 907 778 910 764 914 c 0
 750 918 735 921 719 924 c 0
 703 927 686 930 669 932 c 0
 652 934 636 935 621 935 c 0
 569 935 521 925 479 905 c 0
 437 885 401 857 371 820 c 0
 341 783 319 739 303 687 c 0
 287 635 279 577 279 514 c 0
 279 457 285 404 299 356 c 0
 313 308 332 265 358 230 c 0
 384 195 416 167 454 147 c 0
 492 127 535 118 583 118 c 0
 604 118 624 120 644 124 c 0
 664 128 683 135 701 142 c 0
 719 149 738 156 754 165 c 0
 770 174 785 182 799 190 c 0
 799 904 l 0
EndSplineSet
EndChar

StartChar: e
Encoding: 72 101 72
Width: 1028
VWidth: 1024
Flags: HW
LayerCount: 2
Fore
SplineSet
746 688 m 0
 746 723 742 755 734 785 c 0
 726 815 714 840 697 862 c 0
 680 884 659 901 633 914 c 0
 607 927 578 933 543 933 c 0
 508 933 475 926 445 913 c 0
 415 900 389 880 366 855 c 0
 343 830 325 799 311 763 c 0
 297 727 289 687 286 642 c 0
 746 642 l 0
 746 688 l 0
956 104 m 0
 927 86 897 69 865 53 c 0
 833 37 800 24 766 12 c 0
 732 0 699 -8 664 -15 c 0
 629 -22 593 -26 558 -26 c 0
 495 -26 434 -15 375 7 c 0
 316 29 265 60 220 103 c 0
 175 146 139 201 112 266 c 0
 85 331 72 408 72 495 c 0
 72 577 84 650 109 717 c 0
 134 784 167 841 211 888 c 0
 255 935 307 972 367 998 c 0
 427 1024 492 1036 564 1036 c 0
 629 1036 686 1026 735 1004 c 0
 784 982 825 953 858 915 c 0
 891 877 916 832 932 779 c 0
 948 726 956 668 956 606 c 0
 956 579 l 0
 956 568 955 558 954 548 c 0
 274 548 l 0
 274 495 280 441 291 388 c 0
 302 335 321 287 348 245 c 0
 375 203 411 168 456 142 c 0
 501 116 557 102 625 102 c 0
 655 102 685 106 714 114 c 0
 743 122 772 132 800 144 c 0
 828 156 856 171 882 186 c 0
 908 201 932 216 956 232 c 0
 956 104 l 0
EndSplineSet
EndChar

StartChar: f
Encoding: 73 102 73
Width: 684
VWidth: 1024
Flags: HW
LayerCount: 2
Fore
SplineSet
816 1419 m 0
 816 1398 812 1381 803 1367 c 0
 794 1353 785 1342 774 1333 c 0
 763 1324 752 1318 741 1314 c 0
 730 1310 723 1308 719 1307 c 0
 718 1308 712 1312 702 1319 c 0
 692 1326 680 1335 666 1345 c 0
 652 1355 637 1365 621 1376 c 0
 605 1387 591 1397 577 1407 c 0
 563 1417 552 1426 542 1432 c 0
 532 1438 527 1442 526 1443 c 0
 511 1435 497 1423 482 1408 c 0
 467 1393 454 1373 442 1348 c 0
 430 1323 420 1292 413 1256 c 0
 406 1220 402 1177 402 1128 c 0
 402 994 l 0
 663 994 l 0
 663 887 l 0
 402 887 l 0
 402 134 l 0
 402 121 406 110 415 102 c 0
 424 94 434 89 446 88 c 0
 570 82 l 0
 570 0 l 0
 60 0 l 0
 60 82 l 0
 164 88 l 0
 176 89 186 94 195 102 c 0
 204 110 208 121 208 134 c 0
 208 887 l 0
 74 887 l 0
 74 961 l 0
 208 998 l 0
 208 1033 209 1064 211 1092 c 0
 213 1120 218 1146 224 1170 c 0
 230 1194 237 1218 246 1241 c 0
 255 1264 266 1288 279 1313 c 0
 299 1353 323 1387 350 1416 c 0
 377 1445 406 1469 437 1488 c 0
 468 1507 500 1521 534 1531 c 0
 568 1541 602 1545 636 1545 c 0
 665 1545 691 1542 714 1535 c 0
 737 1528 756 1519 771 1507 c 0
 786 1495 797 1482 805 1467 c 0
 813 1452 816 1436 816 1419 c 0
EndSplineSet
EndChar

StartChar: g
Encoding: 74 103 74
Width: 1099
VWidth: 1024
Flags: HW
LayerCount: 2
Fore
SplineSet
856 870 m 0
 872 845 885 818 896 788 c 0
 907 758 912 723 912 682 c 0
 912 627 899 578 874 535 c 0
 849 492 816 456 774 427 c 0
 732 398 683 377 629 364 c 0
 575 351 519 346 460 350 c 0
 452 336 446 322 443 306 c 0
 440 290 438 276 438 262 c 0
 438 248 438 237 439 227 c 0
 440 217 441 211 442 210 c 0
 473 207 510 203 550 199 c 0
 590 195 631 189 673 181 c 0
 715 173 756 163 797 150 c 0
 838 137 874 120 905 99 c 0
 936 78 963 53 982 23 c 0
 1001 -7 1011 -42 1011 -84 c 0
 1011 -134 996 -183 968 -230 c 0
 940 -277 901 -320 852 -357 c 0
 803 -394 745 -423 679 -446 c 0
 613 -469 542 -480 466 -480 c 0
 403 -480 347 -473 298 -458 c 0
 249 -443 208 -422 175 -395 c 0
 142 -368 116 -338 98 -301 c 0
 80 -264 72 -224 72 -182 c 0
 72 -151 76 -123 85 -95 c 0
 94 -67 108 -42 126 -20 c 0
 144 2 167 21 195 37 c 0
 223 53 256 65 294 72 c 0
 290 83 287 92 284 99 c 0
 281 106 279 113 277 119 c 0
 275 125 274 133 273 140 c 0
 272 147 272 156 272 168 c 0
 272 195 280 226 297 259 c 0
 314 292 341 327 378 365 c 0
 343 373 310 385 279 403 c 0
 248 421 220 444 196 471 c 0
 172 498 153 529 139 564 c 0
 125 599 118 638 118 680 c 0
 118 735 128 785 148 829 c 0
 168 873 197 910 234 941 c 0
 271 972 315 996 367 1012 c 0
 419 1028 476 1036 539 1036 c 0
 564 1036 587 1034 611 1030 c 0
 635 1026 656 1020 677 1014 c 0
 698 1008 717 1001 735 993 c 0
 753 985 768 979 782 973 c 0
 1065 973 l 0
 1065 870 l 0
 856 870 l 0
713 694 m 0
 713 727 709 759 700 790 c 0
 691 821 679 848 663 872 c 0
 647 896 626 915 602 929 c 0
 578 943 549 950 518 950 c 0
 489 950 462 945 437 933 c 0
 412 921 391 904 374 882 c 0
 357 860 343 833 333 801 c 0
 323 769 318 732 318 692 c 0
 318 657 322 624 331 593 c 0
 340 562 352 535 369 512 c 0
 386 489 407 471 432 457 c 0
 457 443 485 436 518 436 c 0
 549 436 578 443 602 457 c 0
 626 471 647 489 663 512 c 0
 679 535 691 563 700 594 c 0
 709 625 713 659 713 694 c 0
830 -140 m 0
 830 -111 823 -87 809 -67 c 0
 795 -47 776 -30 752 -17 c 0
 728 -4 702 6 672 14 c 0
 642 22 612 28 582 33 c 0
 552 38 523 43 494 46 c 0
 465 49 440 52 420 56 c 0
 389 45 363 32 343 17 c 0
 323 2 306 -15 294 -33 c 0
 282 -51 273 -69 268 -87 c 0
 263 -105 260 -123 260 -140 c 0
 260 -165 265 -192 276 -221 c 0
 287 -250 304 -276 327 -300 c 0
 350 -324 378 -344 412 -360 c 0
 446 -376 488 -384 535 -384 c 0
 585 -384 628 -376 665 -360 c 0
 702 -344 733 -324 758 -300 c 0
 783 -276 801 -250 813 -221 c 0
 825 -192 830 -165 830 -140 c 0
EndSplineSet
EndChar

StartChar: h
Encoding: 75 104 75
Width: 1204
VWidth: 1024
Flags: HW
LayerCount: 2
Fore
SplineSet
688 0 m 0
 688 82 l 0
 774 88 l 0
 786 89 797 94 806 102 c 0
 815 110 820 121 820 134 c 0
 820 675 l 0
 820 705 816 733 810 758 c 0
 804 783 793 805 777 823 c 0
 761 841 740 856 713 867 c 0
 686 878 652 883 612 883 c 0
 594 883 574 881 554 878 c 0
 534 875 513 870 493 865 c 0
 473 860 454 854 435 846 c 0
 416 838 399 830 384 822 c 0
 384 134 l 0
 384 121 387 110 395 102 c 0
 403 94 413 89 426 88 c 0
 516 82 l 0
 516 0 l 0
 44 0 l 0
 44 82 l 0
 144 88 l 0
 157 89 168 94 176 102 c 0
 184 110 188 121 188 134 c 0
 188 1395 l 0
 32 1395 l 0
 32 1464 l 0
 300 1545 l 0
 384 1545 l 0
 384 906 l 0
 403 918 427 931 455 946 c 0
 483 961 512 976 544 989 c 0
 576 1002 609 1013 641 1022 c 0
 673 1031 703 1036 730 1036 c 0
 770 1036 808 1030 842 1017 c 0
 876 1004 906 984 932 958 c 0
 958 932 978 900 993 860 c 0
 1008 820 1015 773 1015 719 c 0
 1015 134 l 0
 1015 121 1020 110 1029 102 c 0
 1038 94 1049 89 1061 88 c 0
 1155 82 l 0
 1155 0 l 0
 688 0 l 0
EndSplineSet
EndChar

StartChar: i
Encoding: 76 105 76
Width: 634
VWidth: 1024
Flags: HW
LayerCount: 2
Fore
SplineSet
457 1357 m 0
 457 1339 453 1322 447 1306 c 0
 441 1290 432 1277 420 1265 c 0
 408 1253 394 1244 379 1237 c 0
 364 1230 348 1227 330 1227 c 0
 312 1227 295 1230 279 1237 c 0
 263 1244 250 1253 238 1265 c 0
 226 1277 217 1290 210 1306 c 0
 203 1322 200 1339 200 1357 c 0
 200 1375 203 1391 210 1407 c 0
 217 1423 226 1436 238 1448 c 0
 250 1460 263 1469 279 1475 c 0
 295 1481 312 1485 330 1485 c 0
 348 1485 364 1481 379 1475 c 0
 394 1469 408 1460 420 1448 c 0
 432 1436 441 1423 447 1407 c 0
 453 1391 457 1375 457 1357 c 0
72 0 m 0
 72 82 l 0
 174 88 l 0
 187 89 198 94 206 102 c 0
 214 110 218 121 218 134 c 0
 218 883 l 0
 74 883 l 0
 74 956 l 0
 330 1036 l 0
 413 1036 l 0
 413 134 l 0
 413 121 416 110 425 102 c 0
 434 94 445 89 457 88 c 0
 564 82 l 0
 564 0 l 0
 72 0 l 0
EndSplineSet
EndChar

StartChar: j
Encoding: 77 106 77
Width: 612
VWidth: 1024
Flags: HW
LayerCount: 2
Fore
SplineSet
446 1357 m 0
 446 1339 443 1322 437 1306 c 0
 431 1290 422 1277 410 1265 c 0
 398 1253 385 1244 369 1237 c 0
 353 1230 336 1227 318 1227 c 0
 300 1227 284 1230 268 1237 c 0
 252 1244 239 1253 227 1265 c 0
 215 1277 206 1290 199 1306 c 0
 192 1322 188 1339 188 1357 c 0
 188 1375 192 1391 199 1407 c 0
 206 1423 215 1436 227 1448 c 0
 239 1460 252 1469 268 1475 c 0
 284 1481 300 1485 318 1485 c 0
 336 1485 353 1481 369 1475 c 0
 385 1469 398 1460 410 1448 c 0
 422 1436 431 1423 437 1407 c 0
 443 1391 446 1375 446 1357 c 0
424 134 m 0
 424 103 423 68 421 31 c 0
 419 -6 415 -43 409 -81 c 0
 403 -119 396 -155 385 -190 c 0
 374 -225 360 -258 342 -286 c 0
 299 -352 246 -401 185 -433 c 0
 124 -465 60 -480 -6 -480 c 0
 -28 -480 -49 -478 -68 -474 c 0
 -87 -470 -103 -463 -118 -453 c 0
 -133 -443 -144 -431 -153 -416 c 0
 -162 -401 -166 -385 -166 -365 c 0
 -166 -347 -163 -331 -158 -318 c 0
 -153 -305 -146 -293 -137 -283 c 0
 -128 -273 -119 -265 -108 -259 c 0
 -97 -253 -86 -247 -76 -244 c 0
 128 -384 l 0
 147 -373 163 -357 176 -335 c 0
 189 -313 199 -289 207 -259 c 0
 215 -229 221 -196 224 -159 c 0
 227 -122 228 -84 228 -44 c 0
 228 887 l 0
 80 887 l 0
 80 956 l 0
 338 1036 l 0
 424 1036 l 0
 424 134 l 0
EndSplineSet
EndChar

StartChar: k
Encoding: 78 107 78
Width: 1120
VWidth: 1024
Flags: HW
LayerCount: 2
Fore
SplineSet
763 0 m 0
 763 82 l 0
 501 476 l 0
 384 476 l 0
 384 134 l 0
 384 121 388 110 396 102 c 0
 404 94 415 89 428 88 c 0
 518 82 l 0
 518 0 l 0
 42 0 l 0
 42 82 l 0
 144 88 l 0
 157 89 168 94 176 102 c 0
 184 110 188 121 188 134 c 0
 188 1395 l 0
 30 1395 l 0
 30 1464 l 0
 298 1545 l 0
 384 1545 l 0
 384 537 l 0
 426 537 l 0
 734 885 l 0
 739 892 741 899 737 907 c 0
 733 915 727 920 717 921 c 0
 631 929 l 0
 631 1011 l 0
 1038 1011 l 0
 1038 929 l 0
 904 914 l 0
 627 618 l 0
 988 94 l 0
 1099 82 l 0
 1099 0 l 0
 763 0 l 0
EndSplineSet
EndChar

StartChar: l
Encoding: 79 108 79
Width: 622
VWidth: 1024
Flags: HW
LayerCount: 2
Fore
SplineSet
56 0 m 0
 56 82 l 0
 168 88 l 0
 178 88 187 93 198 103 c 0
 209 113 214 122 214 132 c 0
 214 1395 l 0
 54 1395 l 0
 54 1464 l 0
 323 1545 l 0
 409 1545 l 0
 409 132 l 0
 409 122 413 113 423 103 c 0
 433 93 443 88 453 88 c 0
 566 82 l 0
 566 0 l 0
 56 0 l 0
EndSplineSet
EndChar

StartChar: m
Encoding: 80 109 80
Width: 1781
VWidth: 1024
Flags: HW
LayerCount: 2
Fore
SplineSet
1267 0 m 0
 1267 82 l 0
 1355 88 l 0
 1368 89 1378 94 1386 102 c 0
 1394 110 1399 121 1399 134 c 0
 1399 669 l 0
 1399 702 1396 731 1390 757 c 0
 1384 783 1373 806 1358 824 c 0
 1343 842 1324 857 1300 867 c 0
 1276 877 1247 883 1212 883 c 0
 1194 883 1176 881 1157 878 c 0
 1138 875 1117 871 1098 866 c 0
 1079 861 1060 854 1041 847 c 0
 1022 840 1004 832 988 824 c 0
 988 134 l 0
 988 121 992 110 1000 102 c 0
 1008 94 1019 89 1032 88 c 0
 1120 82 l 0
 1120 0 l 0
 660 0 l 0
 660 82 l 0
 749 88 l 0
 762 89 772 94 780 102 c 0
 788 110 793 121 793 134 c 0
 793 682 l 0
 793 711 789 738 783 763 c 0
 777 788 766 810 751 827 c 0
 736 844 718 858 694 868 c 0
 670 878 641 883 608 883 c 0
 588 883 568 881 546 877 c 0
 524 873 504 869 484 863 c 0
 464 857 446 850 429 843 c 0
 412 836 396 829 384 822 c 0
 384 134 l 0
 384 121 388 110 396 102 c 0
 404 94 415 89 428 88 c 0
 516 82 l 0
 516 0 l 0
 42 0 l 0
 42 82 l 0
 144 88 l 0
 157 89 168 94 176 102 c 0
 184 110 188 121 188 134 c 0
 188 862 l 0
 44 862 l 0
 44 931 l 0
 298 1011 l 0
 384 1011 l 0
 384 906 l 0
 407 920 433 935 461 950 c 0
 489 965 519 979 549 992 c 0
 579 1005 609 1016 639 1024 c 0
 669 1032 699 1036 726 1036 c 0
 756 1036 783 1032 808 1023 c 0
 833 1014 854 1004 873 990 c 0
 892 976 908 960 922 943 c 0
 936 926 947 908 956 891 c 0
 977 904 1003 919 1033 936 c 0
 1063 953 1095 969 1128 984 c 0
 1161 999 1196 1011 1229 1021 c 0
 1262 1031 1293 1036 1321 1036 c 0
 1376 1036 1421 1026 1456 1006 c 0
 1491 986 1519 960 1539 929 c 0
 1559 898 1572 863 1580 825 c 0
 1588 787 1591 750 1591 715 c 0
 1591 134 l 0
 1591 121 1595 110 1604 102 c 0
 1613 94 1623 89 1635 88 c 0
 1737 82 l 0
 1737 0 l 0
 1267 0 l 0
EndSplineSet
EndChar

StartChar: n
Encoding: 81 110 81
Width: 1187
VWidth: 1024
Flags: HW
LayerCount: 2
Fore
SplineSet
684 0 m 0
 684 82 l 0
 772 88 l 0
 784 89 794 94 803 102 c 0
 812 110 816 121 816 134 c 0
 816 680 l 0
 816 746 801 797 770 831 c 0
 739 865 687 883 614 883 c 0
 574 883 535 877 496 866 c 0
 457 855 419 840 384 822 c 0
 384 134 l 0
 384 121 388 110 396 102 c 0
 404 94 415 89 428 88 c 0
 516 82 l 0
 516 0 l 0
 42 0 l 0
 42 82 l 0
 144 88 l 0
 157 89 168 94 176 102 c 0
 184 110 188 121 188 134 c 0
 188 862 l 0
 42 862 l 0
 42 931 l 0
 298 1011 l 0
 384 1011 l 0
 384 906 l 0
 413 922 444 938 474 954 c 0
 504 970 534 984 564 996 c 0
 594 1008 623 1019 651 1026 c 0
 679 1033 705 1036 730 1036 c 0
 821 1036 891 1008 939 951 c 0
 987 894 1011 815 1011 713 c 0
 1011 134 l 0
 1011 121 1014 110 1023 102 c 0
 1032 94 1043 89 1055 88 c 0
 1147 82 l 0
 1147 0 l 0
 684 0 l 0
EndSplineSet
EndChar

StartChar: o
Encoding: 82 111 82
Width: 1140
VWidth: 1024
Flags: HW
LayerCount: 2
Fore
SplineSet
1069 504 m 0
 1069 430 1058 360 1034 295 c 0
 1010 230 976 174 933 127 c 0
 890 80 838 42 776 15 c 0
 714 -12 644 -26 568 -26 c 0
 492 -26 422 -12 361 15 c 0
 300 42 248 79 205 126 c 0
 162 173 129 228 106 293 c 0
 83 358 72 428 72 504 c 0
 72 578 83 648 106 713 c 0
 129 778 163 834 207 882 c 0
 251 930 303 968 365 995 c 0
 427 1022 496 1036 574 1036 c 0
 652 1036 722 1022 783 994 c 0
 844 966 897 928 939 880 c 0
 981 832 1014 776 1036 711 c 0
 1058 646 1069 578 1069 504 c 0
851 506 m 0
 851 563 845 618 834 671 c 0
 823 724 805 770 782 810 c 0
 759 850 730 882 695 906 c 0
 660 930 619 942 572 942 c 0
 524 942 481 930 446 906 c 0
 411 882 382 850 359 810 c 0
 336 770 319 724 308 671 c 0
 297 618 292 563 292 506 c 0
 292 449 298 395 309 342 c 0
 320 289 337 243 360 203 c 0
 383 163 412 130 447 106 c 0
 482 82 523 70 570 70 c 0
 618 70 660 81 695 105 c 0
 730 129 760 162 783 202 c 0
 806 242 823 288 834 341 c 0
 845 394 851 449 851 506 c 0
EndSplineSet
EndChar

StartChar: p
Encoding: 83 112 83
Width: 1171
VWidth: 1024
Flags: HW
LayerCount: 2
Fore
SplineSet
1101 520 m 0
 1101 437 1088 362 1064 295 c 0
 1040 228 1005 170 960 123 c 0
 915 76 859 39 793 13 c 0
 727 -13 653 -26 570 -26 c 0
 551 -26 531 -25 509 -23 c 0
 487 -21 467 -19 449 -16 c 0
 427 -13 405 -10 384 -6 c 0
 384 -318 l 0
 384 -331 388 -341 397 -349 c 0
 406 -357 417 -361 430 -362 c 0
 554 -376 l 0
 554 -457 l 0
 44 -457 l 0
 44 -376 l 0
 144 -362 l 0
 157 -361 168 -357 176 -349 c 0
 184 -341 188 -331 188 -318 c 0
 188 862 l 0
 44 862 l 0
 44 931 l 0
 302 1011 l 0
 384 1011 l 0
 384 906 l 0
 414 930 446 952 480 971 c 0
 509 987 544 1002 582 1016 c 0
 620 1030 659 1036 700 1036 c 0
 754 1036 806 1024 854 999 c 0
 902 974 945 940 982 895 c 0
 1019 850 1047 795 1069 732 c 0
 1091 669 1101 598 1101 520 c 0
891 490 m 0
 891 544 885 596 872 644 c 0
 859 692 841 734 816 771 c 0
 791 808 761 836 724 857 c 0
 687 878 646 889 598 889 c 0
 571 889 546 886 520 879 c 0
 494 872 472 865 452 857 c 0
 429 848 406 838 384 826 c 0
 384 104 l 0
 400 98 418 93 436 88 c 0
 452 84 470 80 490 77 c 0
 510 74 532 72 554 72 c 0
 611 72 661 83 703 106 c 0
 745 129 780 160 808 199 c 0
 836 238 856 282 870 333 c 0
 884 384 891 435 891 490 c 0
EndSplineSet
EndChar

StartChar: q
Encoding: 84 113 84
Width: 1150
VWidth: 1024
Flags: HW
LayerCount: 2
Fore
SplineSet
612 -457 m 0
 612 -378 l 0
 736 -367 l 0
 748 -366 758 -361 767 -353 c 0
 776 -345 780 -336 780 -323 c 0
 780 56 l 0
 760 46 739 38 715 28 c 0
 691 18 665 10 639 2 c 0
 613 -6 587 -13 561 -18 c 0
 535 -23 509 -26 486 -26 c 0
 421 -26 363 -13 312 14 c 0
 261 41 217 77 182 123 c 0
 147 169 119 223 100 284 c 0
 81 345 72 410 72 480 c 0
 72 565 86 642 113 711 c 0
 140 780 179 838 231 886 c 0
 283 934 347 971 422 997 c 0
 497 1023 582 1036 678 1036 c 0
 697 1036 719 1036 744 1034 c 0
 769 1032 795 1030 822 1027 c 0
 849 1024 875 1020 902 1016 c 0
 929 1012 953 1007 975 1002 c 0
 975 -323 l 0
 975 -336 979 -346 988 -353 c 0
 997 -360 1007 -365 1019 -367 c 0
 1120 -378 l 0
 1120 -457 l 0
 612 -457 l 0
780 916 m 0
 761 920 739 925 715 931 c 0
 691 937 665 940 636 940 c 0
 579 940 528 929 484 909 c 0
 440 889 403 860 373 823 c 0
 343 786 321 741 306 689 c 0
 291 637 283 578 283 514 c 0
 283 460 289 408 301 358 c 0
 313 308 331 263 357 225 c 0
 383 187 415 156 455 133 c 0
 495 110 543 98 600 98 c 0
 613 98 628 99 644 101 c 0
 660 103 676 105 692 108 c 0
 708 111 725 113 740 117 c 0
 755 121 768 125 780 128 c 0
 780 916 l 0
EndSplineSet
EndChar

StartChar: r
Encoding: 85 114 85
Width: 819
VWidth: 1024
Flags: HW
LayerCount: 2
Fore
SplineSet
717 797 m 0
 703 813 688 826 670 837 c 0
 652 848 630 854 604 854 c 0
 570 854 536 843 501 820 c 0
 466 797 430 765 394 724 c 0
 394 134 l 0
 394 121 399 110 407 102 c 0
 415 94 425 89 438 88 c 0
 577 82 l 0
 577 0 l 0
 52 0 l 0
 52 80 l 0
 156 88 l 0
 168 89 178 94 187 102 c 0
 196 110 200 121 200 134 c 0
 200 862 l 0
 48 862 l 0
 48 931 l 0
 308 1011 l 0
 394 1011 l 0
 394 824 l 0
 409 840 427 861 449 885 c 0
 471 909 493 932 518 955 c 0
 543 978 568 997 594 1013 c 0
 620 1029 646 1036 671 1036 c 0
 682 1036 694 1035 706 1033 c 0
 718 1031 729 1029 741 1026 c 0
 753 1023 764 1019 774 1015 c 0
 784 1011 792 1008 799 1005 c 0
 799 797 l 0
 717 797 l 0
EndSplineSet
EndChar

StartChar: s
Encoding: 86 115 86
Width: 833
VWidth: 1024
Flags: HW
LayerCount: 2
Fore
SplineSet
763 304 m 0
 763 253 753 207 735 166 c 0
 717 125 690 90 656 62 c 0
 622 34 580 12 530 -3 c 0
 480 -18 424 -26 362 -26 c 0
 330 -26 299 -24 269 -20 c 0
 239 -16 211 -12 185 -6 c 0
 159 0 137 6 117 12 c 0
 97 18 82 24 72 28 c 0
 72 306 l 0
 178 306 l 0
 204 128 l 0
 225 114 251 102 282 89 c 0
 313 76 349 70 390 70 c 0
 420 70 447 74 470 83 c 0
 493 92 513 105 529 120 c 0
 545 135 557 153 566 172 c 0
 575 191 579 211 579 232 c 0
 579 261 573 287 561 308 c 0
 549 329 533 347 511 364 c 0
 489 381 463 397 431 413 c 0
 399 429 363 446 323 466 c 0
 285 484 250 503 221 521 c 0
 192 539 167 558 147 579 c 0
 127 600 111 623 101 648 c 0
 91 673 86 701 86 732 c 0
 86 778 94 820 111 858 c 0
 128 896 152 928 184 954 c 0
 216 980 256 1001 303 1015 c 0
 350 1029 403 1036 464 1036 c 0
 495 1036 524 1034 552 1031 c 0
 580 1028 606 1024 629 1019 c 0
 652 1014 672 1009 690 1004 c 0
 708 999 722 993 732 988 c 0
 732 740 l 0
 623 740 l 0
 606 887 l 0
 591 899 569 910 540 920 c 0
 511 930 479 935 446 935 c 0
 388 935 346 921 318 895 c 0
 290 869 276 836 276 795 c 0
 276 771 280 750 288 732 c 0
 296 714 309 698 327 682 c 0
 345 666 369 650 399 634 c 0
 429 618 466 599 510 579 c 0
 547 563 580 545 611 527 c 0
 642 509 668 490 691 468 c 0
 714 446 731 422 744 395 c 0
 757 368 763 338 763 304 c 0
EndSplineSet
EndChar

StartChar: t
Encoding: 87 116 87
Width: 712
VWidth: 1024
Flags: HW
LayerCount: 2
Fore
SplineSet
698 44 m 0
 672 31 644 19 613 9 c 0
 587 0 557 -8 523 -15 c 0
 489 -22 454 -26 416 -26 c 0
 337 -26 279 -7 244 30 c 0
 209 67 190 127 190 210 c 0
 190 906 l 0
 56 906 l 0
 56 975 l 0
 200 1042 l 0
 294 1265 l 0
 386 1265 l 0
 386 1011 l 0
 682 1011 l 0
 682 906 l 0
 386 906 l 0
 386 321 l 0
 386 279 390 244 397 215 c 0
 404 186 415 162 429 144 c 0
 443 126 460 112 481 104 c 0
 502 96 526 92 554 92 c 0
 574 92 594 94 611 97 c 0
 628 100 643 105 656 110 c 0
 671 115 685 121 698 128 c 0
 698 44 l 0
EndSplineSet
EndChar

StartChar: u
Encoding: 88 117 88
Width: 1191
VWidth: 1024
Flags: HW
LayerCount: 2
Fore
SplineSet
814 0 m 0
 814 120 l 0
 796 106 775 91 749 74 c 0
 723 57 696 41 666 26 c 0
 636 11 605 -1 573 -11 c 0
 541 -21 509 -26 478 -26 c 0
 433 -26 393 -19 357 -6 c 0
 321 7 291 28 266 56 c 0
 241 84 221 118 208 161 c 0
 195 204 188 255 188 314 c 0
 188 883 l 0
 42 883 l 0
 42 954 l 0
 300 1036 l 0
 384 1036 l 0
 384 354 l 0
 384 317 388 284 395 255 c 0
 402 226 414 200 430 180 c 0
 446 160 467 145 493 134 c 0
 519 123 550 118 587 118 c 0
 608 118 629 120 651 124 c 0
 673 128 694 134 714 140 c 0
 734 146 753 153 770 160 c 0
 787 167 802 174 814 180 c 0
 814 883 l 0
 667 883 l 0
 667 954 l 0
 923 1036 l 0
 1009 1036 l 0
 1009 134 l 0
 1009 121 1013 110 1022 102 c 0
 1031 94 1043 89 1055 88 c 0
 1147 82 l 0
 1147 0 l 0
 814 0 l 0
EndSplineSet
EndChar

StartChar: v
Encoding: 89 118 89
Width: 1107
VWidth: 1024
Flags: HW
LayerCount: 2
Fore
SplineSet
977 916 m 0
 610 0 l 0
 474 0 l 0
 136 916 l 0
 20 929 l 0
 20 1011 l 0
 484 1011 l 0
 484 929 l 0
 384 923 l 0
 372 922 363 916 356 907 c 0
 349 898 348 889 352 877 c 0
 587 220 l 0
 845 877 l 0
 850 888 849 898 843 907 c 0
 837 916 828 922 816 923 c 0
 722 929 l 0
 722 1011 l 0
 1089 1011 l 0
 1089 929 l 0
 977 916 l 0
EndSplineSet
EndChar

StartChar: w
Encoding: 90 119 90
Width: 1642
VWidth: 1024
Flags: HW
LayerCount: 2
Fore
SplineSet
1514 916 m 0
 1227 0 l 0
 1078 0 l 0
 830 784 l 0
 554 0 l 0
 404 0 l 0
 136 916 l 0
 20 929 l 0
 20 1011 l 0
 480 1011 l 0
 480 929 l 0
 382 923 l 0
 370 922 361 916 355 907 c 0
 349 898 347 889 350 877 c 0
 524 224 l 0
 795 1011 l 0
 944 1011 l 0
 1187 224 l 0
 1380 877 l 0
 1383 888 1383 898 1377 907 c 0
 1371 916 1363 922 1351 923 c 0
 1254 929 l 0
 1254 1011 l 0
 1621 1011 l 0
 1621 929 l 0
 1514 916 l 0
EndSplineSet
EndChar

StartChar: x
Encoding: 91 120 91
Width: 1069
VWidth: 1024
Flags: HW
LayerCount: 2
Fore
SplineSet
598 0 m 0
 598 82 l 0
 669 90 l 0
 679 91 685 96 689 104 c 0
 693 112 692 120 688 128 c 0
 508 396 l 0
 302 128 l 0
 297 122 295 114 297 105 c 0
 299 96 304 91 314 90 c 0
 420 82 l 0
 420 0 l 0
 20 0 l 0
 20 82 l 0
 140 98 l 0
 440 488 l 0
 156 910 l 0
 32 929 l 0
 32 1011 l 0
 493 1011 l 0
 493 929 l 0
 420 919 l 0
 410 918 403 912 399 904 c 0
 395 896 394 889 398 881 c 0
 564 646 l 0
 746 881 l 0
 751 887 754 894 751 903 c 0
 748 912 742 918 732 919 c 0
 642 929 l 0
 642 1011 l 0
 1019 1011 l 0
 1019 929 l 0
 906 910 l 0
 625 552 l 0
 935 98 l 0
 1049 82 l 0
 1049 0 l 0
 598 0 l 0
EndSplineSet
EndChar

StartChar: y
Encoding: 92 121 92
Width: 1110
VWidth: 1024
Flags: HW
LayerCount: 2
Fore
SplineSet
981 916 m 0
 579 -65 l 0
 572 -82 562 -104 550 -133 c 0
 538 -162 523 -193 506 -225 c 0
 489 -257 471 -290 451 -321 c 0
 431 -352 410 -378 388 -400 c 0
 363 -425 335 -445 305 -459 c 0
 275 -473 241 -480 206 -480 c 0
 181 -480 159 -477 140 -471 c 0
 121 -465 105 -455 92 -444 c 0
 79 -433 69 -421 62 -406 c 0
 55 -391 52 -376 52 -360 c 0
 52 -336 57 -314 68 -294 c 0
 79 -274 96 -254 120 -234 c 0
 316 -325 l 0
 333 -308 351 -286 369 -258 c 0
 387 -230 403 -201 419 -170 c 0
 435 -139 449 -108 462 -78 c 0
 475 -48 485 -21 493 2 c 0
 136 916 l 0
 20 929 l 0
 20 1011 l 0
 484 1011 l 0
 484 929 l 0
 384 923 l 0
 372 922 363 916 356 907 c 0
 349 898 348 889 352 877 c 0
 596 258 l 0
 845 877 l 0
 850 888 849 898 843 907 c 0
 837 916 828 922 816 923 c 0
 717 929 l 0
 717 1011 l 0
 1091 1011 l 0
 1091 929 l 0
 981 916 l 0
EndSplineSet
EndChar

StartChar: z
Encoding: 93 122 93
Width: 968
VWidth: 1024
Flags: HW
LayerCount: 2
Fore
SplineSet
72 0 m 0
 72 112 l 0
 627 912 l 0
 262 912 l 0
 252 912 243 908 235 898 c 0
 227 888 222 878 220 868 c 0
 200 713 l 0
 92 713 l 0
 92 1011 l 0
 868 1011 l 0
 868 925 l 0
 294 100 l 0
 717 100 l 0
 722 100 727 102 732 105 c 0
 737 108 742 113 746 118 c 0
 750 123 754 128 757 134 c 0
 760 140 762 146 763 151 c 0
 784 316 l 0
 898 316 l 0
 898 0 l 0
 72 0 l 0
EndSplineSet
EndChar

StartChar: braceleft
Encoding: 94 123 94
Width: 1021
VWidth: 1024
Flags: HW
LayerCount: 2
Fore
SplineSet
879 -258 m 0
 842 -258 805 -257 769 -254 c 0
 733 -251 699 -246 667 -239 c 0
 635 -232 605 -223 579 -211 c 0
 553 -199 531 -184 514 -166 c 0
 490 -141 473 -115 461 -86 c 0
 449 -57 441 -26 436 6 c 0
 431 38 428 71 428 104 c 0
 428 285 l 0
 428 313 426 341 423 368 c 0
 420 395 414 420 406 445 c 0
 398 470 385 490 369 506 c 0
 357 518 343 528 327 535 c 0
 311 542 293 548 274 552 c 0
 255 556 232 559 208 560 c 0
 184 561 157 562 126 562 c 0
 126 656 l 0
 157 656 184 657 208 658 c 0
 232 659 255 663 274 667 c 0
 293 671 311 677 327 684 c 0
 343 691 357 701 369 713 c 0
 385 729 398 748 406 773 c 0
 414 798 420 824 423 851 c 0
 426 878 428 906 428 934 c 0
 428 1113 l 0
 428 1147 431 1180 436 1212 c 0
 441 1244 449 1275 461 1304 c 0
 473 1333 490 1359 514 1384 c 0
 531 1402 553 1418 579 1430 c 0
 605 1442 635 1451 667 1458 c 0
 699 1465 733 1470 769 1473 c 0
 805 1476 842 1477 879 1477 c 0
 879 1391 l 0
 870 1391 856 1390 838 1389 c 0
 820 1388 800 1384 778 1380 c 0
 756 1376 735 1370 715 1361 c 0
 695 1352 678 1341 665 1327 c 0
 651 1311 639 1292 632 1269 c 0
 625 1246 620 1220 617 1192 c 0
 614 1164 614 1136 614 1106 c 0
 614 1076 614 1046 614 1017 c 0
 614 993 614 968 613 942 c 0
 612 916 609 890 605 864 c 0
 601 838 595 814 587 791 c 0
 579 768 568 748 554 730 c 0
 526 694 493 667 454 650 c 0
 415 633 375 620 332 610 c 0
 375 600 415 587 454 569 c 0
 493 551 526 524 554 488 c 0
 568 470 579 451 587 428 c 0
 595 405 601 381 605 355 c 0
 609 329 612 303 613 277 c 0
 614 251 614 226 614 202 c 0
 614 173 614 143 614 113 c 0
 614 83 614 54 617 26 c 0
 620 -2 625 -27 632 -50 c 0
 639 -73 651 -93 665 -109 c 0
 678 -123 695 -134 715 -143 c 0
 735 -152 756 -158 778 -162 c 0
 800 -166 820 -169 838 -170 c 0
 856 -171 870 -172 879 -172 c 0
 879 -258 l 0
EndSplineSet
EndChar

StartChar: bar
Encoding: 95 124 95
Width: 741
VWidth: 1024
Flags: HW
LayerCount: 2
Fore
SplineSet
307 -541 m 0
 307 1669 l 0
 434 1669 l 0
 434 -541 l 0
 307 -541 l 0
EndSplineSet
EndChar

StartChar: braceright
Encoding: 96 125 96
Width: 1021
VWidth: 1024
Flags: HW
LayerCount: 2
Fore
SplineSet
898 562 m 0
 837 562 788 559 750 552 c 0
 712 545 679 530 654 506 c 0
 638 490 625 470 617 445 c 0
 609 420 604 395 601 368 c 0
 598 341 596 313 596 285 c 0
 596 104 l 0
 596 71 593 38 588 6 c 0
 583 -26 575 -57 563 -86 c 0
 551 -115 533 -141 510 -166 c 0
 492 -184 470 -199 444 -211 c 0
 418 -223 389 -232 357 -239 c 0
 325 -246 291 -251 255 -254 c 0
 219 -257 182 -258 144 -258 c 0
 144 -172 l 0
 153 -172 167 -171 185 -170 c 0
 203 -169 223 -166 245 -162 c 0
 267 -158 288 -152 308 -143 c 0
 328 -134 345 -123 358 -109 c 0
 373 -93 384 -73 391 -50 c 0
 398 -27 403 -2 406 26 c 0
 409 54 409 83 409 113 c 0
 409 143 409 173 409 202 c 0
 409 226 409 251 410 277 c 0
 411 303 414 329 418 355 c 0
 422 381 428 405 436 428 c 0
 444 451 456 470 470 488 c 0
 497 524 530 551 569 569 c 0
 608 587 649 600 692 610 c 0
 670 615 649 621 629 627 c 0
 609 633 588 640 569 650 c 0
 550 660 533 671 516 684 c 0
 499 697 484 712 470 730 c 0
 456 748 444 768 436 791 c 0
 428 814 422 838 418 864 c 0
 414 890 411 916 410 942 c 0
 409 968 409 993 409 1017 c 0
 409 1046 409 1076 409 1106 c 0
 409 1136 409 1164 406 1192 c 0
 403 1220 398 1246 391 1269 c 0
 384 1292 373 1311 358 1327 c 0
 345 1341 328 1352 308 1361 c 0
 288 1370 267 1376 245 1380 c 0
 223 1384 203 1388 185 1389 c 0
 167 1390 153 1391 144 1391 c 0
 144 1477 l 0
 182 1477 219 1476 255 1473 c 0
 291 1470 325 1465 357 1458 c 0
 389 1451 418 1442 444 1430 c 0
 470 1418 492 1402 510 1384 c 0
 533 1359 551 1333 563 1304 c 0
 575 1275 583 1244 588 1212 c 0
 593 1180 596 1147 596 1113 c 0
 596 934 l 0
 596 906 598 878 601 851 c 0
 604 824 609 798 617 773 c 0
 625 748 638 729 654 713 c 0
 679 689 712 674 750 667 c 0
 788 660 837 656 898 656 c 0
 898 562 l 0
EndSplineSet
EndChar

StartChar: asciitilde
Encoding: 97 126 97
Width: 1746
VWidth: 1024
Flags: HW
LayerCount: 2
Fore
SplineSet
783 321 m 0
 763 307 744 295 727 286 c 0
 710 277 693 269 677 263 c 0
 661 257 646 253 631 251 c 0
 616 249 601 247 586 247 c 0
 561 247 537 251 512 258 c 0
 487 265 463 274 438 283 c 0
 413 292 388 300 362 307 c 0
 336 314 310 318 283 318 c 0
 256 318 226 311 193 296 c 0
 160 281 125 262 90 236 c 0
 90 304 l 0
 128 331 164 350 197 361 c 0
 230 372 261 378 289 378 c 0
 315 378 340 374 366 367 c 0
 392 360 417 352 442 343 c 0
 467 334 493 326 517 319 c 0
 541 312 564 308 587 308 c 0
 612 308 641 314 673 326 c 0
 705 338 741 359 783 389 c 0
 783 321 l 0
EndSplineSet
EndChar

StartChar: inherent
Encoding: 103 -1 98
Width: 0
Flags: HW
AnchorPoint: "V" -571 1106 mark 0
LayerCount: 2
Back
SplineSet
-176.127929688 1386.49609375 m 0
 -176.127929688 1517.97753906 -263.143554688 1584.11816406 -309.248046875 1605.63183594 c 1
 -245.759765625 1644.54394531 l 1
 -152.956054688 1602.1171875 -63.48828125 1453.11523438 -63.48828125 1298.43164062 c 0
 -63.48828125 1131.03027344 -186.64453125 1005.56835938 -335.872070312 1005.56835938 c 2
 -571.391601562 1005.56835938 l 1
 -571.391601562 1193.984375 l 1
 -395.263671875 1193.984375 l 2
 -214.616210938 1193.984375 -176.127929688 1311.375 -176.127929688 1386.49609375 c 0
2.0478515625 4.095703125 m 1
 4.095703125 4.095703125 l 1
 2.0478515625 4.095703125 l 1
2.0478515625 4.095703125 m 1
 4.095703125 4.095703125 l 1
 2.0478515625 4.095703125 l 1
EndSplineSet
Fore
SplineSet
-176 1386 m 4
 -176 1517 -263 1584 -309 1606 c 5
 -246 1645 l 5
 -153 1603 -63 1453 -63 1298 c 4
 -63 1131 -187 1006 -336 1006 c 6
 -571 1006 l 5
 -571 1194 l 5
 -395 1194 l 6
 -214 1194 -176 1311 -176 1386 c 4
2 4 m 5
 4 4 l 5
 2 4 l 5
2 4 m 5
 4 4 l 5
 2 4 l 5
EndSplineSet
EndChar

StartChar: makewide
Encoding: 104 -1 99
Width: 792
Flags: HW
LayerCount: 2
Back
SplineSet
600.064453125 546.81640625 m 0
 600.064453125 788.467773438 379.115234375 929.788085938 129.024414062 970.751953125 c 1
 129.024414062 1187.83984375 l 1
 487.423828125 1187.83984375 l 1
 487.423828125 997.375976562 l 1
 448.51171875 997.375976562 l 1
 605.272460938 869.409179688 663.551757812 631.165039062 663.551757812 460.799804688 c 0
 663.551757812 173.845703125 520.333007812 -16.3837890625 256 -16.3837890625 c 0
 32.46875 -16.3837890625 -88.3955078125 182.809570312 -116.736328125 419.83984375 c 1
 -96.1328125 358.03125 -26.2861328125 206.84765625 274.431640625 206.84765625 c 0
 469.811523438 206.84765625 600.064453125 370.438476562 600.064453125 546.81640625 c 0
EndSplineSet
Fore
SplineSet
600 547 m 4
 600 789 379 930 129 971 c 5
 129 1188 l 5
 487 1188 l 5
 487 997 l 5
 449 997 l 5
 606 869 664 631 664 461 c 4
 664 174 520 -16 256 -16 c 4
 32 -16 -89 183 -117 420 c 5
 -96 358 -27 207 274 207 c 4
 469 207 600 371 600 547 c 4
EndSplineSet
EndChar

StartChar: shortrr
Encoding: 105 -1 100
Width: 1286
Flags: HW
LayerCount: 2
Back
SplineSet
90.1123046875 880.639648438 m 0
 90.1123046875 1021.80859375 178.251953125 1189.88769531 425.984375 1189.88769531 c 2
 1204.22363281 1189.88769531 l 1
 1204.22363281 991.232421875 l 1
 411.6484375 991.232421875 l 2
 257.720703125 991.232421875 186.368164062 886.724609375 186.368164062 802.81640625 c 0
 186.368164062 745.010742188 216.268554688 667.6484375 335.872070312 667.6484375 c 2
 688.127929688 667.6484375 l 1
 688.127929688 468.9921875 l 1
 358.400390625 468.9921875 l 2
 233.598632812 468.9921875 180.223632812 378.829101562 180.223632812 311.295898438 c 0
 180.223632812 240.754882812 230.12109375 178.17578125 319.48828125 178.17578125 c 0
 401.817382812 178.17578125 428.032226562 124.108398438 428.032226562 88.064453125 c 0
 428.032226562 53.6572265625 399.360351562 2.0478515625 327.6796875 2.0478515625 c 0
 236.72265625 2.0478515625 88.064453125 104.42578125 88.064453125 268.288085938 c 0
 88.064453125 450.150390625 201.884765625 529.176757812 331.776367188 571.391601562 c 1
 149.087890625 622.673828125 90.1123046875 772.752929688 90.1123046875 880.639648438 c 0
EndSplineSet
Fore
SplineSet
90 881 m 4
 90 1022 178 1190 426 1190 c 6
 1204 1190 l 5
 1204 991 l 5
 412 991 l 6
 258 991 186 887 186 803 c 4
 186 745 216 668 336 668 c 6
 688 668 l 5
 688 469 l 5
 358 469 l 6
 233 469 180 379 180 311 c 4
 180 240 230 178 319 178 c 4
 401 178 428 124 428 88 c 4
 428 54 400 2 328 2 c 4
 237 2 88 104 88 268 c 4
 88 450 202 529 332 571 c 5
 149 622 90 773 90 881 c 4
EndSplineSet
EndChar

StartChar: anusvara
Encoding: 107 3202 101
Width: 1034
Flags: HW
LayerCount: 2
Back
SplineSet
516.095703125 1187.83984375 m 4
 825.931640625 1187.83984375 966.078125 940.099609375 968.704101562 604.16015625 c 5
 968.704101562 194.58203125 768.26171875 -24.576171875 528.383789062 -24.576171875 c 4
 275.198242188 -24.576171875 86.015625 199.866210938 86.015625 557.055664062 c 4
 86.015625 886.791992188 216.078125 1187.83984375 516.095703125 1187.83984375 c 4
538.624023438 182.272460938 m 260
 766.217773438 182.272460938 911.888671875 336.032226562 909.311523438 575.48828125 c 5
 909.311523438 774.064453125 762.130859375 985.087890625 526.3359375 985.087890625 c 4
 299.0078125 985.087890625 147.456054688 795.486328125 147.456054688 571.391601562 c 4
 147.456054688 330.469726562 324.390625 182.272460938 538.624023438 182.272460938 c 260
EndSplineSet
Fore
SplineSet
516 1188 m 0
 826 1188 966 940 969 604 c 0
 969 194 768 -25 528 -25 c 0
 275 -25 86 200 86 557 c 0
 86 887 216 1188 516 1188 c 0
539 182 m 256
 767 182 912 336 909 575 c 0
 909 774 762 985 526 985 c 0
 299 985 147 795 147 571 c 0
 147 330 325 182 539 182 c 256
EndSplineSet
EndChar

StartChar: u0C83
Encoding: 108 3203 102
Width: 575
Flags: HW
LayerCount: 2
Back
SplineSet
280.576171875 1183.74414062 m 0
 444.416015625 1183.74414062 485.375976562 1050.21484375 485.375976562 944.127929688 c 0
 485.375976562 751.538085938 371.09765625 700.416015625 294.912109375 700.416015625 c 0
 191.78125 700.416015625 83.9677734375 779.4609375 83.9677734375 944.127929688 c 0
 83.9677734375 1066.79101562 145.42578125 1183.74414062 280.576171875 1183.74414062 c 0
280.576171875 468.9921875 m 0
 444.416015625 468.9921875 485.375976562 334.233398438 485.375976562 227.328125 c 0
 485.375976562 32.51171875 371.09765625 -10.240234375 294.912109375 -10.240234375 c 0
 204.543945312 -10.240234375 83.9677734375 50.5380859375 83.9677734375 229.375976562 c 0
 83.9677734375 352.0390625 145.42578125 468.9921875 280.576171875 468.9921875 c 0
286.719726562 833.536132812 m 0
 371.375976562 833.536132812 452.608398438 866.1875 452.608398438 944.127929688 c 0
 452.608398438 1017.87890625 366.41015625 1054.71972656 284.671875 1054.71972656 c 0
 203.04296875 1054.71972656 124.927734375 1019.59472656 124.927734375 944.127929688 c 256
 124.927734375 855.654296875 224.767578125 833.536132812 286.719726562 833.536132812 c 0
286.719726562 120.83203125 m 0
 371.3125 120.83203125 452.608398438 151.30859375 452.608398438 229.375976562 c 0
 452.608398438 303.126953125 366.41015625 339.967773438 284.671875 339.967773438 c 0
 203.04296875 339.967773438 124.927734375 304.842773438 124.927734375 229.375976562 c 256
 124.927734375 153.025390625 206.225585938 120.83203125 286.719726562 120.83203125 c 0
EndSplineSet
Fore
SplineSet
281 1184 m 4
 445 1184 485 1050 485 944 c 4
 485 751 371 700 295 700 c 4
 192 700 84 779 84 944 c 4
 84 1067 146 1184 281 1184 c 4
281 469 m 4
 445 469 485 334 485 227 c 4
 485 32 371 -10 295 -10 c 4
 205 -10 84 50 84 229 c 4
 84 352 146 469 281 469 c 4
287 834 m 4
 372 834 453 866 453 944 c 4
 453 1018 367 1055 285 1055 c 4
 203 1055 125 1019 125 944 c 260
 125 856 225 834 287 834 c 4
287 121 m 4
 372 121 453 151 453 229 c 4
 453 303 367 340 285 340 c 4
 203 340 125 304 125 229 c 260
 125 153 207 121 287 121 c 4
EndSplineSet
EndChar

StartChar: avowel
Encoding: 109 3205 103
Width: 1591
Flags: HW
HStem: -27 207<542 1035> 745 111<696 1042 1090 1443> 1061 156<281 501>
VStem: 90 57<538 857> 1452 53<593 745>
AnchorPoint: "Nukta" 819 -102 basechar 0
LayerCount: 2
Back
SplineSet
1198.08007812 1216.51171875 m 0
 1413.98632812 1216.51171875 1500.47167969 948.506835938 1505.28027344 698.368164062 c 1
 1505.28027344 231.287109375 1178.05273438 -26.6240234375 794.624023438 -26.6240234375 c 0
 413.825195312 -26.6240234375 90.1123046875 236.500976562 90.1123046875 727.040039062 c 0
 90.1123046875 983.416992188 210.208984375 1216.51171875 421.887695312 1216.51171875 c 0
 562.790039062 1216.51171875 598.015625 1088 598.015625 997.375976562 c 0
 598.015625 918.185546875 578.90234375 848.213867188 540.671875 787.456054688 c 0
 465.251953125 667.592773438 256.9765625 625.669921875 192.51171875 901.120117188 c 1
 173.2578125 862.609375 147.456054688 772.419921875 147.456054688 714.751953125 c 0
 147.456054688 381.413085938 403.138671875 180.223632812 763.904296875 180.223632812 c 0
 1151.09863281 180.223632812 1452.03222656 405.50390625 1452.03222656 745.471679688 c 1
 696.3203125 745.471679688 l 1
 696.3203125 856.064453125 l 1
 1042.43164062 856.064453125 l 1
 917.50390625 987.135742188 1023.87304688 1216.51171875 1198.08007812 1216.51171875 c 0
1392.63964844 942.080078125 m 0
 1291.26367188 1072.12792969 1168.38378906 1079.29589844 1111.04003906 1018.87988281 c 0
 1073.15429688 978.96484375 1068.03222656 861.18359375 1141.75976562 857.087890625 c 1
 1442.81640625 856.064453125 l 1
 1431.55175781 890.879882812 1411.15625 918.327148438 1392.63964844 942.080078125 c 0
407.551757812 1060.86425781 m 1
 308.01953125 1060.86425781 266.569335938 1006.76367188 241.6640625 972.799804688 c 1
 247.125976562 944.127929688 253.26953125 923.6484375 260.095703125 911.360351562 c 0
 310.943359375 820.962890625 442.69140625 837.560546875 489.471679688 876.543945312 c 0
 564.740234375 939.270507812 518.553710938 1056.59179688 407.551757812 1060.86425781 c 1
EndSplineSet
Fore
SplineSet
1198 1217 m 0
 1414 1217 1500 948 1505 698 c 1
 1505 231 1178 -27 795 -27 c 0
 414 -27 90 236 90 727 c 0
 90 983 210 1217 422 1217 c 0
 563 1217 598 1088 598 997 c 0
 598 918 579 848 541 787 c 0
 466 667 257 626 193 901 c 1
 174 862 147 773 147 715 c 0
 147 382 403 180 764 180 c 0
 1151 180 1452 405 1452 745 c 1
 696 745 l 1
 696 856 l 1
 1042 856 l 1
 917 987 1024 1217 1198 1217 c 0
1393 942 m 0
 1292 1072 1168 1079 1111 1019 c 0
 1073 979 1068 861 1142 857 c 1
 1443 856 l 1
 1432 891 1412 918 1393 942 c 0
408 1061 m 1
 308 1061 267 1007 242 973 c 1
 247 944 253 923 260 911 c 0
 311 821 442 838 489 877 c 0
 564 940 519 1057 408 1061 c 1
EndSplineSet
EndChar

StartChar: aavowel
Encoding: 110 3206 104
Width: 1591
Flags: HW
AnchorPoint: "Nukta" 819 -102 basechar 0
LayerCount: 2
Back
SplineSet
796.671875 176.127929688 m 0
 1090.14257812 176.127929688 1351.6796875 301.465820312 1351.6796875 489.471679688 c 0
 1351.6796875 591.461914062 1306.484375 645.98828125 1296.38378906 659.456054688 c 1
 1264.48242188 647.856445312 1172.453125 647.16796875 1120.25585938 647.16796875 c 2
 681.984375 647.16796875 l 1
 681.984375 858.112304688 l 1
 1140.73632812 858.112304688 l 1
 1051.46972656 976.068359375 1047.234375 1234.94433594 1261.56835938 1234.94433594 c 0
 1585.8671875 1234.94433594 1571.56347656 795.893554688 1353.72753906 684.032226562 c 1
 1386.0859375 651.673828125 1429.54296875 571.947265625 1427.45605469 434.17578125 c 0
 1427.45605469 148.390625 1117.53027344 -38.912109375 792.576171875 -38.912109375 c 0
 598.698242188 -38.912109375 438.272460938 19.1142578125 311.295898438 135.16796875 c 0
 162.474609375 270.3359375 88.064453125 465.578125 88.064453125 720.896484375 c 0
 88.064453125 972.5703125 199.53515625 1222.65625 405.50390625 1222.65625 c 0
 562.790039062 1222.65625 602.112304688 1078.88671875 602.112304688 985.087890625 c 0
 602.112304688 839.862304688 519.952148438 679.935546875 376.83203125 679.935546875 c 0
 265.420898438 679.935546875 214.483398438 777.4765625 204.799804688 888.83203125 c 1
 169.029296875 839.647460938 157.696289062 794.624023438 151.551757812 729.087890625 c 0
 122.989257812 424.418945312 375.193359375 176.127929688 796.671875 176.127929688 c 0
1445.88769531 946.17578125 m 0
 1494.67773438 1060.02050781 1358.40136719 1175.40039062 1245.18359375 1093.63183594 c 0
 1223.97070312 1078.31054688 1175.55175781 1020.92773438 1226.75195312 858.112304688 c 1
 1255.42382812 858.112304688 l 2
 1295.36035156 858.112304688 1411.1640625 865.153320312 1445.88769531 946.17578125 c 0
411.6484375 1073.15234375 m 0
 342.001953125 1071.63867188 289.423828125 1023.95117188 270.3359375 991.232421875 c 1
 255.381835938 924.772460938 292.317382812 838.7109375 389.120117188 839.6796875 c 0
 473.309570312 840.521484375 520.192382812 898.295898438 520.192382812 960.51171875 c 0
 520.192382812 1026.48242188 458.751953125 1074.17578125 411.6484375 1073.15234375 c 0
EndSplineSet
Fore
SplineSet
797 176 m 0
 1090 176 1352 301 1352 489 c 0
 1352 591 1306 646 1296 659 c 1
 1264 647 1172 647 1120 647 c 2
 682 647 l 1
 682 858 l 1
 1141 858 l 1
 1052 976 1048 1235 1262 1235 c 0
 1586 1235 1572 796 1354 684 c 1
 1386 652 1429 572 1427 434 c 0
 1427 148 1118 -39 793 -39 c 0
 599 -39 438 19 311 135 c 0
 162 270 88 466 88 721 c 0
 88 973 200 1223 406 1223 c 0
 563 1223 602 1079 602 985 c 0
 602 840 520 680 377 680 c 0
 266 680 215 778 205 889 c 1
 169 840 158 795 152 729 c 0
 123 424 376 176 797 176 c 0
1446 946 m 0
 1495 1060 1358 1176 1245 1094 c 0
 1224 1079 1176 1021 1227 858 c 1
 1255 858 l 2
 1295 858 1411 865 1446 946 c 0
412 1073 m 0
 342 1071 289 1024 270 991 c 1
 255 925 292 839 389 840 c 0
 473 841 520 899 520 961 c 0
 520 1027 459 1074 412 1073 c 0
EndSplineSet
EndChar

StartChar: ivowel
Encoding: 111 3207 105
Width: 1556
Flags: HW
AnchorPoint: "Nukta" 819 -102 basechar 0
LayerCount: 2
Back
SplineSet
1378.30371094 487.423828125 m 1
 1399.39453125 381.97265625 1300.48046875 264.743164062 1300.48046875 176.127929688 c 0
 1300.48046875 135.578125 1332.83886719 108.543945312 1372.16015625 108.543945312 c 0
 1412.70996094 108.543945312 1442.52734375 137.243164062 1439.74414062 206.84765625 c 1
 1478.65625 188.416015625 l 1
 1478.65625 137.215820312 l 2
 1478.65625 48.69140625 1411.7890625 -4.095703125 1329.15234375 -4.095703125 c 0
 1264.43554688 -4.095703125 1167.36035156 27.8525390625 1167.36035156 155.6484375 c 0
 1167.36035156 201.932617188 1247.52441406 356.655273438 1251.328125 387.072265625 c 1
 1163.26367188 336.086914062 1092.40332031 325.631835938 1052.671875 325.631835938 c 0
 872.448242188 325.631835938 817.15234375 423.935546875 817.15234375 489.471679688 c 0
 817.15234375 558.28515625 878.28515625 661.50390625 1069.05566406 661.50390625 c 0
 1176.37304688 661.50390625 1258.16601562 625.798828125 1331.20019531 563.200195312 c 1
 1381.6484375 577.212890625 1419.26367188 659.874023438 1419.26367188 735.232421875 c 0
 1419.26367188 888.83203125 1283.39550781 991.232421875 1134.59179688 991.232421875 c 0
 1048.52636719 991.232421875 899.092773438 958.495117188 776.192382812 763.904296875 c 1
 736.673828125 873.9921875 658.970703125 991.232421875 452.608398438 991.232421875 c 0
 277.455078125 991.232421875 172.032226562 880.471679688 172.032226562 782.3359375 c 0
 172.032226562 720.077148438 217.087890625 626.688476562 436.223632812 626.688476562 c 1
 452.34765625 566.22265625 451.294921875 512 370.688476562 512 c 0
 185.498046875 512 98.3037109375 671.479492188 98.3037109375 839.6796875 c 0
 98.3037109375 1038.63671875 215.678710938 1200.12792969 434.17578125 1200.12792969 c 0
 641.842773438 1200.12792969 743.571289062 1004.12792969 780.288085938 933.887695312 c 1
 900.892578125 1138.24609375 1062.828125 1200.12792969 1159.16796875 1200.12792969 c 0
 1303.80175781 1200.12792969 1488.04003906 1087.31640625 1484.79980469 792.576171875 c 0
 1484.79980469 644.47265625 1441.57324219 562.741210938 1378.30371094 487.423828125 c 1
1101.82421875 602.112304688 m 0
 1011.71191406 602.112304688 966.65625 548.044921875 966.65625 512 c 0
 966.65625 461.482421875 1008.29785156 436.223632812 1091.58398438 436.223632812 c 0
 1173.12890625 436.223632812 1230.72753906 471.822265625 1277.95214844 516.095703125 c 1
 1243.03320312 571.965820312 1181.3046875 602.112304688 1101.82421875 602.112304688 c 0
EndSplineSet
Fore
SplineSet
1378 487 m 5
 1399 382 1300 265 1300 176 c 4
 1300 135 1333 109 1372 109 c 4
 1413 109 1443 137 1440 207 c 5
 1479 188 l 5
 1479 137 l 6
 1479 48 1412 -4 1329 -4 c 4
 1264 -4 1167 28 1167 156 c 4
 1167 202 1247 357 1251 387 c 5
 1163 336 1093 326 1053 326 c 4
 873 326 817 423 817 489 c 4
 817 558 878 662 1069 662 c 4
 1176 662 1258 626 1331 563 c 5
 1381 577 1419 660 1419 735 c 4
 1419 889 1284 991 1135 991 c 4
 1049 991 899 959 776 764 c 5
 736 874 659 991 453 991 c 4
 278 991 172 880 172 782 c 4
 172 720 217 627 436 627 c 5
 452 567 452 512 371 512 c 4
 186 512 98 672 98 840 c 4
 98 1039 216 1200 434 1200 c 4
 642 1200 743 1004 780 934 c 5
 901 1138 1063 1200 1159 1200 c 4
 1304 1200 1488 1088 1485 793 c 4
 1485 645 1441 562 1378 487 c 5
1102 602 m 4
 1012 602 967 548 967 512 c 4
 967 461 1009 436 1092 436 c 4
 1174 436 1231 472 1278 516 c 5
 1243 572 1181 602 1102 602 c 4
EndSplineSet
EndChar

StartChar: iivowel
Encoding: 112 3208 106
Width: 2109
Flags: HW
AnchorPoint: "Nukta" 850 -102 basechar 0
LayerCount: 2
Back
SplineSet
1792 1144.83203125 m 0
 1880.70703125 1144.83203125 2038.7734375 1081.88671875 2025.47167969 845.82421875 c 1
 2025.47167969 646.895507812 1917.68945312 591.250976562 1859.58398438 563.200195312 c 1
 2002.96679688 430.569335938 2013.18359375 300.31640625 2013.18359375 249.856445312 c 0
 2013.18359375 105.99609375 1921.54199219 2.0478515625 1816.57617188 2.0478515625 c 0
 1716.63378906 2.0478515625 1700.17773438 73.734375 1691.6484375 104.448242188 c 1
 1814.39257812 104.448242188 1880.06445312 219.23828125 1880.06445312 350.208007812 c 0
 1880.06445312 422.5703125 1862.31445312 486.057617188 1826.81640625 540.671875 c 1
 1782.57910156 517.734375 1734.24609375 518.143554688 1705.984375 518.143554688 c 2
 1409.02441406 518.143554688 l 1
 1409.02441406 492.202148438 1407.65820312 475.818359375 1404.92773438 468.9921875 c 0
 1342.34277344 135.204101562 1078.640625 -2.0478515625 845.82421875 -2.0478515625 c 0
 563.34765625 -2.0478515625 354.744140625 175.997070312 315.391601562 456.704101562 c 0
 311.295898438 518.143554688 l 1
 102.400390625 518.143554688 l 1
 102.400390625 712.704101562 l 1
 342.015625 712.704101562 l 1
 356.446289062 836.819335938 472.811523438 960.149414062 563.200195312 1001.47167969 c 1
 315.391601562 1001.47167969 l 1
 315.391601562 1189.88769531 l 1
 1069.05566406 1189.88769531 l 2
 1247.14355469 1189.88769531 1284.09570312 1296.79394531 1284.09570312 1368.06445312 c 0
 1284.09570312 1446.31445312 1247.23242188 1519.61621094 1189.88769531 1544.19238281 c 1
 1251.328125 1601.53613281 l 1
 1338.16308594 1558.11621094 1390.59179688 1455.15722656 1390.59179688 1337.34375 c 0
 1390.59179688 1220.296875 1335.72851562 1067.75097656 1148.92773438 1011.71191406 c 1
 1265.08007812 942.020507812 1346.88378906 852.529296875 1384.44824219 712.704101562 c 1
 1693.69628906 712.704101562 l 1
 1636.62597656 782.182617188 1607.6796875 854.42578125 1607.6796875 950.272460938 c 0
 1607.6796875 1105.91992188 1713.40820312 1144.83203125 1792 1144.83203125 c 0
1802.24023438 706.559570312 m 0
 1881.79296875 706.559570312 1985.40332031 734.94921875 1988.60839844 866.303710938 c 1
 1988.60839844 954.829101562 1921.74121094 1007.61621094 1839.10351562 1007.61621094 c 256
 1784.24414062 1007.61621094 1687.55175781 976.896484375 1687.55175781 854.015625 c 0
 1687.55175781 839.970703125 1688.98535156 774.758789062 1751.04003906 712.704101562 c 1
 1772.88574219 709.973632812 1789.95214844 706.559570312 1802.24023438 706.559570312 c 0
1265.6640625 712.704101562 m 1
 1254.26269531 781.115234375 1183.74414062 1019.90429688 856.064453125 1019.90429688 c 0
 563.4453125 1019.90429688 454.65625 836.403320312 454.65625 712.704101562 c 1
 1265.6640625 712.704101562 l 1
468.9921875 518.143554688 m 257
 468.9921875 305.072265625 663.28125 204.799804688 860.16015625 204.799804688 c 256
 1086.81640625 204.799804688 1251.328125 322.977539062 1251.328125 518.143554688 c 1
 1251.328125 518.143554688 466.944335938 516.095703125 468.9921875 518.143554688 c 257
EndSplineSet
Fore
SplineSet
1792 1145 m 0
 1881 1145 2034 1076 2025 846 c 0
 2017 637 1918 591 1860 563 c 1
 2003 430 2013 300 2013 250 c 0
 2013 106 1922 2 1817 2 c 0
 1717 2 1701 73 1692 104 c 1
 1815 104 1880 219 1880 350 c 0
 1880 422 1862 486 1827 541 c 1
 1783 518 1734 518 1706 518 c 2
 1409 518 l 1
 1409 492 1408 476 1405 469 c 0
 1342 135 1079 -2 846 -2 c 0
 564 -2 354 176 315 457 c 0
 311 518 l 1
 102 518 l 1
 102 713 l 1
 342 713 l 1
 356 837 473 960 563 1001 c 1
 315 1001 l 1
 315 1190 l 1
 1069 1190 l 2
 1247 1190 1284 1297 1284 1368 c 0
 1284 1446 1247 1519 1190 1544 c 1
 1251 1602 l 1
 1338 1559 1391 1455 1391 1337 c 0
 1391 1220 1336 1057 1149 1001 c 1
 1265 931 1346 853 1384 713 c 1
 1694 713 l 1
 1637 782 1608 854 1608 950 c 0
 1608 1106 1713 1145 1792 1145 c 0
1989 866 m 1
 1989 955 1922 1008 1839 1008 c 256
 1784 1008 1688 977 1688 854 c 0
 1688 840 1689 775 1751 713 c 1
 1866 699 1985 717 1989 866 c 1
1266 713 m 1
 1255 781 1184 1020 856 1020 c 0
 563 1020 455 837 455 713 c 1
 1266 713 l 1
469 518 m 257
 469 305 663 205 860 205 c 256
 1087 205 1251 323 1251 518 c 1
 1251 518 467 516 469 518 c 257
EndSplineSet
EndChar

StartChar: uvowel
Encoding: 113 3209 107
Width: 2244
Flags: HW
LayerCount: 2
Back
SplineSet
1652.73632812 1046.52832031 m 1
 1668.09375 1142.50976562 1700.53808594 1224.70410156 1775.61621094 1224.70410156 c 0
 1792.93359375 1224.70410156 1972.12402344 1150.95800781 2076.671875 943.103515625 c 0
 2134.015625 829.09765625 2162.68847656 703.830078125 2162.68847656 567.295898438 c 0
 2162.68847656 231.563476562 1996.390625 -26.6240234375 1746.94433594 -26.6240234375 c 0
 1488.07714844 -26.6240234375 1423.36035156 224.4609375 1423.36035156 436.223632812 c 0
 1423.36035156 577.536132812 1437.69628906 518.65625 1437.69628906 671.744140625 c 0
 1437.69628906 942.80078125 1291.46875 1005.56835938 1193.984375 1005.56835938 c 256
 1079.00097656 1005.56835938 927.744140625 909.1171875 927.744140625 686.080078125 c 0
 927.744140625 560.764648438 968.704101562 498.03515625 968.704101562 323.583984375 c 0
 968.704101562 102.263671875 872.42578125 -26.6240234375 649.215820312 -26.6240234375 c 0
 481.280273438 -26.6240234375 344.064453125 58.708984375 237.568359375 229.375976562 c 0
 141.994140625 382.293945312 94.2080078125 557.73828125 94.2080078125 755.711914062 c 0
 94.2080078125 994.66015625 181.71875 1224.70410156 403.456054688 1224.70410156 c 0
 538.872070312 1224.70410156 636.927734375 1062.88085938 636.927734375 909.311523438 c 0
 636.927734375 751.009765625 566.905273438 624.639648438 434.17578125 624.639648438 c 0
 284.671875 624.639648438 222.721679688 756.838867188 186.368164062 858.112304688 c 1
 173.983398438 765.2265625 172.032226562 733.59375 172.032226562 702.463867188 c 0
 172.032226562 387.79296875 325.6484375 178.17578125 610.303710938 178.17578125 c 0
 802.848632812 178.17578125 903.026367188 312.166015625 888.83203125 522.240234375 c 0
 878.591796875 673.791992188 860.16015625 655.360351562 862.208007812 821.248046875 c 0
 865.85546875 1116.77636719 1029.16308594 1224.70410156 1161.21582031 1224.70410156 c 0
 1315.83203125 1224.70410156 1501.18359375 1081.65722656 1501.18359375 694.272460938 c 0
 1501.18359375 591.052734375 1492.3984375 573.845703125 1492.9921875 522.240234375 c 0
 1495.04003906 344.064453125 1642.93847656 178.17578125 1826.81640625 178.17578125 c 0
 2007.79394531 178.17578125 2111.48828125 314.603515625 2111.48828125 503.807617188 c 0
 2111.48828125 720.896484375 1961.68457031 956.653320312 1652.73632812 1046.52832031 c 1
243.711914062 958.463867188 m 1
 247.249023438 905.389648438 262.143554688 770.047851562 419.83984375 770.047851562 c 0
 501.759765625 770.047851562 567.295898438 837.953125 567.295898438 905.215820312 c 0
 567.295898438 956.453125 518.883789062 1062.91210938 385.024414062 1062.91210938 c 0
 287.385742188 1062.91210938 264.044921875 999.1328125 243.711914062 958.463867188 c 1
EndSplineSet
Fore
SplineSet
1653 1047 m 1
 1668 1143 1701 1225 1776 1225 c 0
 1793 1225 1972 1151 2077 943 c 0
 2134 829 2163 704 2163 567 c 0
 2163 231 1996 -27 1747 -27 c 0
 1488 -27 1423 224 1423 436 c 0
 1423 577 1438 519 1438 672 c 0
 1438 943 1291 1006 1194 1006 c 256
 1079 1006 928 909 928 686 c 0
 928 561 969 498 969 324 c 0
 969 103 872 -27 649 -27 c 0
 481 -27 344 58 238 229 c 0
 142 382 94 558 94 756 c 0
 94 995 181 1225 403 1225 c 0
 538 1225 637 1063 637 909 c 0
 637 751 567 625 434 625 c 0
 284 625 222 757 186 858 c 1
 174 765 172 733 172 702 c 0
 172 387 325 178 610 178 c 0
 803 178 903 312 889 522 c 0
 879 674 860 655 862 821 c 0
 866 1117 1029 1225 1161 1225 c 0
 1316 1225 1501 1081 1501 694 c 0
 1501 591 1492 574 1493 522 c 0
 1495 344 1643 178 1827 178 c 0
 2008 178 2111 315 2111 504 c 0
 2111 721 1962 957 1653 1047 c 1
244 958 m 1
 248 905 262 770 420 770 c 0
 502 770 567 838 567 905 c 0
 567 956 519 1063 385 1063 c 0
 287 1063 264 999 244 958 c 1
EndSplineSet
EndChar

StartChar: uuvowel
Encoding: 114 3210 108
Width: 2574
Flags: HW
AnchorPoint: "Nukta" 1331 -102 basechar 0
LayerCount: 2
Back
SplineSet
1654.78417969 739.328125 m 0
 1654.78417969 1074.86816406 1840.45996094 1220.60839844 2031.61621094 1220.60839844 c 0
 2157.21972656 1220.60839844 2265.76367188 1172.13769531 2357.24804688 1054.71972656 c 0
 2459.6484375 920.91796875 2510.171875 739.328125 2508.79980469 509.952148438 c 0
 2508.79980469 75.7353515625 2314.15820312 -43.0078125 2162.68847656 -43.0078125 c 0
 1998.18261719 -43.0078125 1878.015625 86.169921875 1878.015625 280.576171875 c 0
 1878.015625 529.71484375 2010.7265625 581.631835938 2099.20019531 581.631835938 c 0
 2202.35742188 581.631835938 2289.6640625 508.819335938 2289.6640625 415.744140625 c 0
 2289.6640625 314.163085938 2206.41308594 288.767578125 2166.78417969 288.767578125 c 0
 2106.71582031 288.767578125 2076.671875 314.026367188 2076.671875 364.543945312 c 0
 2076.671875 463.1015625 2145.21875 459.147460938 2174.97558594 460.799804688 c 1
 2174.97558594 486.064453125 2119.53710938 497.6640625 2086.91210938 497.6640625 c 0
 2036.05566406 497.6640625 1925.12011719 474.338867188 1925.12011719 344.064453125 c 0
 1925.12011719 197.01171875 2031.61621094 149.50390625 2152.44824219 147.456054688 c 0
 2317.23046875 144.662109375 2457.59960938 248.676757812 2457.59960938 520.192382812 c 0
 2457.59960938 675.83984375 2416.98828125 800.42578125 2335.74414062 893.952148438 c 0
 2254.5 987.477539062 2161.31542969 1034.24023438 2056.19238281 1034.24023438 c 0
 1844.11523438 1034.24023438 1720.3203125 849.262695312 1720.3203125 569.34375 c 0
 1720.3203125 443.391601562 1736.70410156 418.201171875 1736.70410156 317.440429688 c 0
 1736.70410156 46.658203125 1583.10351562 -43.0078125 1480.70410156 -43.0078125 c 0
 1325.875 -43.0078125 1222.65625 113.745117188 1222.65625 307.200195312 c 0
 1222.65625 487.298828125 1269.75976562 503.564453125 1269.75976562 684.032226562 c 0
 1269.75976562 935.671875 1138.27832031 1034.24023438 1050.62402344 1034.24023438 c 256
 976.1796875 1034.24023438 831.48828125 962.6484375 831.48828125 663.551757812 c 0
 831.48828125 544.999023438 860.16015625 523.284179688 860.16015625 374.784179688 c 0
 860.16015625 49.2001953125 664.78125 -43.0078125 534.528320312 -43.0078125 c 0
 419.83984375 -43.0078125 320.854492188 12.2880859375 237.568359375 122.879882812 c 0
 141.994140625 248.490234375 94.2080078125 419.158203125 94.2080078125 634.879882812 c 0
 94.2080078125 997.43359375 271.067382812 1220.60839844 446.463867188 1220.60839844 c 0
 528.383789062 1220.60839844 651.263671875 1149.69628906 651.263671875 929.791992188 c 0
 651.263671875 751.71875 537.776367188 671.744140625 446.463867188 671.744140625 c 0
 379.290039062 671.744140625 278.528320312 713.932617188 278.528320312 882.688476562 c 0
 278.528320312 916.124023438 284.3671875 985.065429688 294.912109375 1003.51953125 c 1
 271.360351562 973.82421875 159.744140625 872.448242188 145.408203125 643.072265625 c 0
 129.29296875 385.23046875 315.391601562 126.975585938 542.719726562 147.456054688 c 0
 643.891601562 156.5703125 796.671875 215.495117188 796.671875 518.143554688 c 0
 796.671875 663.756835938 772.095703125 696.115234375 772.095703125 841.727539062 c 0
 772.095703125 1117.74316406 934.865234375 1220.60839844 1054.71972656 1220.60839844 c 0
 1221.52148438 1220.60839844 1333.24804688 1055.66601562 1333.24804688 821.248046875 c 0
 1333.24804688 682.802734375 1294.3359375 596.275390625 1294.3359375 475.135742188 c 0
 1294.3359375 244.176757812 1414.75878906 147.456054688 1495.04003906 147.456054688 c 0
 1567.94921875 147.456054688 1687.88183594 236.216796875 1677.31152344 454.65625 c 0
 1671.16796875 581.631835938 1654.78417969 574.306640625 1654.78417969 739.328125 c 0
462.84765625 786.431640625 m 0
 534.020507812 786.431640625 589.82421875 847.872070312 593.919921875 927.744140625 c 0
 602.627929688 1097.55371094 484.63671875 1109.60644531 442.368164062 1099.77636719 c 0
 398.3359375 1089.53613281 354.303710938 1054.71972656 336.896484375 1028.09570312 c 1
 324.608398438 817.15234375 402.125 786.431640625 462.84765625 786.431640625 c 0
EndSplineSet
Fore
SplineSet
1655 739 m 4
 1655 1075 1841 1221 2032 1221 c 4
 2158 1221 2266 1172 2357 1055 c 4
 2459 921 2510 739 2509 510 c 4
 2509 76 2314 -43 2163 -43 c 4
 1998 -43 1878 87 1878 281 c 4
 1878 530 2011 582 2099 582 c 4
 2202 582 2290 509 2290 416 c 4
 2290 314 2207 289 2167 289 c 4
 2107 289 2077 314 2077 365 c 4
 2077 464 2145 459 2175 461 c 5
 2175 486 2120 498 2087 498 c 4
 2036 498 1925 474 1925 344 c 4
 1925 197 2031 149 2152 147 c 4
 2317 144 2458 248 2458 520 c 4
 2458 676 2417 800 2336 894 c 4
 2255 988 2161 1034 2056 1034 c 4
 1844 1034 1720 849 1720 569 c 4
 1720 443 1737 418 1737 317 c 4
 1737 46 1583 -43 1481 -43 c 4
 1326 -43 1223 114 1223 307 c 4
 1223 487 1270 504 1270 684 c 4
 1270 936 1139 1034 1051 1034 c 260
 977 1034 831 963 831 664 c 4
 831 545 860 523 860 375 c 4
 860 49 665 -43 535 -43 c 4
 420 -43 321 12 238 123 c 4
 142 249 94 419 94 635 c 4
 94 998 271 1221 446 1221 c 4
 528 1221 651 1150 651 930 c 4
 651 752 537 672 446 672 c 4
 379 672 279 714 279 883 c 4
 279 916 284 986 295 1004 c 5
 271 974 159 872 145 643 c 4
 129 385 316 127 543 147 c 4
 644 156 797 215 797 518 c 4
 797 664 772 696 772 842 c 4
 772 1118 935 1221 1055 1221 c 4
 1222 1221 1333 1055 1333 821 c 4
 1333 683 1294 596 1294 475 c 4
 1294 244 1415 147 1495 147 c 4
 1568 147 1688 237 1677 455 c 4
 1671 582 1655 574 1655 739 c 4
463 786 m 4
 534 786 590 848 594 928 c 4
 603 1098 484 1110 442 1100 c 4
 398 1090 354 1055 337 1028 c 5
 325 817 402 786 463 786 c 4
EndSplineSet
EndChar

StartChar: rvocalicvowel
Encoding: 115 3211 109
Width: 2519
Flags: HW
AnchorPoint: "Nukta" 1260 -102 basechar 0
LayerCount: 2
Back
SplineSet
1690.62402344 352.966796875 m 1
 1731.89160156 282.915039062 1827.15234375 158.719726562 2056.19238281 158.719726562 c 0
 2228.55175781 158.719726562 2400.25585938 305.522460938 2400.25585938 508.927734375 c 0
 2400.25585938 806.604492188 2149.25292969 916.684570312 1900.54394531 996.3515625 c 0
 1878.17382812 1000.82519531 1804.28808594 1016.42285156 1804.28808594 1096.70410156 c 256
 1804.28808594 1142.88671875 1845.24804688 1188.86425781 1906.68847656 1188.86425781 c 0
 2024.10644531 1188.86425781 2140.8359375 1128.10644531 2256.89648438 998.400390625 c 0
 2382.5 857.76953125 2444.63574219 704.169921875 2443.26367188 537.599609375 c 0
 2443.26367188 227.479492188 2310.8203125 -29.6962890625 2037.75976562 -29.6962890625 c 0
 1893.03417969 -29.6962890625 1786.53808594 53.58984375 1718.27246094 203.776367188 c 0
 1708.0546875 226.764648438 1698.43554688 255.428710938 1690.24707031 289.791992188 c 1
 1671.16796875 37.8876953125 1509.09960938 -28.671875 1396.73632812 -28.671875 c 0
 1204.22363281 -28.671875 1004.44140625 144.040039062 915.456054688 413.696289062 c 1
 904.999023438 371.8671875 835.583984375 -28.671875 516.095703125 -28.671875 c 0
 314.814453125 -28.671875 188.416015625 120.01953125 188.416015625 299.0078125 c 0
 188.416015625 386.662109375 228.147460938 518.143554688 387.072265625 518.143554688 c 0
 507.017578125 518.143554688 569.34375 435.98046875 569.34375 344.064453125 c 0
 569.34375 257.547851562 512.9609375 182.272460938 415.744140625 182.272460938 c 0
 355.583984375 182.272460938 309.9296875 212.688476562 278.528320312 258.047851562 c 1
 264.459960938 142.686523438 369.610351562 30.7197265625 495.616210938 30.7197265625 c 0
 679.524414062 30.7197265625 733.18359375 263.905273438 733.18359375 497.6640625 c 0
 733.18359375 788.7421875 639.719726562 1130.49609375 421.887695312 1130.49609375 c 0
 262.962890625 1130.49609375 234.884765625 1007.44628906 223.232421875 966.65625 c 1
 245.078125 983.040039062 274.431640625 991.232421875 311.295898438 991.232421875 c 0
 384.274414062 991.232421875 487.423828125 954.77734375 487.423828125 808.959960938 c 0
 487.423828125 712.618164062 417.80859375 649.215820312 319.48828125 649.215820312 c 0
 199.706054688 649.215820312 92.16015625 738.06640625 92.16015625 890.879882812 c 0
 92.16015625 1069.05566406 241.776367188 1187.83984375 415.744140625 1187.83984375 c 0
 527.702148438 1187.83984375 628.053710938 1143.46582031 716.799804688 1054.71972656 c 0
 823.295898438 948.223632812 892.24609375 793.942382812 923.6484375 591.872070312 c 1
 982.388671875 410.541992188 1090.76464844 157.696289062 1341.44042969 157.696289062 c 0
 1502.07324219 157.696289062 1591.29589844 277.423828125 1591.29589844 432.127929688 c 0
 1591.29589844 652.493164062 1432.50683594 848.146484375 1212.41601562 983.040039062 c 1
 972.799804688 983.040039062 l 1
 972.799804688 1171.45605469 l 1
 1370.11230469 1171.45605469 l 2
 1557.5 1171.45605469 1583.10351562 1290.61035156 1583.10351562 1347.58398438 c 0
 1583.10351562 1434.96582031 1551.01757812 1494.35839844 1486.84765625 1525.75976562 c 1
 1533.95214844 1576.95996094 l 1
 1611.46289062 1535.61914062 1675.26367188 1426.27832031 1675.26367188 1302.52832031 c 0
 1675.26367188 1085.76757812 1521.12109375 983.040039062 1292.28808594 983.040039062 c 1
 1379.66992188 922.965820312 1443.83984375 871.08203125 1484.79980469 823.295898438 c 0
 1611.02246094 682.610351562 1681.40820312 521.215820312 1690.62402344 352.966796875 c 1
192.51171875 856.064453125 m 0
 192.51171875 788.842773438 212.391601562 729.087890625 284.671875 729.087890625 c 1
 325.1015625 723.3125 372.736328125 778.307617188 372.736328125 829.440429688 c 0
 372.736328125 904.806640625 318.177734375 923.6484375 270.3359375 923.6484375 c 0
 241.897460938 923.6484375 221.806640625 921.483398438 200.704101562 915.456054688 c 1
 195.2421875 904.534179688 192.51171875 884.736328125 192.51171875 856.064453125 c 0
385.024414062 253.952148438 m 256
 421.887695312 253.952148438 473.915039062 268.908203125 477.18359375 344.064453125 c 1
 477.18359375 393.215820312 453.973632812 417.791992188 407.551757812 417.791992188 c 0
 337.979492188 417.791992188 208.65234375 336.426757812 310.272460938 275.456054688 c 0
 334.166015625 261.120117188 359.08203125 253.952148438 385.024414062 253.952148438 c 256
EndSplineSet
Fore
SplineSet
1691 353 m 1
 1732 283 1827 159 2056 159 c 0
 2228 159 2400 306 2400 509 c 0
 2400 807 2150 916 1901 996 c 0
 1879 1000 1804 1017 1804 1097 c 256
 1804 1143 1846 1189 1907 1189 c 0
 2024 1189 2141 1128 2257 998 c 0
 2383 857 2444 705 2443 538 c 0
 2443 228 2311 -30 2038 -30 c 0
 1893 -30 1786 54 1718 204 c 0
 1708 227 1698 256 1690 290 c 1
 1671 38 1509 -29 1397 -29 c 0
 1204 -29 1004 144 915 414 c 1
 905 372 835 -29 516 -29 c 0
 315 -29 188 120 188 299 c 0
 188 387 228 518 387 518 c 0
 507 518 569 436 569 344 c 0
 569 257 513 182 416 182 c 0
 356 182 310 213 279 258 c 1
 265 143 370 31 496 31 c 0
 680 31 733 264 733 498 c 0
 733 789 640 1130 422 1130 c 0
 263 1130 231 1008 219 967 c 1
 241 983 274 991 311 991 c 0
 384 991 487 955 487 809 c 0
 487 713 417 649 319 649 c 0
 199 649 92 738 92 891 c 0
 92 1069 242 1188 416 1188 c 0
 528 1188 628 1144 717 1055 c 0
 823 949 893 794 924 592 c 1
 983 411 1090 158 1341 158 c 0
 1502 158 1591 277 1591 432 c 0
 1591 652 1432 848 1212 983 c 1
 973 983 l 1
 973 1171 l 1
 1370 1171 l 2
 1557 1171 1583 1291 1583 1348 c 0
 1583 1435 1551 1495 1487 1526 c 1
 1534 1577 l 1
 1612 1536 1675 1427 1675 1303 c 0
 1675 1086 1521 983 1292 983 c 1
 1379 923 1444 871 1485 823 c 0
 1611 682 1682 521 1691 353 c 1
193 856 m 0
 193 789 219 729 285 729 c 0
 337 729 373 778 373 829 c 0
 373 904 318 924 270 924 c 0
 242 924 228 921 207 915 c 1
 202 904 193 885 193 856 c 0
385 254 m 256
 422 254 474 269 477 344 c 0
 477 393 454 418 408 418 c 0
 338 418 208 336 310 275 c 0
 334 261 359 254 385 254 c 256
EndSplineSet
EndChar

StartChar: rvocalicvowel.part
Encoding: 116 -1 110
Width: 1779
Flags: HW
LayerCount: 2
Back
SplineSet
1675.26367188 1302.52832031 m 0
 1675.26367188 1085.76757812 1521.12109375 985.087890625 1292.28808594 985.087890625 c 1
 1379.66992188 925.013671875 1443.83984375 871.08203125 1484.79980469 823.295898438 c 0
 1615.87207031 677.206054688 1684.82226562 516.095703125 1691.6484375 339.967773438 c 1
 1691.6484375 46.9501953125 1515.27050781 -28.671875 1396.73632812 -28.671875 c 0
 1204.22363281 -28.671875 1004.44140625 144.040039062 915.456054688 413.696289062 c 1
 904.999023438 371.8671875 835.583984375 -28.671875 516.095703125 -28.671875 c 0
 314.814453125 -28.671875 188.416015625 120.01953125 188.416015625 299.0078125 c 0
 188.416015625 386.662109375 228.147460938 518.143554688 387.072265625 518.143554688 c 0
 507.017578125 518.143554688 569.34375 435.98046875 569.34375 344.064453125 c 0
 569.34375 257.547851562 512.9609375 182.272460938 415.744140625 182.272460938 c 0
 355.583984375 182.272460938 309.9296875 212.688476562 278.528320312 258.047851562 c 1
 264.459960938 142.686523438 369.610351562 30.7197265625 495.616210938 30.7197265625 c 0
 679.524414062 30.7197265625 733.18359375 263.905273438 733.18359375 497.6640625 c 0
 733.18359375 788.7421875 639.719726562 1130.49609375 421.887695312 1130.49609375 c 0
 262.962890625 1130.49609375 234.884765625 1007.44628906 223.232421875 966.65625 c 1
 245.078125 983.040039062 274.431640625 991.232421875 311.295898438 991.232421875 c 0
 384.274414062 991.232421875 487.423828125 954.77734375 487.423828125 808.959960938 c 0
 487.423828125 712.618164062 417.80859375 649.215820312 319.48828125 649.215820312 c 0
 199.706054688 649.215820312 92.16015625 738.06640625 92.16015625 890.879882812 c 0
 92.16015625 1069.05566406 241.776367188 1187.83984375 415.744140625 1187.83984375 c 0
 527.702148438 1187.83984375 628.053710938 1143.46582031 716.799804688 1054.71972656 c 0
 823.295898438 948.223632812 892.24609375 793.942382812 923.6484375 591.872070312 c 1
 982.388671875 410.541992188 1090.76464844 157.696289062 1341.44042969 157.696289062 c 0
 1502.07324219 157.696289062 1591.29589844 277.423828125 1591.29589844 432.127929688 c 0
 1591.29589844 652.493164062 1432.50683594 848.146484375 1212.41601562 983.040039062 c 1
 972.799804688 983.040039062 l 1
 972.799804688 1171.45605469 l 1
 1370.11230469 1171.45605469 l 2
 1557.5 1171.45605469 1583.10351562 1290.61035156 1583.10351562 1347.58398438 c 0
 1583.10351562 1434.96582031 1551.01757812 1494.35839844 1486.84765625 1525.75976562 c 1
 1533.95214844 1576.95996094 l 1
 1611.46289062 1535.61914062 1675.26367188 1426.27832031 1675.26367188 1302.52832031 c 0
192.51171875 856.064453125 m 0
 192.51171875 788.842773438 212.391601562 729.087890625 284.671875 729.087890625 c 1
 325.1015625 723.3125 372.736328125 778.307617188 372.736328125 829.440429688 c 0
 372.736328125 904.806640625 318.177734375 923.6484375 270.3359375 923.6484375 c 0
 241.897460938 923.6484375 221.806640625 921.483398438 200.704101562 915.456054688 c 1
 195.2421875 904.534179688 192.51171875 884.736328125 192.51171875 856.064453125 c 0
385.024414062 253.952148438 m 256
 421.887695312 253.952148438 473.915039062 268.908203125 477.18359375 344.064453125 c 0
 477.18359375 393.215820312 453.973632812 417.791992188 407.551757812 417.791992188 c 0
 337.979492188 417.791992188 208.65234375 336.426757812 310.272460938 275.456054688 c 0
 334.166015625 261.120117188 359.08203125 253.952148438 385.024414062 253.952148438 c 256
EndSplineSet
Fore
SplineSet
1675 1303 m 0
 1675 1086 1521 983 1292 983 c 1
 1379 923 1444 871 1485 823 c 0
 1616 677 1696 516 1692 340 c 0
 1685 28 1516 -29 1397 -29 c 0
 1204 -29 1004 144 915 414 c 1
 905 372 835 -29 516 -29 c 0
 315 -29 188 120 188 299 c 0
 188 387 228 518 387 518 c 0
 507 518 569 436 569 344 c 0
 569 257 513 182 416 182 c 0
 356 182 310 213 279 258 c 1
 265 143 370 31 496 31 c 0
 680 31 733 264 733 498 c 0
 733 789 640 1130 422 1130 c 0
 263 1130 235 1008 223 967 c 1
 245 983 274 991 311 991 c 0
 384 991 487 955 487 809 c 0
 487 713 417 649 319 649 c 0
 199 649 92 738 92 891 c 0
 92 1069 242 1188 416 1188 c 0
 528 1188 628 1144 717 1055 c 0
 823 949 893 794 924 592 c 1
 983 411 1090 158 1341 158 c 0
 1502 158 1591 277 1591 432 c 0
 1591 652 1432 848 1212 983 c 1
 973 983 l 1
 973 1171 l 1
 1370 1171 l 2
 1557 1171 1583 1291 1583 1348 c 0
 1583 1435 1551 1495 1487 1526 c 1
 1534 1577 l 1
 1612 1536 1675 1427 1675 1303 c 0
193 856 m 0
 193 789 213 731 285 729 c 0
 337 728 373 778 373 829 c 0
 373 904 318 924 270 924 c 0
 242 924 222 921 201 915 c 1
 196 904 193 885 193 856 c 0
385 254 m 256
 422 254 474 269 477 344 c 0
 477 393 454 418 408 418 c 0
 338 418 208 336 310 275 c 0
 334 261 359 254 385 254 c 256
EndSplineSet
EndChar

StartChar: lvocalicvowel.part
Encoding: 118 -1 112
Width: 1615
Flags: HW
AnchorPoint: "Nukta" 809 -102 basechar 0
LayerCount: 2
Fore
SplineSet
1516 344 m 1
 1527 328 1539 263 1534 205 c 1
 1534 54 1408 -31 1284 -31 c 256
 1189 -31 1028 33 1028 223 c 0
 1028 320 1083 416 1194 511 c 0
 1305 606 1360 697 1360 784 c 0
 1360 952 1213 993 1110 993 c 0
 1013 993 930 941 862 836 c 0
 842 802 819 750 793 680 c 1
 777 747 729 993 477 993 c 0
 261 993 190 871 190 793 c 0
 190 754 202 649 401 596 c 1
 394 568 360 563 332 563 c 1
 133 581 106 762 106 836 c 0
 106 1029 240 1204 442 1204 c 0
 652 1204 748 1013 793 911 c 1
 813 944 939 1204 1159 1204 c 0
 1347 1204 1497 1048 1497 872 c 0
 1497 755 1438 643 1321 535 c 0
 1204 427 1145 344 1145 287 c 0
 1145 154 1242 113 1296 113 c 0
 1380 113 1492 214 1516 344 c 1
EndSplineSet
EndChar

StartChar: evowel
Encoding: 119 3214 113
Width: 1556
Flags: HW
AnchorPoint: "Nukta" 778 -102 basechar 0
LayerCount: 2
Back
SplineSet
401.408203125 1073.15234375 m 0
 401.408203125 1120.35839844 442.09765625 1206.27246094 643.072265625 1206.27246094 c 0
 824.662109375 1206.27246094 994.646484375 1149.61035156 1153.02441406 1036.28808594 c 0
 1364.65039062 882.005859375 1469.09765625 665.599609375 1466.36816406 387.072265625 c 1
 1466.36816406 154.874023438 1355.01367188 -30.7197265625 1146.87988281 -30.7197265625 c 0
 926.924804688 -30.7197265625 819.220703125 239.407226562 780.288085938 329.727539062 c 1
 746.485351562 251.310546875 638.56640625 -30.7197265625 425.984375 -30.7197265625 c 0
 197.887695312 -30.7197265625 94.2080078125 173.09765625 94.2080078125 356.3515625 c 0
 94.2080078125 608.626953125 252.948242188 669.696289062 350.208007812 669.696289062 c 0
 464.486328125 669.696289062 571.391601562 595.967773438 571.391601562 485.375976562 c 0
 571.391601562 411.23046875 520.98828125 364.021484375 483.328125 374.784179688 c 1
 487.423828125 409.599609375 495.616210938 536.576171875 342.015625 540.671875 c 0
 284.180664062 542.213867188 180.223632812 516.095703125 169.984375 393.215820312 c 0
 159.26953125 264.638671875 263.143554688 180.223632812 409.599609375 180.223632812 c 0
 633.241210938 180.223632812 734.749023438 375.758789062 782.3359375 481.280273438 c 1
 808.278320312 413.013671875 832.169921875 363.177734375 854.015625 331.776367188 c 0
 927.744140625 230.7421875 1021.95214844 180.223632812 1136.63964844 180.223632812 c 0
 1293.92675781 180.223632812 1409.74121094 314.041992188 1398.78417969 522.240234375 c 0
 1392.63964844 638.975585938 1323.0078125 753.6640625 1182.71972656 854.015625 c 0
 1039.62011719 956.37890625 874.49609375 1005.56835938 690.17578125 1005.56835938 c 0
 599.174804688 1005.56835938 551.28515625 989.18359375 503.807617188 989.18359375 c 0
 446.107421875 989.18359375 401.408203125 1025.78808594 401.408203125 1073.15234375 c 0
EndSplineSet
Fore
SplineSet
401 1073 m 4
 401 1120 442 1206 643 1206 c 4
 825 1206 995 1149 1153 1036 c 4
 1365 882 1469 666 1466 387 c 5
 1466 155 1355 -31 1147 -31 c 4
 927 -31 819 240 780 330 c 5
 746 252 639 -31 426 -31 c 4
 198 -31 94 173 94 356 c 4
 94 608 253 670 350 670 c 4
 464 670 571 596 571 485 c 4
 571 411 521 364 483 375 c 5
 487 410 496 537 342 541 c 4
 284 543 180 516 170 393 c 4
 159 264 264 180 410 180 c 4
 634 180 734 375 782 481 c 5
 808 413 832 363 854 332 c 4
 928 231 1022 180 1137 180 c 4
 1294 180 1410 314 1399 522 c 4
 1393 639 1323 754 1183 854 c 4
 1040 956 874 1006 690 1006 c 4
 599 1006 551 989 504 989 c 4
 446 989 401 1026 401 1073 c 4
EndSplineSet
EndChar

StartChar: eevowel
Encoding: 120 3215 114
Width: 1556
Flags: HW
AnchorPoint: "Nukta" 778 -102 basechar 0
LayerCount: 2
Back
SplineSet
798.719726562 452.608398438 m 1
 850.233398438 320.962890625 954.89453125 160.671875 1120.25585938 174.080078125 c 24
 1288.98828125 187.759765625 1404.92773438 373.145507812 1404.92773438 501.759765625 c 0
 1404.92773438 810.682617188 1157.58105469 1150.61328125 782.3359375 1226.75195312 c 1
 845.545898438 1029.22070312 717.908203125 905.215820312 561.15234375 905.215820312 c 0
 387.860351562 905.215820312 241.6640625 1053.40527344 241.6640625 1349.63183594 c 1
 292.864257812 1349.63183594 l 1
 292.864257812 1172.38964844 426.296875 1064.95996094 550.912109375 1064.95996094 c 0
 731.14453125 1064.95996094 742.025390625 1248.63085938 661.50390625 1329.15234375 c 1
 918.185546875 1300.48046875 1121.62207031 1191.93554688 1271.80761719 1003.51953125 c 0
 1402.87988281 839.6796875 1468.41601562 653.994140625 1468.41601562 446.463867188 c 0
 1468.41601562 176.166015625 1341.63476562 -30.7197265625 1103.87207031 -30.7197265625 c 0
 913.408203125 -30.7197265625 833.568359375 167.090820312 786.431640625 301.055664062 c 1
 710.19921875 105.028320312 615.055664062 -30.7197265625 454.65625 -30.7197265625 c 0
 208.736328125 -30.7197265625 92.16015625 193.673828125 92.16015625 366.591796875 c 0
 92.16015625 599.359375 239.51953125 675.83984375 352.255859375 675.83984375 c 0
 464.7421875 675.83984375 563.200195312 605.456054688 563.200195312 471.040039062 c 0
 563.200195312 316.608398438 431.198242188 271.265625 372.736328125 329.727539062 c 1
 401.369140625 333.309570312 471.040039062 357.540039062 471.040039062 454.65625 c 0
 471.040039062 528.469726562 408.783203125 567.295898438 329.727539062 567.295898438 c 0
 260.481445312 567.295898438 151.551757812 534.9375 151.551757812 405.50390625 c 0
 151.551757812 253.108398438 273.91015625 174.080078125 428.032226562 174.080078125 c 0
 650.444335938 174.080078125 761.505859375 385.334960938 798.719726562 452.608398438 c 1
EndSplineSet
Fore
SplineSet
799 453 m 5
 851 321 955 161 1120 174 c 28
 1289 188 1405 373 1405 502 c 4
 1405 811 1157 1151 782 1227 c 5
 845 1029 718 905 561 905 c 4
 388 905 242 1054 242 1350 c 5
 293 1350 l 5
 293 1173 426 1065 551 1065 c 4
 731 1065 743 1248 662 1329 c 5
 919 1300 1122 1192 1272 1004 c 4
 1403 840 1468 654 1468 446 c 4
 1468 176 1342 -31 1104 -31 c 4
 914 -31 833 167 786 301 c 5
 710 105 615 -31 455 -31 c 4
 209 -31 92 194 92 367 c 4
 92 600 239 676 352 676 c 4
 464 676 563 605 563 471 c 4
 563 317 431 272 373 330 c 5
 402 334 471 358 471 455 c 4
 471 529 409 567 330 567 c 4
 261 567 152 535 152 406 c 4
 152 254 274 174 428 174 c 4
 650 174 762 386 799 453 c 5
EndSplineSet
EndChar

StartChar: aivowel
Encoding: 121 3216 115
Width: 1556
Flags: HW
AnchorPoint: "Nukta" 778 -102 basechar 0
LayerCount: 2
Back
SplineSet
798.719726562 462.84765625 m 1
 843.888671875 301.52734375 929.56640625 159.466796875 1120.25585938 161.791992188 c 0
 1312.80273438 161.791992188 1423.36035156 309.852539062 1423.36035156 520.192382812 c 0
 1423.36035156 779.09765625 1264.43554688 1026.04785156 1026.04785156 1026.04785156 c 256
 905.8984375 1026.04785156 819.200195312 961.194335938 765.952148438 860.16015625 c 0
 749.568359375 828.7578125 735.232421875 778.240234375 722.944335938 708.608398438 c 1
 638.704101562 910.276367188 506.674804688 1026.04785156 362.49609375 1026.04785156 c 0
 262.860351562 1026.04785156 186.368164062 963.55078125 186.368164062 874.49609375 c 0
 186.368164062 832.63671875 189.2421875 805.467773438 204.799804688 778.240234375 c 1
 163.053710938 758.7578125 90.1123046875 823.486328125 90.1123046875 937.984375 c 0
 90.1123046875 1149.1328125 223.674804688 1206.27246094 321.536132812 1206.27246094 c 0
 466.534179688 1206.27246094 610.16015625 1096.36816406 684.032226562 925.696289062 c 1
 730.879882812 1072.93261719 814.28515625 1206.27246094 1009.6640625 1206.27246094 c 0
 1306.36425781 1206.27246094 1474.55957031 868.696289062 1474.55957031 514.047851562 c 0
 1474.55957031 177.841796875 1328.7421875 -32.767578125 1110.015625 -32.767578125 c 0
 923.23828125 -32.767578125 830.286132812 181.255859375 798.719726562 251.904296875 c 1
 758.862304688 170.452148438 658.63671875 -32.767578125 448.51171875 -32.767578125 c 0
 242.673828125 -32.767578125 108.543945312 173.209960938 108.543945312 380.927734375 c 0
 108.543945312 600.844726562 267.071289062 686.080078125 385.024414062 686.080078125 c 0
 459.94140625 686.080078125 581.631835938 646.348632812 581.631835938 487.423828125 c 0
 581.631835938 365.938476562 488.806640625 325.631835938 440.3203125 325.631835938 c 0
 418.473632812 325.631835938 402.08984375 333.141601562 391.16796875 348.16015625 c 1
 420.6328125 355.526367188 489.471679688 371.09765625 489.471679688 462.84765625 c 0
 489.471679688 536.576171875 425.165039062 585.727539062 344.064453125 585.727539062 c 0
 268.435546875 585.727539062 178.17578125 536.916015625 178.17578125 415.744140625 c 0
 178.17578125 222.517578125 337.54296875 161.791992188 446.463867188 161.791992188 c 0
 601.62890625 161.791992188 798.719726562 271.1875 798.719726562 462.84765625 c 1
EndSplineSet
Fore
SplineSet
799 463 m 5
 844 302 929 160 1120 162 c 4
 1313 162 1423 310 1423 520 c 4
 1423 779 1264 1026 1026 1026 c 260
 906 1026 819 961 766 860 c 4
 750 829 735 779 723 709 c 5
 639 911 506 1026 362 1026 c 4
 262 1026 186 963 186 874 c 4
 186 832 189 805 205 778 c 5
 163 759 90 824 90 938 c 4
 90 1149 224 1206 322 1206 c 4
 467 1206 610 1097 684 926 c 5
 731 1073 815 1206 1010 1206 c 4
 1307 1206 1475 869 1475 514 c 4
 1475 178 1329 -33 1110 -33 c 4
 923 -33 831 181 799 252 c 5
 759 171 659 -33 449 -33 c 4
 243 -33 109 173 109 381 c 4
 109 601 267 686 385 686 c 4
 460 686 582 646 582 487 c 4
 582 366 488 326 440 326 c 4
 418 326 402 333 391 348 c 5
 420 355 489 371 489 463 c 4
 489 537 425 586 344 586 c 4
 268 586 178 537 178 416 c 4
 178 223 337 162 446 162 c 4
 601 162 799 271 799 463 c 5
EndSplineSet
EndChar

StartChar: ovowel
Encoding: 122 3218 116
Width: 1638
Flags: HW
AnchorPoint: "Nukta" 819 -102 basechar 0
LayerCount: 2
Back
SplineSet
1265.6640625 585.727539062 m 1
 1286.14355469 595.967773438 1304.53515625 604.6640625 1337.34375 604.16015625 c 0
 1470.46386719 602.112304688 1566.71972656 481.280273438 1566.71972656 346.112304688 c 0
 1566.71972656 145.408203125 1431.55175781 -34.81640625 1230.84765625 -34.81640625 c 0
 1002.44433594 -34.81640625 910.244140625 192.9375 882.688476562 253.952148438 c 1
 862.208007812 221.18359375 735.232421875 -34.81640625 516.095703125 -34.81640625 c 0
 327.6796875 -34.81640625 182.272460938 116.736328125 182.272460938 301.055664062 c 0
 182.272460938 417.791992188 241.6640625 528.383789062 358.400390625 634.879882812 c 0
 475.135742188 741.375976562 534.528320312 823.295898438 534.528320312 880.639648438 c 0
 534.528320312 1003.51953125 438.272460938 1034.24023438 378.879882812 1034.24023438 c 0
 301.055664062 1034.24023438 233.471679688 983.040039062 233.471679688 901.120117188 c 0
 233.471679688 806.912109375 313.34375 790.528320312 342.015625 782.3359375 c 1
 273.737304688 714.057617188 92.16015625 806.19140625 92.16015625 985.087890625 c 0
 92.16015625 1157.12011719 225.280273438 1232.89648438 354.303710938 1232.89648438 c 0
 514.047851562 1232.89648438 638.975585938 1128.44824219 638.975585938 952.3203125 c 0
 638.975585938 858.112304688 581.631835938 763.904296875 471.040039062 667.6484375 c 0
 360.448242188 571.391601562 305.15234375 481.280273438 305.15234375 397.311523438 c 0
 305.15234375 229.375976562 450.559570312 188.416015625 557.055664062 188.416015625 c 0
 747.51953125 188.416015625 824.475585938 366.84375 874.49609375 497.6640625 c 1
 886.784179688 444.416015625 935.935546875 188.416015625 1183.74414062 188.416015625 c 0
 1402.87988281 188.416015625 1476.60839844 317.440429688 1476.60839844 387.072265625 c 0
 1476.60839844 425.984375 1462.27246094 534.528320312 1265.6640625 585.727539062 c 1
EndSplineSet
Fore
SplineSet
1266 586 m 1
 1286 596 1304 605 1337 604 c 0
 1470 602 1567 481 1567 346 c 0
 1567 145 1432 -35 1231 -35 c 0
 1003 -35 911 193 883 254 c 1
 863 221 735 -35 516 -35 c 0
 328 -35 182 117 182 301 c 0
 182 418 241 529 358 635 c 0
 475 741 535 824 535 881 c 0
 535 1004 438 1034 379 1034 c 0
 301 1034 233 983 233 901 c 0
 233 807 313 790 342 782 c 1
 274 714 92 806 92 985 c 0
 92 1157 225 1233 354 1233 c 0
 514 1233 639 1128 639 952 c 0
 639 858 582 764 471 668 c 0
 360 572 305 481 305 397 c 0
 305 229 451 188 557 188 c 0
 747 188 824 367 874 498 c 1
 886 445 936 188 1184 188 c 0
 1403 188 1477 317 1477 387 c 0
 1477 426 1463 535 1266 586 c 1
EndSplineSet
EndChar

StartChar: oovowel
Encoding: 123 3219 117
Width: 1638
Flags: HW
AnchorPoint: "Nukta" 819 -102 basechar 0
LayerCount: 2
Back
SplineSet
1263.61621094 583.6796875 m 1
 1278.97558594 596.9921875 1309.80859375 606.850585938 1337.34375 604.16015625 c 0
 1473.53613281 590.84765625 1566.71972656 481.138671875 1566.71972656 346.112304688 c 0
 1566.71972656 145.872070312 1432.37109375 -34.81640625 1230.84765625 -34.81640625 c 0
 1021.95214844 -34.81640625 935.524414062 138.216796875 882.688476562 253.952148438 c 1
 863.080078125 221.041015625 736.05078125 -34.81640625 516.095703125 -34.81640625 c 0
 327.053710938 -34.81640625 182.272460938 117.639648438 182.272460938 301.055664062 c 0
 182.272460938 418.473632812 240.982421875 530.08984375 358.400390625 635.904296875 c 0
 475.818359375 741.717773438 534.528320312 823.295898438 534.528320312 880.639648438 c 0
 534.528320312 1003.51953125 437.298828125 1034.24023438 378.879882812 1034.24023438 c 0
 301.287109375 1034.24023438 233.471679688 983.295898438 233.471679688 901.120117188 c 0
 233.471679688 806.092773438 312.815429688 790.677734375 342.015625 782.3359375 c 1
 267.126953125 707.447265625 94.2080078125 819.631835938 94.2080078125 989.18359375 c 0
 94.2080078125 1071.515625 137.668945312 1179.59472656 262.143554688 1208.3203125 c 1
 204.548828125 1237.11523438 94.2080078125 1291.87792969 94.2080078125 1417.21582031 c 0
 94.2080078125 1587.52539062 312.895507812 1648.43554688 434.17578125 1570.81640625 c 1
 393.697265625 1560.69726562 262.143554688 1536.40917969 262.143554688 1398.78417969 c 0
 262.143554688 1291.29492188 316.16015625 1258.65332031 366.591796875 1239.04003906 c 1
 485.111328125 1239.04003906 636.927734375 1148.94628906 636.927734375 950.272460938 c 0
 636.927734375 856.064453125 581.290039062 760.83203125 470.015625 664.576171875 c 0
 358.7421875 568.3203125 303.103515625 478.549804688 303.103515625 395.263671875 c 0
 303.103515625 228.147460938 449.024414062 186.368164062 555.0078125 186.368164062 c 0
 745.471679688 186.368164062 824.080078125 365.787109375 872.448242188 495.616210938 c 1
 885.061523438 443.055664062 934.297851562 186.368164062 1181.69628906 186.368164062 c 0
 1401.39941406 186.368164062 1474.55957031 314.489257812 1474.55957031 385.024414062 c 0
 1474.55957031 424.754882812 1460.60449219 531.646484375 1263.61621094 583.6796875 c 1
EndSplineSet
Fore
SplineSet
1264 584 m 1
 1279 597 1309 607 1337 604 c 0
 1473 591 1567 481 1567 346 c 0
 1567 146 1433 -35 1231 -35 c 0
 1022 -35 936 138 883 254 c 1
 863 221 736 -35 516 -35 c 0
 327 -35 182 118 182 301 c 0
 182 418 241 530 358 636 c 0
 475 742 535 824 535 881 c 0
 535 1004 437 1034 379 1034 c 0
 301 1034 233 983 233 901 c 0
 233 806 313 790 342 782 c 1
 267 707 94 819 94 989 c 0
 94 1071 138 1179 262 1208 c 1
 204 1237 94 1292 94 1417 c 0
 94 1587 313 1649 434 1571 c 1
 394 1561 262 1537 262 1399 c 0
 262 1292 317 1259 367 1239 c 1
 486 1239 637 1149 637 950 c 0
 637 856 581 761 470 665 c 0
 359 569 303 478 303 395 c 0
 303 228 449 186 555 186 c 0
 745 186 824 366 872 496 c 1
 885 443 935 186 1182 186 c 0
 1402 186 1475 314 1475 385 c 0
 1475 425 1461 532 1264 584 c 1
EndSplineSet
EndChar

StartChar: auvowel
Encoding: 124 3220 118
Width: 1556
Flags: HW
AnchorPoint: "Nukta" 778 -102 basechar 0
LayerCount: 2
Back
SplineSet
880.639648438 1062.91210938 m 0
 880.639648438 981.811523438 927.764648438 860.16015625 1155.07226562 860.16015625 c 0
 1358.296875 860.16015625 1452.03222656 1022.57421875 1452.03222656 1161.21582031 c 0
 1452.03222656 1326.27832031 1345.20410156 1462.27246094 1148.92773438 1462.27246094 c 2
 550.912109375 1462.27246094 l 1
 595.969726562 1413.99414062 610.303710938 1352.49902344 610.303710938 1327.10351562 c 0
 610.303710938 1254.60449219 543.385742188 1206.27246094 450.559570312 1206.27246094 c 1
 530.970703125 1177.03222656 651.263671875 1120.39746094 651.263671875 952.3203125 c 0
 651.263671875 870.400390625 569.34375 757.759765625 405.50390625 614.400390625 c 0
 327.6796875 546.133789062 288.767578125 473.087890625 288.767578125 395.263671875 c 0
 288.767578125 228.147460938 433.305664062 184.3203125 542.719726562 184.3203125 c 0
 718.438476562 184.3203125 791.02734375 344.127929688 835.583984375 495.616210938 c 1
 849.787109375 431.05859375 892.518554688 184.3203125 1120.25585938 184.3203125 c 0
 1344.12695312 184.3203125 1409.02441406 306.790039062 1409.02441406 382.975585938 c 0
 1409.02441406 477.18359375 1338.70996094 544.0859375 1198.08007812 583.6796875 c 1
 1209.13964844 593.510742188 1227.98046875 602.521484375 1257.47167969 604.16015625 c 1
 1429.50390625 593.919921875 1488.89648438 452.659179688 1488.89648438 342.015625 c 0
 1488.89648438 145.15234375 1354.546875 -30.7197265625 1153.02441406 -30.7197265625 c 0
 1054.71972656 -30.7197265625 970.751953125 26.6240234375 901.120117188 129.024414062 c 0
 879.274414062 163.157226562 855.381835938 214.358398438 829.440429688 282.624023438 c 1
 793.640625 196.384765625 694.272460938 -34.81640625 491.51953125 -34.81640625 c 0
 303.39453125 -34.81640625 157.696289062 122.633789062 157.696289062 299.0078125 c 0
 157.696289062 416.42578125 221.18359375 528.041992188 348.16015625 633.856445312 c 0
 475.135742188 739.669921875 538.624023438 821.248046875 538.624023438 878.591796875 c 0
 538.624023438 982.220703125 457.5234375 1034.24023438 374.784179688 1034.24023438 c 0
 321.024414062 1034.24023438 223.232421875 1006.796875 223.232421875 897.024414062 c 0
 223.232421875 795.287109375 330.501953125 773.6171875 348.16015625 768 c 1
 327.6796875 751.616210938 303.786132812 743.423828125 276.48046875 743.423828125 c 0
 182.1796875 743.423828125 100.3515625 829.509765625 100.3515625 944.127929688 c 0
 100.3515625 1080.29785156 181.557617188 1148.9140625 290.81640625 1198.08007812 c 1
 110.591796875 1198.08007812 l 1
 110.591796875 1349.63183594 l 1
 462.84765625 1349.63183594 l 2
 559.298828125 1349.63183594 530.431640625 1452.03222656 473.087890625 1458.17578125 c 1
 110.591796875 1458.17578125 l 1
 110.591796875 1646.59179688 l 1
 1038.3359375 1646.59179688 l 2
 1342.79003906 1646.59179688 1511.42382812 1446.43457031 1511.42382812 1179.6484375 c 0
 1511.42382812 933.068359375 1369.32519531 751.616210938 1150.97558594 751.616210938 c 0
 898.662109375 751.616210938 835.583984375 945.23828125 835.583984375 1058.81640625 c 0
 835.583984375 1204.18554688 917.830078125 1335.29589844 1064.95996094 1335.29589844 c 1024
EndSplineSet
Fore
SplineSet
1274 1143 m 0
 1274 1060 1222 993 1141 993 c 0
 1036 993 1010 1055 1010 1096 c 0
 1010 1148 1046 1186 1094 1186 c 256
 1133 1186 1169 1164 1190 1143 c 1
 1225 1204 1140 1255 1067 1255 c 1024
1198 584 m 1
 1209 594 1231 605 1257 604 c 0
 1424 597 1489 453 1489 342 c 0
 1489 145 1355 -31 1153 -31 c 0
 997 -31 898 102 829 283 c 1
 793 197 695 -35 492 -35 c 0
 304 -35 158 123 158 299 c 0
 158 416 221 528 348 634 c 0
 475 740 539 822 539 879 c 0
 539 983 458 1034 375 1034 c 0
 321 1034 223 1007 223 897 c 0
 223 795 330 774 348 768 c 1
 328 752 303 743 276 743 c 0
 182 743 100 829 100 944 c 0
 100 1080 182 1149 291 1198 c 1
 111 1198 l 1
 111 1350 l 1
 463 1350 l 2
 559 1350 529 1442 473 1458 c 1
 111 1458 l 1
 111 1647 l 1
 1038 1647 l 2
 1342 1647 1511 1447 1511 1180 c 0
 1511 933 1369 752 1151 752 c 0
 899 752 836 945 836 1059 c 0
 836 1204 918 1335 1065 1335 c 0
 1221 1335 1274 1220 1274 1143 c 0
 1274 1060 1222 993 1141 993 c 0
 1036 993 1010 1055 1010 1096 c 0
 1010 1148 1046 1186 1094 1186 c 256
 1133 1186 1169 1164 1190 1143 c 1
 1225 1204 1140 1255 1067 1255 c 0
 950 1255 881 1159 881 1063 c 0
 881 982 928 860 1155 860 c 0
 1358 860 1452 1022 1452 1161 c 0
 1452 1326 1345 1462 1149 1462 c 2
 551 1462 l 1
 596 1414 610 1352 610 1327 c 0
 610 1255 544 1206 451 1206 c 1
 531 1177 651 1120 651 952 c 0
 651 870 570 757 406 614 c 0
 328 546 289 473 289 395 c 0
 289 228 434 184 543 184 c 0
 719 184 791 345 836 496 c 1
 850 431 892 184 1120 184 c 0
 1344 184 1409 307 1409 383 c 0
 1409 477 1339 544 1198 584 c 1
EndSplineSet
EndChar

StartChar: ka
Encoding: 125 3221 119
Width: 1097
Flags: HW
HStem: -8 190<392 707> 672 186<86 344 398 582 752 995> 987 188<86 579 633 815>
VStem: 180 102<288 538> 809 115<283 519> 883 113<1241 1472>
AnchorPoint: "s" 573 -119 basechar 0
LayerCount: 2
Back
SplineSet
882.688476562 1368.06445312 m 0xf4
 882.688476562 1499.54589844 795.672851562 1565.68554688 749.568359375 1587.20019531 c 1
 813.055664062 1626.11230469 l 1
 905.859375 1583.68554688 995.328125 1434.68359375 995.328125 1280 c 0
 995.328125 1112.59863281 881.6640625 987.135742188 724.9921875 987.135742188 c 2
 632.83203125 987.135742188 l 1
 679.860351562 957.43359375 683.0078125 891.904296875 649.215820312 858.112304688 c 1
 995.328125 858.112304688 l 1
 995.328125 671.744140625 l 1xf4
 751.616210938 671.744140625 l 1
 839.587890625 598.853515625 923.6484375 488.993164062 923.6484375 354.303710938 c 0xf8
 923.6484375 120.909179688 766.372070312 -8.1923828125 565.248046875 -8.1923828125 c 0
 357.581054688 -8.1923828125 180.223632812 136.415039062 180.223632812 358.400390625 c 0
 180.223632812 502.60546875 249.794921875 601.716796875 344.064453125 671.744140625 c 1
 86.015625 671.744140625 l 1
 86.015625 858.112304688 l 1
 528.383789062 858.112304688 l 2
 619.534179688 858.112304688 592.267578125 976.99609375 526.3359375 987.135742188 c 1
 86.015625 987.135742188 l 1
 86.015625 1175.55175781 l 1
 663.551757812 1175.55175781 l 2
 836.603515625 1175.55175781 882.688476562 1284.27246094 882.688476562 1368.06445312 c 0xf4
552.959960938 182.272460938 m 0
 674.713867188 182.272460938 808.959960938 254.795898438 808.959960938 430.080078125 c 0xf8
 808.959960938 623.411132812 651.2109375 671.744140625 559.103515625 671.744140625 c 0
 428.506835938 671.744140625 282.624023438 590.698242188 282.624023438 423.935546875 c 0
 282.624023438 265.193359375 419.301757812 182.272460938 552.959960938 182.272460938 c 0
EndSplineSet
Fore
SplineSet
883 1368 m 0xf4
 883 1499 796 1565 750 1587 c 1
 813 1626 l 1
 906 1584 995 1435 995 1280 c 0
 995 1113 882 987 725 987 c 2
 633 987 l 1
 680 957 683 892 649 858 c 1
 995 858 l 1
 995 672 l 1xf4
 752 672 l 1
 840 599 924 489 924 354 c 0xf8
 924 121 766 -8 565 -8 c 0
 357 -8 180 136 180 358 c 0
 180 502 250 602 344 672 c 1
 86 672 l 1
 86 858 l 1
 528 858 l 2
 619 858 592 977 526 987 c 1
 86 987 l 1
 86 1176 l 1
 664 1176 l 2
 837 1176 883 1284 883 1368 c 0xf4
553 182 m 0
 675 182 809 255 809 430 c 0xf8
 809 623 651 672 559 672 c 0
 428 672 283 591 283 424 c 0
 283 265 419 182 553 182 c 0
EndSplineSet
LCarets2: 1 0
EndChar

StartChar: ka.base
Encoding: 126 -1 120
Width: 1069
Flags: HW
HStem: -8 190<392 707> 672 186<86 344 398 582 752 995> 987 188<86 579 633 676>
VStem: 180 102<288 538> 809 115<283 519>
AnchorPoint: "s" 569 -127 basechar 0
LayerCount: 2
Back
SplineSet
526.3359375 987.135742188 m 1
 86.015625 987.135742188 l 1
 86.015625 1175.55175781 l 1
 675.83984375 1175.55175781 l 1
 675.83984375 987.135742188 l 1
 632.83203125 987.135742188 l 1
 679.860351562 957.43359375 683.0078125 891.904296875 649.215820312 858.112304688 c 1
 995.328125 858.112304688 l 1
 995.328125 671.744140625 l 1
 751.616210938 671.744140625 l 1
 839.587890625 598.853515625 923.6484375 488.993164062 923.6484375 354.303710938 c 0
 923.6484375 120.909179688 766.372070312 -8.1923828125 565.248046875 -8.1923828125 c 0
 357.581054688 -8.1923828125 180.223632812 136.415039062 180.223632812 358.400390625 c 0
 180.223632812 502.60546875 249.794921875 601.716796875 344.064453125 671.744140625 c 1
 86.015625 671.744140625 l 1
 86.015625 858.112304688 l 1
 528.383789062 858.112304688 l 2
 619.534179688 858.112304688 592.267578125 976.99609375 526.3359375 987.135742188 c 1
552.959960938 182.272460938 m 0
 674.713867188 182.272460938 808.959960938 254.795898438 808.959960938 430.080078125 c 0
 808.959960938 623.411132812 651.2109375 671.744140625 559.103515625 671.744140625 c 0
 428.506835938 671.744140625 282.624023438 590.698242188 282.624023438 423.935546875 c 0
 282.624023438 265.193359375 419.301757812 182.272460938 552.959960938 182.272460938 c 0
EndSplineSet
Fore
SplineSet
526 987 m 5
 86 987 l 5
 86 1176 l 5
 676 1176 l 5
 676 987 l 5
 633 987 l 5
 680 957 683 892 649 858 c 5
 995 858 l 5
 995 672 l 5
 752 672 l 5
 840 599 924 489 924 354 c 4
 924 121 766 -8 565 -8 c 4
 357 -8 180 136 180 358 c 4
 180 502 250 602 344 672 c 5
 86 672 l 5
 86 858 l 5
 528 858 l 6
 619 858 592 977 526 987 c 5
553 182 m 4
 675 182 809 255 809 430 c 4
 809 623 651 672 559 672 c 4
 428 672 283 591 283 424 c 4
 283 265 419 182 553 182 c 4
EndSplineSet
EndChar

StartChar: ka.imathra
Encoding: 127 -1 121
Width: 1069
Flags: HW
AnchorPoint: "s" 553 -164 basechar 0
LayerCount: 2
Back
SplineSet
800.767578125 1140.73632812 m 0
 800.767578125 1076.24902344 780.345703125 930.010742188 620.543945312 835.583984375 c 1
 1001.47167969 835.583984375 l 1
 1001.47167969 645.120117188 l 1
 751.616210938 645.120117188 l 1
 797.294921875 610.861328125 923.6484375 520.6015625 923.6484375 333.82421875 c 0
 923.6484375 108.36328125 768.323242188 -30.7197265625 548.864257812 -30.7197265625 c 0
 344.91796875 -30.7197265625 167.935546875 104.356445312 167.935546875 344.064453125 c 0
 167.935546875 530.50390625 294.83984375 615.88671875 337.919921875 645.120117188 c 1
 81.919921875 645.120117188 l 1
 81.919921875 835.583984375 l 1
 520.192382812 835.583984375 l 1
 593.264648438 872.120117188 661.50390625 940.032226562 661.50390625 1009.6640625 c 1
 642.458007812 990.6171875 584.999023438 952.3203125 528.383789062 952.3203125 c 0
 385.842773438 952.3203125 350.208007812 1067.05957031 350.208007812 1150.97558594 c 0
 350.208007812 1286.75 432.758789062 1409.02441406 561.15234375 1409.02441406 c 0
 731.045898438 1409.02441406 800.767578125 1259.47070312 800.767578125 1140.73632812 c 0
649.215820312 1169.40820312 m 256
 649.215820312 1210.36816406 627.916992188 1271.80761719 542.719726562 1271.80761719 c 256
 452.608398438 1271.80761719 430.080078125 1201.04980469 430.080078125 1163.26367188 c 256
 430.080078125 1122.30371094 451.37890625 1060.86425781 536.576171875 1060.86425781 c 256
 626.688476562 1060.86425781 649.215820312 1131.62207031 649.215820312 1169.40820312 c 256
555.0078125 155.6484375 m 0
 711.489257812 155.6484375 819.200195312 250.931640625 819.200195312 417.791992188 c 0
 819.200195312 598.909179688 690.4609375 671.744140625 563.200195312 671.744140625 c 0
 427.0078125 671.744140625 280.576171875 589.740234375 280.576171875 409.599609375 c 0
 280.576171875 225.734375 442.259765625 155.6484375 555.0078125 155.6484375 c 0
EndSplineSet
Fore
SplineSet
801 1141 m 4
 801 1077 781 930 621 836 c 5
 1001 836 l 5
 1001 645 l 5
 752 645 l 5
 798 611 924 521 924 334 c 4
 924 109 768 -31 549 -31 c 4
 345 -31 168 104 168 344 c 4
 168 530 295 616 338 645 c 5
 82 645 l 5
 82 836 l 5
 520 836 l 5
 593 873 662 940 662 1010 c 5
 643 991 585 952 528 952 c 4
 385 952 350 1067 350 1151 c 4
 350 1287 433 1409 561 1409 c 4
 731 1409 801 1260 801 1141 c 4
649 1169 m 260
 649 1210 628 1272 543 1272 c 260
 453 1272 430 1201 430 1163 c 260
 430 1122 452 1061 537 1061 c 260
 627 1061 649 1131 649 1169 c 260
555 156 m 4
 711 156 819 251 819 418 c 4
 819 599 690 672 563 672 c 4
 427 672 281 590 281 410 c 4
 281 226 442 156 555 156 c 4
EndSplineSet
LCarets2: 1 0
EndChar

StartChar: ka.sub
Encoding: 128 -1 122
Width: 485
Flags: HW
AnchorPoint: "Sub" -268 272 mark 0
AnchorPoint: "Sub" 356 -731 basemark 0
LayerCount: 2
Back
SplineSet
243.711914062 96.255859375 m 0
 243.711914062 57.5849609375 233.471679688 -51.2001953125 116.736328125 -167.935546875 c 1
 462.84765625 -167.935546875 l 1
 462.84765625 -296.959960938 l 1
 262.143554688 -296.959960938 l 1
 324.950195312 -350.208007812 356.3515625 -413.013671875 356.3515625 -485.375976562 c 0
 356.3515625 -660.848632812 228.653320312 -737.280273438 108.543945312 -737.280273438 c 256
 8.9248046875 -737.280273438 -139.263671875 -681.165039062 -139.263671875 -483.328125 c 0
 -139.263671875 -400.041992188 -111.95703125 -337.919921875 -57.34375 -296.959960938 c 1
 -245.759765625 -296.959960938 l 1
 -245.759765625 -167.935546875 l 1
 34.81640625 -167.935546875 l 1
 106.141601562 -71.919921875 139.263671875 38.0908203125 139.263671875 126.975585938 c 0
 139.263671875 204.752929688 124.900390625 241.729492188 106.49609375 284.671875 c 1
 194.637695312 284.671875 243.711914062 177.495117188 243.711914062 96.255859375 c 0
108.543945312 -610.303710938 m 0
 203.12890625 -610.303710938 286.719726562 -548.565429688 286.719726562 -432.127929688 c 0
 286.719726562 -338.20703125 205.064453125 -260.095703125 102.400390625 -260.095703125 c 0
 13.234375 -260.095703125 -73.7275390625 -334.41015625 -73.7275390625 -436.223632812 c 0
 -73.7275390625 -552.0625 20.9404296875 -610.303710938 108.543945312 -610.303710938 c 0
EndSplineSet
Fore
SplineSet
244 96 m 0
 244 57 234 -51 117 -168 c 1
 463 -168 l 1
 463 -297 l 1
 262 -297 l 1
 325 -350 356 -413 356 -485 c 0
 356 -660 229 -737 109 -737 c 256
 9 -737 -139 -681 -139 -483 c 0
 -139 -400 -112 -338 -57 -297 c 1
 -246 -297 l 1
 -246 -168 l 1
 35 -168 l 1
 106 -72 139 38 139 127 c 0
 139 205 124 242 106 285 c 1
 194 285 244 177 244 96 c 0
109 -610 m 0
 204 -610 287 -548 287 -432 c 0
 287 -338 205 -260 102 -260 c 0
 13 -260 -74 -334 -74 -436 c 0
 -74 -552 21 -610 109 -610 c 0
EndSplineSet
LCarets2: 1 0
EndChar

StartChar: ka_rvocalicmatra.sub
Encoding: 129 -1 123
Width: 985
Flags: HW
LayerCount: 2
Back
SplineSet
468.9921875 -370.688476562 m 0
 558.42578125 -370.688476562 617.861328125 -438.6015625 620.543945312 -532.48046875 c 0
 620.543945312 -549.68359375 613.232421875 -576.657226562 598.015625 -618.49609375 c 1
 787.10546875 -571.223632812 843.776367188 -404.684570312 843.776367188 -262.143554688 c 0
 843.776367188 -23.875 699.9921875 243.27734375 487.423828125 368.639648438 c 1
 526.3359375 401.408203125 l 1
 779.68359375 243.709960938 931.83984375 -17.61328125 931.83984375 -296.959960938 c 256
 931.83984375 -548.227539062 802.088867188 -751.616210938 569.34375 -751.616210938 c 0
 440.3203125 -751.616210938 377.139648438 -658.657226562 354.303710938 -626.688476562 c 1
 324.591796875 -702.325195312 231.903320312 -751.616210938 120.83203125 -751.616210938 c 0
 -23.53515625 -751.616210938 -106.49609375 -660.686523438 -106.49609375 -509.952148438 c 0
 -106.49609375 -422.5703125 -77.1416015625 -357.034179688 -18.431640625 -313.34375 c 1
 -206.84765625 -313.34375 l 1
 -206.84765625 -184.3203125 l 1
 55.2958984375 -184.3203125 l 1
 115.704101562 -103.776367188 188.416015625 31.94921875 188.416015625 176.127929688 c 0
 188.416015625 259.4140625 165.887695312 329.727539062 120.83203125 387.072265625 c 1
 135.776367188 383.676757812 284.671875 377.495117188 284.671875 169.984375 c 0
 284.671875 126.340820312 278.59765625 -34.2490234375 120.83203125 -184.3203125 c 1
 495.616210938 -184.3203125 l 1
 495.616210938 -313.34375 l 1
 309.248046875 -313.34375 l 1
 353.204101562 -354.369140625 358.250976562 -406.950195312 358.400390625 -407.551757812 c 5
 387.104492188 -389.09765625 424.754882812 -370.688476562 468.9921875 -370.688476562 c 0
561.15234375 -532.48046875 m 1
 561.15234375 -471.10546875 518.958984375 -432.127929688 456.704101562 -432.127929688 c 0
 393.8984375 -432.127929688 362.49609375 -464.213867188 362.49609375 -528.383789062 c 0
 362.49609375 -621.7421875 457.377929688 -650.770507812 522.240234375 -638.975585938 c 1
 536.78125 -624.435546875 556.846679688 -586.29296875 561.15234375 -532.48046875 c 1
124.927734375 -632.83203125 m 0
 221.569335938 -632.83203125 302.358398438 -569.125 305.15234375 -454.65625 c 1
 305.15234375 -361.596679688 228.114257812 -282.624023438 129.024414062 -282.624023438 c 0
 33.8427734375 -282.624023438 -55.2958984375 -353.075195312 -55.2958984375 -458.751953125 c 0
 -55.2958984375 -573.564453125 39.7236328125 -632.83203125 124.927734375 -632.83203125 c 0
EndSplineSet
Fore
SplineSet
469 -371 m 0
 558 -371 618 -438 621 -532 c 0
 621 -549 613 -576 598 -618 c 1
 787 -571 844 -405 844 -262 c 0
 844 -24 700 244 487 369 c 1
 526 401 l 1
 779 243 932 -18 932 -297 c 256
 932 -548 802 -752 569 -752 c 0
 440 -752 377 -659 354 -627 c 1
 324 -703 232 -752 121 -752 c 0
 -23 -752 -106 -661 -106 -510 c 0
 -106 -423 -77 -357 -18 -313 c 1
 -207 -313 l 1
 -207 -184 l 1
 55 -184 l 1
 115 -103 188 32 188 176 c 0
 188 259 166 330 121 387 c 1
 136 384 285 378 285 170 c 0
 285 126 279 -34 121 -184 c 1
 496 -184 l 1
 496 -313 l 1
 309 -313 l 1
 353 -354 358 -407 358 -408 c 1
 387 -390 425 -371 469 -371 c 0
561 -532 m 1
 561 -471 519 -432 457 -432 c 0
 394 -432 362 -464 362 -528 c 0
 362 -621 457 -651 522 -639 c 1
 537 -624 557 -586 561 -532 c 1
125 -633 m 0
 222 -633 302 -569 305 -455 c 1
 305 -362 228 -283 129 -283 c 0
 34 -283 -55 -353 -55 -459 c 0
 -55 -574 40 -633 125 -633 c 0
EndSplineSet
EndChar

StartChar: kha
Encoding: 130 3222 124
Width: 1751
Flags: HW
HStem: -16 225<1056 1387> -16 164<196 527> 418 66<295 636> 709 100<402 487> 1053 152<447 748> 1329 158<1027 1318>
VStem: 90 88<170 335> 322 70<825 989> 467 199<812 944> 879 72<491 894> 1620 74<480 921>
LayerCount: 2
Back
SplineSet
1693.69628906 616.448242188 m 0
 1693.69628906 248.649414062 1537.00976562 -21.8623046875 1208.3203125 -16.3837890625 c 0
 1131.72460938 -16.3837890625 987.275390625 14.595703125 825.34375 268.288085938 c 1
 710.379882812 104.549804688 565.376953125 -16.3837890625 380.927734375 -16.3837890625 c 0
 184.060546875 -16.3837890625 90.1123046875 92.2685546875 90.1123046875 210.944335938 c 0
 90.1123046875 319.897460938 177.272460938 483.328125 468.9921875 483.328125 c 0
 658.227539062 483.328125 757.83203125 408.162109375 784.383789062 391.16796875 c 1
 847.190429688 463.530273438 878.591796875 567.295898438 878.591796875 702.463867188 c 0
 878.591796875 908.5703125 786.915039062 1052.671875 598.015625 1052.671875 c 0
 441.880859375 1052.671875 391.16796875 962.969726562 391.16796875 903.16796875 c 0
 391.16796875 840.362304688 423.25390625 808.959960938 487.423828125 808.959960938 c 1
 469.2421875 823.508789062 466.944335938 849.510742188 466.944335938 876.543945312 c 0
 466.944335938 926.924804688 506.265625 960.51171875 565.248046875 960.51171875 c 256
 605.388671875 960.51171875 665.599609375 937.57421875 665.599609375 845.82421875 c 0
 665.599609375 761.573242188 590.438476562 708.608398438 512 708.608398438 c 0
 381.21875 708.608398438 321.536132812 821.485351562 321.536132812 929.791992188 c 0
 321.536132812 1051.85058594 393.168945312 1204.22363281 577.536132812 1204.22363281 c 0
 825.80078125 1204.22363281 950.272460938 976.4921875 950.272460938 692.223632812 c 0
 950.272460938 523.587890625 904.616210938 408.811523438 866.303710938 358.400390625 c 1
 941.430664062 273.029296875 1038.04296875 208.896484375 1185.79199219 208.896484375 c 0
 1465.14550781 208.896484375 1619.96777344 404.73828125 1619.96777344 698.368164062 c 0
 1619.96777344 1030.78320312 1424.34960938 1329.15234375 1175.55175781 1329.15234375 c 0
 1108.37792969 1329.15234375 1083.69921875 1316.65136719 1007.61621094 1273.85644531 c 1
 958.463867188 1273.85644531 933.887695312 1298.43164062 933.887695312 1347.58398438 c 0
 933.887695312 1431.14257812 1020.10839844 1486.84765625 1140.73632812 1486.84765625 c 0
 1300.48046875 1486.84765625 1434.28222656 1393.32226562 1542.14355469 1206.27246094 c 0
 1643.17773438 1032.87402344 1693.69628906 836.265625 1693.69628906 616.448242188 c 0
456.704101562 417.791992188 m 0
 272.1796875 417.791992188 178.17578125 321.543945312 178.17578125 241.6640625 c 0
 178.17578125 178.858398438 228.694335938 147.456054688 329.727539062 147.456054688 c 0
 491.9296875 147.456054688 626.6015625 235.106445312 735.232421875 325.631835938 c 1
 703.990234375 351.666015625 623.8203125 417.791992188 456.704101562 417.791992188 c 0
EndSplineSet
Fore
SplineSet
1694 616 m 4xbfe0
 1694 248 1537 -21 1208 -16 c 4xbfe0
 1131 -16 987 14 825 268 c 5
 710 104 565 -16 381 -16 c 4x7fe0
 184 -16 90 92 90 211 c 4
 90 320 177 483 469 483 c 4
 658 483 757 408 784 391 c 5
 847 463 879 567 879 702 c 4
 879 908 787 1053 598 1053 c 4
 442 1053 391 963 391 903 c 4
 391 840 423 809 487 809 c 5
 469 824 467 850 467 877 c 4
 467 927 506 961 565 961 c 260
 605 961 666 938 666 846 c 4
 666 762 590 709 512 709 c 4
 381 709 322 822 322 930 c 4
 322 1052 394 1204 578 1204 c 4
 826 1204 950 976 950 692 c 4
 950 523 904 408 866 358 c 5
 941 273 1038 209 1186 209 c 4
 1465 209 1620 404 1620 698 c 4
 1620 1030 1425 1329 1176 1329 c 4
 1109 1329 1084 1317 1008 1274 c 5
 959 1274 934 1299 934 1348 c 4
 934 1432 1020 1487 1141 1487 c 4
 1301 1487 1434 1393 1542 1206 c 4
 1643 1033 1694 836 1694 616 c 4xbfe0
457 418 m 4
 272 418 178 322 178 242 c 4
 178 179 229 147 330 147 c 4x7fe0
 492 147 626 235 735 326 c 5
 704 352 624 418 457 418 c 4
EndSplineSet
LCarets2: 1 0
EndChar

StartChar: kha.base
Encoding: 131 -1 125
Width: 1837
Flags: HW
LayerCount: 2
Back
SplineSet
1697.79199219 604.16015625 m 0
 1697.79199219 787.918945312 1605.13183594 953.634765625 1443.83984375 997.375976562 c 1
 1040.38378906 997.375976562 l 1
 1040.38378906 1185.79199219 l 1
 1353.72753906 1185.79199219 l 1
 1636.96875 1126.65234375 1763.328125 789.255859375 1763.328125 528.383789062 c 256
 1763.328125 198.9296875 1589.86621094 -18.431640625 1286.14355469 -18.431640625 c 0
 1110.83496094 -18.431640625 955.131835938 141.075195312 847.872070312 270.3359375 c 1
 797.353515625 206.166015625 754.345703125 159.061523438 718.84765625 129.024414062 c 0
 608.255859375 33.4501953125 495.616210938 -14.3359375 380.927734375 -14.3359375 c 0
 184.060546875 -14.3359375 90.1123046875 94.31640625 90.1123046875 212.9921875 c 0
 90.1123046875 321.9453125 177.272460938 485.375976562 468.9921875 485.375976562 c 0
 595.788085938 485.375976562 695.18359375 454.721679688 802.81640625 393.215820312 c 1
 861.526367188 461.482421875 890.879882812 560.469726562 890.879882812 690.17578125 c 0
 890.879882812 901.797851562 793.573242188 1054.71972656 598.015625 1054.71972656 c 0
 441.880859375 1054.71972656 391.16796875 965.017578125 391.16796875 905.215820312 c 0
 391.16796875 842.41015625 423.25390625 811.0078125 487.423828125 811.0078125 c 1
 469.2421875 825.556640625 466.944335938 851.55859375 466.944335938 878.591796875 c 0
 466.944335938 928.97265625 506.265625 962.559570312 565.248046875 962.559570312 c 256
 605.388671875 962.559570312 665.599609375 939.622070312 665.599609375 847.872070312 c 0
 665.599609375 763.62109375 590.438476562 710.65625 512 710.65625 c 0
 381.21875 710.65625 321.536132812 823.533203125 321.536132812 931.83984375 c 0
 321.536132812 1053.8984375 393.168945312 1206.27246094 577.536132812 1206.27246094 c 0
 830.232421875 1206.27246094 960.51171875 962.0703125 960.51171875 667.6484375 c 0
 960.51171875 532.48046875 935.25390625 430.080078125 884.736328125 360.448242188 c 1
 986.333007812 287.876953125 1120.66601562 204.799804688 1277.95214844 204.799804688 c 0
 1561.95410156 204.799804688 1697.79199219 386.15234375 1697.79199219 604.16015625 c 0
452.608398438 423.935546875 m 0
 268.083007812 423.935546875 174.080078125 327.688476562 174.080078125 247.807617188 c 0
 174.080078125 185.002929688 224.59765625 153.599609375 325.631835938 153.599609375 c 0
 496.844726562 153.599609375 655.624023438 256.360351562 753.6640625 331.776367188 c 1
 703.981445312 365.650390625 603.174804688 423.935546875 452.608398438 423.935546875 c 0
EndSplineSet
Fore
SplineSet
1698 604 m 0
 1698 788 1582 997 1415 997 c 2
 1040 997 l 1
 1040 1186 l 1
 1315 1186 l 2
 1604 1186 1763 789 1763 528 c 256
 1763 199 1590 -18 1286 -18 c 0
 1111 -18 955 141 848 270 c 1
 797 206 754 159 719 129 c 0
 608 33 496 -14 381 -14 c 0
 184 -14 90 94 90 213 c 0
 90 322 177 485 469 485 c 0
 596 485 695 455 803 393 c 1
 862 461 891 560 891 690 c 0
 891 902 794 1055 598 1055 c 0
 442 1055 391 965 391 905 c 0
 391 842 423 811 487 811 c 1
 469 826 467 852 467 879 c 0
 467 929 506 963 565 963 c 256
 605 963 666 940 666 848 c 0
 666 764 590 711 512 711 c 0
 381 711 322 824 322 932 c 0
 322 1054 394 1206 578 1206 c 0
 831 1206 961 962 961 668 c 0
 961 533 936 430 885 360 c 1
 987 287 1121 205 1278 205 c 0
 1562 205 1698 386 1698 604 c 0
453 424 m 0
 268 424 174 328 174 248 c 0
 174 185 225 154 326 154 c 0
 497 154 656 257 754 332 c 1
 704 366 604 424 453 424 c 0
EndSplineSet
EndChar

StartChar: kha.imathra
Encoding: 132 -1 126
Width: 1837
Flags: HW
LayerCount: 2
Back
SplineSet
1251.328125 215.040039062 m 0
 1591.4375 215.040039062 1677.31152344 453.581054688 1677.31152344 649.215820312 c 0
 1677.31152344 936.124023438 1508.41796875 1230.78613281 1333.24804688 1275.90429688 c 1
 1345.72265625 1245.96386719 1361.91992188 1173.93164062 1361.91992188 1132.54394531 c 0
 1361.91992188 1064.22460938 1330.19238281 991.232421875 1202.17578125 991.232421875 c 0
 1037.12402344 991.232421875 913.408203125 1164.25976562 913.408203125 1310.71972656 c 0
 913.408203125 1378.38378906 938.393554688 1495.04003906 1130.49609375 1495.04003906 c 0
 1303.89355469 1495.04003906 1452.71386719 1394.00585938 1576.95996094 1191.93554688 c 0
 1693.01367188 1003.51953125 1751.04003906 796.671875 1751.04003906 571.391601562 c 0
 1751.04003906 229.818359375 1596.77050781 -10.240234375 1286.14355469 -10.240234375 c 0
 1110.83496094 -10.240234375 954.327148438 146.141601562 847.872070312 274.431640625 c 1
 797.353515625 210.26171875 754.345703125 163.157226562 718.84765625 133.120117188 c 0
 608.255859375 37.546875 495.616210938 -10.240234375 380.927734375 -10.240234375 c 0
 184.060546875 -10.240234375 90.1123046875 98.4130859375 90.1123046875 217.087890625 c 0
 90.1123046875 326.041992188 177.272460938 489.471679688 468.9921875 489.471679688 c 0
 595.788085938 489.471679688 695.18359375 458.817382812 802.81640625 397.311523438 c 1
 861.526367188 465.578125 890.879882812 564.56640625 890.879882812 694.272460938 c 0
 890.879882812 905.893554688 793.573242188 1058.81640625 598.015625 1058.81640625 c 0
 441.880859375 1058.81640625 391.16796875 969.11328125 391.16796875 909.311523438 c 0
 391.16796875 846.505859375 423.25390625 815.103515625 487.423828125 815.103515625 c 1
 469.2421875 829.653320312 466.944335938 855.654296875 466.944335938 882.688476562 c 0
 466.944335938 933.068359375 506.265625 966.65625 565.248046875 966.65625 c 256
 605.388671875 966.65625 665.599609375 943.71875 665.599609375 851.967773438 c 0
 665.599609375 767.717773438 590.438476562 714.751953125 512 714.751953125 c 0
 381.21875 714.751953125 321.536132812 827.629882812 321.536132812 935.935546875 c 0
 321.536132812 1057.99511719 393.168945312 1210.36816406 577.536132812 1210.36816406 c 0
 830.232421875 1210.36816406 960.51171875 966.166992188 960.51171875 671.744140625 c 0
 960.51171875 536.576171875 935.25390625 434.17578125 884.736328125 364.543945312 c 1
 1055.27539062 217.522460938 1210.84472656 215.040039062 1251.328125 215.040039062 c 0
1153.02441406 1091.58398438 m 256
 1217.02636719 1091.58398438 1292.28222656 1125.44140625 1286.14355469 1226.75195312 c 0
 1286.14355469 1271.32910156 1290.89746094 1333.24804688 1150.97558594 1333.24804688 c 0
 1085.23535156 1333.24804688 1013.75976562 1297.203125 1013.75976562 1210.36816406 c 256
 1013.75976562 1115.34082031 1103.2578125 1091.58398438 1153.02441406 1091.58398438 c 256
454.65625 423.935546875 m 0
 270.130859375 423.935546875 176.127929688 327.688476562 176.127929688 247.807617188 c 0
 176.127929688 185.002929688 226.646484375 153.599609375 327.6796875 153.599609375 c 0
 498.892578125 153.599609375 657.671875 256.360351562 755.711914062 331.776367188 c 1
 706.029296875 365.650390625 605.22265625 423.935546875 454.65625 423.935546875 c 0
EndSplineSet
Fore
SplineSet
1251 215 m 0
 1591 215 1677 453 1677 649 c 0
 1677 936 1508 1231 1333 1276 c 1
 1345 1246 1362 1174 1362 1133 c 0
 1362 1065 1330 991 1202 991 c 0
 1037 991 913 1165 913 1311 c 0
 913 1379 938 1495 1130 1495 c 0
 1303 1495 1453 1394 1577 1192 c 0
 1693 1004 1751 796 1751 571 c 0
 1751 229 1597 -10 1286 -10 c 0
 1111 -10 954 146 848 274 c 1
 797 210 754 163 719 133 c 0
 608 37 496 -10 381 -10 c 0
 184 -10 90 98 90 217 c 0
 90 326 177 489 469 489 c 0
 596 489 695 459 803 397 c 1
 862 465 891 564 891 694 c 0
 891 906 794 1059 598 1059 c 0
 442 1059 391 969 391 909 c 0
 391 846 423 815 487 815 c 1
 469 830 467 856 467 883 c 0
 467 933 506 967 565 967 c 256
 605 967 666 944 666 852 c 0
 666 768 590 715 512 715 c 0
 381 715 322 828 322 936 c 0
 322 1058 394 1210 578 1210 c 0
 831 1210 961 966 961 672 c 0
 961 537 936 435 885 365 c 1
 1056 218 1211 215 1251 215 c 0
1153 1092 m 256
 1217 1092 1292 1126 1286 1227 c 0
 1286 1272 1291 1333 1151 1333 c 0
 1085 1333 1014 1297 1014 1210 c 256
 1014 1115 1103 1092 1153 1092 c 256
455 424 m 0
 270 424 176 328 176 248 c 0
 176 185 227 154 328 154 c 0
 499 154 658 257 756 332 c 1
 706 366 606 424 455 424 c 0
EndSplineSet
LCarets2: 1 0
EndChar

StartChar: kha.sub
Encoding: 133 -1 127
Width: 485
Flags: HW
AnchorPoint: "Sub" -686 248 mark 0
AnchorPoint: "Sub" 442 -786 basemark 0
LayerCount: 2
Back
SplineSet
143.360351562 208.896484375 m 1
 158.633789062 235.626953125 178.081054688 249.849609375 223.232421875 251.904296875 c 0
 355.942382812 251.904296875 444.416015625 -66.81640625 444.416015625 -327.6796875 c 0
 444.416015625 -575.1640625 378.34375 -794.624023438 174.080078125 -794.624023438 c 0
 27.771484375 -794.624023438 -42.9072265625 -715.7578125 -137.215820312 -626.688476562 c 1
 -216.606445312 -775.546875 -349.255859375 -794.624023438 -419.83984375 -794.624023438 c 0
 -599.245117188 -794.624023438 -649.215820312 -696.3203125 -649.215820312 -630.784179688 c 0
 -649.215820312 -561.15234375 -594.765625 -456.704101562 -409.599609375 -456.704101562 c 0
 -309.657226562 -456.704101562 -235.286132812 -488.76171875 -159.744140625 -542.719726562 c 1
 -111.8203125 -494.798828125 -98.3037109375 -400.1796875 -98.3037109375 -364.543945312 c 0
 -98.3037109375 -295.373046875 -128.205078125 -182.272460938 -247.807617188 -182.272460938 c 0
 -300.575195312 -182.272460938 -324.931640625 -221.288085938 -319.48828125 -253.952148438 c 1
 -307.609375 -242.073242188 -297.265625 -239.616210938 -274.431640625 -239.616210938 c 0
 -230.7421875 -239.616210938 -208.896484375 -260.095703125 -208.896484375 -301.055664062 c 0
 -208.896484375 -343.896484375 -241.7109375 -376.83203125 -296.959960938 -376.83203125 c 0
 -354.713867188 -376.83203125 -393.215820312 -334.233398438 -393.215820312 -270.3359375 c 0
 -393.215820312 -199.247070312 -348.565429688 -116.736328125 -247.807617188 -116.736328125 c 0
 -138.59765625 -116.736328125 -49.15234375 -223.086914062 -49.15234375 -370.688476562 c 0
 -49.15234375 -462.008789062 -72.41015625 -516.00390625 -106.49609375 -571.391601562 c 1
 -63.2705078125 -605.009765625 22.5283203125 -653.311523438 108.543945312 -653.311523438 c 0
 281.993164062 -653.311523438 376.83203125 -512.927734375 376.83203125 -325.631835938 c 0
 376.83203125 -130.514648438 273.987304688 68.9375 143.360351562 208.896484375 c 1
-409.599609375 -522.240234375 m 0
 -512.942382812 -522.240234375 -581.631835938 -564.453125 -581.631835938 -608.255859375 c 0
 -581.631835938 -658.774414062 -528.383789062 -684.032226562 -421.887695312 -684.032226562 c 0
 -287.94921875 -684.032226562 -230.82421875 -628.637695312 -198.65625 -591.872070312 c 1
 -304.107421875 -519.37890625 -388.739257812 -522.240234375 -409.599609375 -522.240234375 c 0
EndSplineSet
Fore
SplineSet
143 209 m 1
 158 236 178 250 223 252 c 0
 356 252 444 -67 444 -328 c 0
 444 -575 378 -795 174 -795 c 0
 28 -795 -43 -716 -137 -627 c 1
 -216 -776 -349 -795 -420 -795 c 0
 -599 -795 -649 -697 -649 -631 c 0
 -649 -561 -595 -457 -410 -457 c 0
 -310 -457 -236 -489 -160 -543 c 1
 -112 -495 -98 -401 -98 -365 c 0
 -98 -296 -128 -182 -248 -182 c 0
 -301 -182 -324 -221 -319 -254 c 1
 -307 -242 -297 -240 -274 -240 c 0
 -230 -240 -209 -260 -209 -301 c 0
 -209 -344 -242 -377 -297 -377 c 0
 -355 -377 -393 -334 -393 -270 c 0
 -393 -199 -349 -117 -248 -117 c 0
 -139 -117 -49 -223 -49 -371 c 0
 -49 -462 -72 -516 -106 -571 c 1
 -63 -605 23 -653 109 -653 c 0
 282 -653 377 -513 377 -326 c 0
 377 -131 274 69 143 209 c 1
-410 -522 m 0
 -513 -522 -582 -564 -582 -608 c 0
 -582 -659 -528 -684 -422 -684 c 0
 -288 -684 -231 -629 -199 -592 c 1
 -304 -520 -389 -522 -410 -522 c 0
EndSplineSet
LCarets2: 1 0
EndChar

StartChar: ga
Encoding: 134 3223 128
Width: 1366
Flags: HW
HStem: 995 188<111 457 538 842 922 1064>
VStem: 111 186<-4 500> 1053 190<-4 517> 1130 113<1249 1480>
LayerCount: 2
Back
SplineSet
112.639648438 -4.095703125 m 1
 112.639648438 459.884765625 176.405273438 806.287109375 456.704101562 995.328125 c 1
 110.591796875 995.328125 l 1
 110.591796875 1183.74414062 l 1
 911.360351562 1183.74414062 l 2
 1092.0078125 1183.74414062 1130.49609375 1301.13574219 1130.49609375 1376.25585938 c 0
 1130.49609375 1507.73730469 1043.48046875 1573.87792969 997.375976562 1595.39160156 c 1
 1060.86425781 1634.30371094 l 1
 1153.66699219 1591.87792969 1243.13574219 1442.875 1243.13574219 1288.19238281 c 0
 1243.13574219 1120.79101562 1113.8359375 995.328125 964.608398438 995.328125 c 2
 921.599609375 995.328125 l 1
 1194.73339844 806.733398438 1247.51660156 458.16796875 1243.13574219 -4.095703125 c 1
 1052.671875 -4.095703125 l 1
 1052.671875 618.393554688 980.58203125 1001.47167969 692.223632812 1001.47167969 c 0
 428.713867188 1001.47167969 296.959960938 667.6484375 296.959960938 -4.095703125 c 1
 112.639648438 -4.095703125 l 1
EndSplineSet
Fore
SplineSet
113 -4 m 1xe0
 113 460 177 806 457 995 c 1
 111 995 l 1
 111 1184 l 1
 911 1184 l 2
 1092 1184 1130 1301 1130 1376 c 0
 1130 1507 1043 1573 997 1595 c 1
 1061 1634 l 1
 1154 1592 1243 1443 1243 1288 c 0xd0
 1243 1121 1114 995 965 995 c 2
 922 995 l 1
 1195 806 1247 458 1243 -4 c 1
 1053 -4 l 1
 1053 618 980 1001 692 1001 c 0
 428 1001 297 668 297 -4 c 1
 113 -4 l 1xe0
EndSplineSet
LCarets2: 1 0
EndChar

StartChar: ga.base
Encoding: 135 -1 129
Width: 1337
Flags: HW
LayerCount: 2
Back
SplineSet
112.639648438 -4.095703125 m 1
 112.639648438 459.884765625 176.405273438 806.287109375 456.704101562 995.328125 c 1
 110.591796875 995.328125 l 1
 110.591796875 1183.74414062 l 1
 966.65625 1183.74414062 l 1
 966.65625 995.328125 l 1
 921.599609375 995.328125 l 1
 1194.73339844 806.733398438 1247.51660156 458.16796875 1243.13574219 -4.095703125 c 1
 1052.671875 -4.095703125 l 1
 1052.671875 621.772460938 980.58203125 1001.47167969 692.223632812 1001.47167969 c 0
 428.713867188 1001.47167969 296.959960938 667.6484375 296.959960938 -4.095703125 c 1
 112.639648438 -4.095703125 l 1
EndSplineSet
Fore
SplineSet
113 -4 m 1
 113 460 177 806 457 995 c 1
 111 995 l 1
 111 1184 l 1
 967 1184 l 1
 967 995 l 1
 922 995 l 1
 1195 806 1247 458 1243 -4 c 1
 1053 -4 l 1
 1053 622 980 1001 692 1001 c 0
 428 1001 297 668 297 -4 c 1
 113 -4 l 1
EndSplineSet
EndChar

StartChar: ga.imathra
Encoding: 136 -1 130
Width: 1314
Flags: HW
LayerCount: 2
Back
SplineSet
182.272460938 1228.79980469 m 0
 182.272460938 1365.19726562 311.654296875 1456.12792969 491.51953125 1456.12792969 c 0
 679.935546875 1456.12792969 844.458007812 1378.98632812 985.087890625 1224.70410156 c 0
 1158.48632812 1036.28808594 1241.93554688 770.713867188 1245.18359375 428.032226562 c 2
 1249.28027344 -4.095703125 l 1
 1062.91210938 -4.095703125 l 1
 1062.91210938 543.078125 984.678710938 1021.95214844 671.744140625 1021.95214844 c 0
 352.255859375 1021.95214844 272.383789062 518.604492188 272.383789062 -4.095703125 c 1
 86.015625 -4.095703125 l 1
 86.015625 268.288085938 l 2
 86.015625 695.91015625 228.595703125 845.081054688 397.311523438 980.9921875 c 1
 351.182617188 992.524414062 182.272460938 1030.55371094 182.272460938 1228.79980469 c 0
479.232421875 1030.14355469 m 1
 593.630859375 1080.47558594 665.541015625 1077.24804688 686.080078125 1077.24804688 c 0
 863.846679688 1077.24804688 1009.76074219 971.407226562 1130.49609375 784.383789062 c 1
 1093.63183594 917.50390625 l 0
 963.776367188 1234.03515625 735.803710938 1308.671875 544.767578125 1308.671875 c 0
 373.759765625 1308.671875 348.16015625 1226.34277344 348.16015625 1171.45605469 c 256
 348.16015625 1076.56445312 418.797851562 1051.16308594 479.232421875 1030.14355469 c 1
EndSplineSet
Fore
SplineSet
182 1229 m 0
 182 1365 312 1456 492 1456 c 0
 680 1456 844 1379 985 1225 c 0
 1158 1037 1242 771 1245 428 c 2
 1249 -4 l 1
 1063 -4 l 1
 1063 543 985 1022 672 1022 c 0
 353 1022 272 519 272 -4 c 1
 86 -4 l 1
 86 268 l 2
 86 696 228 845 397 981 c 1
 351 993 182 1031 182 1229 c 0
479 1030 m 1
 593 1080 665 1077 686 1077 c 0
 864 1077 1009 971 1130 784 c 1
 1094 918 l 0
 964 1235 736 1309 545 1309 c 0
 374 1309 348 1226 348 1171 c 256
 348 1076 419 1051 479 1030 c 1
EndSplineSet
LCarets2: 1 0
EndChar

StartChar: ga.sub
Encoding: 137 -1 131
Width: 485
Flags: HW
AnchorPoint: "Sub" -498 -152 mark 0
AnchorPoint: "Sub" 440 -795 basemark 0
LayerCount: 2
Back
SplineSet
-22.5283203125 -172.032226562 m 0
 -276.172851562 -172.032226562 -321.536132812 -462.923828125 -321.536132812 -768 c 1
 -489.471679688 -768 l 1
 -489.471679688 -440.830078125 -310.145507812 -118.784179688 -38.912109375 -118.784179688 c 0
 259.84375 -118.784179688 443.629882812 -422.479492188 446.463867188 -768 c 1
 270.3359375 -768 l 1
 295.475585938 -453.68359375 150.514648438 -172.032226562 -22.5283203125 -172.032226562 c 0
EndSplineSet
Fore
SplineSet
-23 -172 m 4
 -277 -172 -322 -463 -322 -768 c 5
 -489 -768 l 5
 -489 -441 -310 -119 -39 -119 c 4
 260 -119 443 -422 446 -768 c 5
 270 -768 l 5
 295 -454 150 -172 -23 -172 c 4
EndSplineSet
LCarets2: 1 0
EndChar

StartChar: gha
Encoding: 138 3224 132
Width: 1685
Flags: HW
HStem: -31 209<276 597 967 1273> 326 31<388 403> 514 127<1439 1607> 594 109<210 435> 633 254<671 861> 991 188<96 1410>
VStem: 92 70<294 530> 465 111<384 563> 653 246<-391 -150 668 849> 1370 74<283 562> 1481 113<1245 1476> 1616 119<645 836>
LayerCount: 2
Back
SplineSet
2.0478515625 4.095703125 m 1
 4.095703125 4.095703125 l 1
 2.0478515625 4.095703125 l 1
2.0478515625 4.095703125 m 1
 4.095703125 4.095703125 l 1
 2.0478515625 4.095703125 l 1
1546.24023438 884.736328125 m 1
 1529.85644531 933.887695312 1589.24804688 966.65625 1624.06445312 933.887695312 c 1
 1697.79199219 845.141601562 1734.65625 761.173828125 1734.65625 681.984375 c 0
 1734.65625 614.809570312 1703.52636719 514.047851562 1579.0078125 514.047851562 c 0
 1518.38671875 514.047851562 1466.70605469 540.716796875 1427.45605469 565.248046875 c 1
 1438.37792969 516.095703125 1443.83984375 462.84765625 1443.83984375 405.50390625 c 0
 1443.83984375 155.123046875 1333.02929688 -30.7197265625 1110.015625 -30.7197265625 c 0
 907.8984375 -30.7197265625 782.892578125 217.25 772.095703125 235.51953125 c 1
 738.482421875 165.091796875 652.18359375 -30.7197265625 436.223632812 -30.7197265625 c 0
 205.40625 -30.7197265625 92.16015625 185.587890625 92.16015625 405.50390625 c 0
 92.16015625 643.072265625 264.538085938 702.463867188 356.3515625 702.463867188 c 0
 459.411132812 702.463867188 575.48828125 633.6015625 575.48828125 479.232421875 c 0
 575.48828125 386.166992188 499.752929688 325.631835938 436.223632812 325.631835938 c 0
 410.282226562 325.631835938 387.072265625 335.872070312 366.591796875 356.3515625 c 1
 416.518554688 371.951171875 464.896484375 403.865234375 464.896484375 475.135742188 c 0
 464.896484375 546.40625 404.58203125 593.919921875 321.536132812 593.919921875 c 0
 253.08203125 593.919921875 161.791992188 549.478515625 161.791992188 411.6484375 c 0
 161.791992188 293.000976562 255.170898438 178.17578125 432.127929688 178.17578125 c 0
 515.4140625 178.17578125 587.09375 205.482421875 647.16796875 260.095703125 c 0
 726.358398438 332.458007812 747.51953125 393.215820312 765.952148438 450.559570312 c 1
 801.874023438 381.83984375 903.958984375 178.17578125 1114.11230469 178.17578125 c 0
 1317.62402344 178.17578125 1370.11230469 318.086914062 1370.11230469 413.696289062 c 0
 1370.11230469 629.784179688 1193.984375 673.961914062 1193.984375 780.288085938 c 0
 1193.984375 813.465820312 1220.19824219 835.583984375 1259.51953125 835.583984375 c 0
 1364.08105469 835.583984375 1351.6796875 647.16796875 1464.3203125 641.024414062 c 0
 1464.32421875 641.024414062 1617.91992188 593.919921875 1615.87207031 737.280273438 c 0
 1615.45019531 766.76953125 1606.62890625 811.63671875 1546.24023438 884.736328125 c 1
774.143554688 24.576171875 m 1
 789.946289062 -7.7822265625 895.801757812 -231.567382812 899.072265625 -296.959960938 c 1
 899.072265625 -378.142578125 843.2578125 -421.887695312 776.192382812 -421.887695312 c 0
 736.409179688 -421.887695312 653.311523438 -396.90234375 653.311523438 -296.959960938 c 0
 653.311523438 -232.65234375 758.51171875 -8.1767578125 774.143554688 24.576171875 c 1
757.759765625 886.784179688 m 0
 822.834960938 886.784179688 897.024414062 836.8125 897.024414062 761.856445312 c 0
 897.024414062 684.44140625 834.8671875 632.83203125 757.759765625 632.83203125 c 0
 710.297851562 632.83203125 634.458007812 658.59375 643.072265625 759.807617188 c 0
 651.263671875 856.064453125 710.297851562 886.784179688 757.759765625 886.784179688 c 0
1480.70410156 1372.16015625 m 0
 1480.70410156 1503.64160156 1393.68847656 1569.78222656 1347.58398438 1591.29589844 c 1
 1411.07226562 1630.20800781 l 1
 1503.875 1587.78125 1593.34375 1438.77929688 1593.34375 1284.09570312 c 0
 1593.34375 1116.69433594 1479.6796875 991.232421875 1304.57617188 991.232421875 c 2
 96.255859375 991.232421875 l 1
 96.255859375 1179.6484375 l 1
 1261.56835938 1179.6484375 l 2
 1442.21582031 1179.6484375 1480.70410156 1297.0390625 1480.70410156 1372.16015625 c 0
EndSplineSet
Fore
SplineSet
2 4 m 1xc7f0
 4 4 l 1
 2 4 l 1xc7f0
2 4 m 1
 4 4 l 1
 2 4 l 1
1546 885 m 1
 1530 934 1589 967 1624 934 c 1
 1698 845 1735 761 1735 682 c 0
 1735 615 1704 514 1579 514 c 0xe7f0
 1518 514 1466 540 1427 565 c 1
 1438 516 1444 463 1444 406 c 0
 1444 156 1333 -31 1110 -31 c 0
 908 -31 783 218 772 236 c 1
 738 166 652 -31 436 -31 c 0
 205 -31 92 186 92 406 c 0
 92 644 264 702 356 702 c 0
 459 702 575 633 575 479 c 0
 575 386 500 326 436 326 c 0
 410 326 387 336 367 356 c 1
 417 372 465 404 465 475 c 0
 465 546 405 594 322 594 c 0xd7f0
 254 594 162 550 162 412 c 0
 162 293 255 178 432 178 c 0
 515 178 587 205 647 260 c 0
 726 332 748 394 766 451 c 1
 802 382 904 178 1114 178 c 0
 1318 178 1370 318 1370 414 c 0
 1370 630 1194 674 1194 780 c 0
 1194 813 1221 836 1260 836 c 0
 1365 836 1351 647 1464 641 c 0xe7f0
 1464 641 1618 594 1616 737 c 0
 1616 766 1606 812 1546 885 c 1
774 25 m 1
 790 -7 901 -215 899 -297 c 0
 897 -365 843 -422 776 -422 c 0
 736 -422 653 -397 653 -297 c 0
 653 -233 758 -8 774 25 c 1
758 887 m 0xcff0
 823 887 897 837 897 762 c 0
 897 685 835 633 758 633 c 0
 711 633 634 659 643 760 c 0
 651 856 711 887 758 887 c 0xcff0
1481 1372 m 0
 1481 1503 1394 1569 1348 1591 c 1
 1411 1630 l 1
 1504 1588 1593 1439 1593 1284 c 0
 1593 1117 1480 991 1305 991 c 2
 96 991 l 1
 96 1180 l 1
 1262 1180 l 2
 1443 1180 1481 1297 1481 1372 c 0
EndSplineSet
LCarets2: 1 0
EndChar

StartChar: gha.base
Encoding: 139 -1 133
Width: 1656
Flags: HW
LayerCount: 2
Back
SplineSet
757.759765625 886.784179688 m 0
 822.834960938 886.784179688 897.024414062 836.8125 897.024414062 761.856445312 c 0
 897.024414062 684.44140625 834.8671875 632.83203125 757.759765625 632.83203125 c 0
 710.297851562 632.83203125 634.458007812 658.59375 643.072265625 759.807617188 c 256
 651.263671875 856.064453125 710.297851562 886.784179688 757.759765625 886.784179688 c 0
774.143554688 24.576171875 m 1
 789.946289062 -7.7822265625 895.801757812 -231.567382812 899.072265625 -296.959960938 c 1
 899.072265625 -378.142578125 843.2578125 -421.887695312 776.192382812 -421.887695312 c 0
 736.409179688 -421.887695312 653.311523438 -396.90234375 653.311523438 -296.959960938 c 0
 653.311523438 -232.65234375 758.51171875 -8.1767578125 774.143554688 24.576171875 c 1
1271.80761719 991.232421875 m 1
 96.255859375 991.232421875 l 1
 96.255859375 1179.6484375 l 1
 1271.80761719 1179.6484375 l 1
 1271.80761719 991.232421875 l 1
1546.24023438 884.736328125 m 1
 1529.85644531 933.887695312 1589.24804688 966.65625 1624.06445312 933.887695312 c 1
 1697.79199219 845.141601562 1734.65625 761.173828125 1734.65625 681.984375 c 0
 1734.65625 614.809570312 1703.52636719 514.047851562 1579.0078125 514.047851562 c 0
 1518.38671875 514.047851562 1466.70605469 540.716796875 1427.45605469 565.248046875 c 1
 1438.37792969 516.095703125 1443.83984375 462.84765625 1443.83984375 405.50390625 c 0
 1443.83984375 155.123046875 1333.02929688 -30.7197265625 1110.015625 -30.7197265625 c 0
 907.8984375 -30.7197265625 782.892578125 217.25 772.095703125 235.51953125 c 1
 738.482421875 165.091796875 652.18359375 -30.7197265625 436.223632812 -30.7197265625 c 0
 205.40625 -30.7197265625 92.16015625 185.587890625 92.16015625 405.50390625 c 0
 92.16015625 643.072265625 264.538085938 702.463867188 356.3515625 702.463867188 c 0
 459.411132812 702.463867188 575.48828125 633.6015625 575.48828125 479.232421875 c 0
 575.48828125 386.166992188 499.752929688 325.631835938 436.223632812 325.631835938 c 0
 410.282226562 325.631835938 387.072265625 335.872070312 366.591796875 356.3515625 c 1
 416.518554688 371.951171875 464.896484375 403.865234375 464.896484375 475.135742188 c 0
 464.896484375 546.40625 404.58203125 593.919921875 321.536132812 593.919921875 c 0
 253.08203125 593.919921875 161.791992188 549.478515625 161.791992188 411.6484375 c 0
 161.791992188 293.000976562 255.170898438 178.17578125 432.127929688 178.17578125 c 0
 515.4140625 178.17578125 587.09375 205.482421875 647.16796875 260.095703125 c 0
 726.358398438 332.458007812 747.51953125 393.215820312 765.952148438 450.559570312 c 1
 801.874023438 381.83984375 903.958984375 178.17578125 1114.11230469 178.17578125 c 0
 1317.62402344 178.17578125 1370.11230469 318.086914062 1370.11230469 413.696289062 c 0
 1370.11230469 629.784179688 1193.984375 673.961914062 1193.984375 780.288085938 c 0
 1193.984375 813.465820312 1220.19824219 835.583984375 1259.51953125 835.583984375 c 0
 1364.08105469 835.583984375 1351.6796875 647.16796875 1464.3203125 641.024414062 c 0
 1464.32421875 641.024414062 1617.91992188 593.919921875 1615.87207031 737.280273438 c 0
 1615.45019531 766.76953125 1606.62890625 811.63671875 1546.24023438 884.736328125 c 1
EndSplineSet
Fore
SplineSet
758 887 m 0
 823 887 897 837 897 762 c 0
 897 685 835 633 758 633 c 0
 711 633 634 659 643 760 c 256
 651 856 711 887 758 887 c 0
774 25 m 1
 790 -7 881 -172 899 -297 c 0
 909 -365 843 -422 776 -422 c 0
 736 -422 653 -397 653 -297 c 0
 653 -233 758 -8 774 25 c 1
1272 991 m 1
 96 991 l 1
 96 1180 l 1
 1272 1180 l 1
 1272 991 l 1
1546 885 m 0
 1519 923 1591 968 1624 934 c 0
 1698 858 1735 761 1735 682 c 0
 1735 615 1704 514 1579 514 c 0
 1518 514 1466 540 1427 565 c 1
 1438 516 1444 463 1444 406 c 0
 1444 156 1333 -31 1110 -31 c 0
 908 -31 783 218 772 236 c 1
 738 166 652 -31 436 -31 c 0
 205 -31 92 186 92 406 c 0
 92 644 264 702 356 702 c 0
 459 702 575 633 575 479 c 0
 575 386 500 326 436 326 c 0
 410 326 387 336 367 356 c 1
 417 372 465 404 465 475 c 0
 465 546 405 594 322 594 c 0
 254 594 162 550 162 412 c 0
 162 293 255 178 432 178 c 0
 515 178 587 205 647 260 c 0
 726 332 748 394 766 451 c 1
 802 382 904 178 1114 178 c 0
 1318 178 1370 318 1370 414 c 0
 1370 630 1194 674 1194 780 c 0
 1194 813 1221 836 1260 836 c 0
 1365 836 1351 647 1464 641 c 0
 1464 641 1616 594 1616 737 c 0
 1616 780 1589 826 1546 885 c 0
EndSplineSet
EndChar

